SplineFontDB: 3.2
FontName: CPMono_v07Plain
FullName: CPMono_v07 Plain
FamilyName: CPMono_v07 Plain
Weight: Regular
Copyright: Copyright (c) 2009 by Tino Meinert. All rights reserved.
Version: 001.001
ItalicAngle: 0
UnderlinePosition: -158
UnderlineWidth: 160
Ascent: 760
Descent: 240
InvalidEm: 0
sfntRevision: 0x00010000
LayerCount: 2
Layer: 0 0 "Back" 1
Layer: 1 0 "Fore" 0
XUID: [1021 337 -1038290381 6681971]
UniqueID: 4552553
StyleMap: 0x0000
FSType: 4
OS2Version: 2
OS2_WeightWidthSlopeOnly: 0
OS2_UseTypoMetrics: 0
CreationTime: 1239902804
ModificationTime: 1681806159
PfmFamily: 17
TTFWeight: 305
TTFWidth: 5
LineGap: 200
VLineGap: 0
Panose: 2 0 5 9 3 0 0 2 0 4
OS2TypoAscent: 760
OS2TypoAOffset: 0
OS2TypoDescent: -240
OS2TypoDOffset: 0
OS2TypoLinegap: 200
OS2WinAscent: 912
OS2WinAOffset: 0
OS2WinDescent: 288
OS2WinDOffset: 0
HheadAscent: 912
HheadAOffset: 0
HheadDescent: -288
HheadDOffset: 0
OS2SubXSize: 700
OS2SubYSize: 650
OS2SubXOff: 0
OS2SubYOff: 140
OS2SupXSize: 700
OS2SupYSize: 650
OS2SupXOff: 0
OS2SupYOff: 477
OS2StrikeYSize: 50
OS2StrikeYPos: 250
OS2CapHeight: 684
OS2XHeight: 528
OS2FamilyClass: 2058
OS2Vendor: 'PYRS'
OS2CodePages: 00000001.00000000
OS2UnicodeRanges: 00000001.00000000.00000000.00000000
Lookup: 1 0 0 "'aalt' Access All Alternates in Latin lookup 0" { "'aalt' Access All Alternates in Latin lookup 0 subtable"  } ['aalt' ('latn' <'dflt' > ) ]
Lookup: 3 0 0 "'aalt' Access All Alternates in Latin lookup 1" { "'aalt' Access All Alternates in Latin lookup 1 subtable"  } ['aalt' ('latn' <'dflt' > ) ]
Lookup: 1 0 0 "'c2sc' Capitals to Small Capitals in Latin lookup 2" { "'c2sc' Capitals to Small Capitals in Latin lookup 2 subtable"  } ['c2sc' ('latn' <'dflt' > ) ]
Lookup: 1 0 0 "'smcp' Lowercase to Small Capitals in Latin lookup 3" { "'smcp' Lowercase to Small Capitals in Latin lookup 3 subtable"  } ['smcp' ('latn' <'dflt' > ) ]

StartChar: .notdef
Encoding: 65536 -1 0
Width: 487
VWidth: 671
Flags: HMW
HStem: 92 28.5<191 458.5 191 487.5> 171 10.5G<210 210 210 244.5 405 405 405 439.5> 503 10G<210 244.5 244.5 244.5 405 439.5 439.5 439.5> 563 29<191 191 191 458.5>
VStem: 162.5 28.5<120.5 563 120.5 592> 458.5 29<120.5 563 563 563>
LayerCount: 2
Fore
SplineSet
162.5 92 m 1
 162.5 592 l 1
 487.5 592 l 1
 487.5 92 l 1
 162.5 92 l 1
191 563 m 1
 191 120.5 l 1
 458.5 120.5 l 1
 458.5 563 l 1
 191 563 l 1
210 171 m 1
 307.5 342 l 1
 210 513 l 1
 244.5 513 l 1
 324.5 380.5 l 1
 405 513 l 1
 439.5 513 l 1
 342 342 l 1
 439.5 171 l 1
 405 171 l 1
 324.5 303 l 1
 244.5 171 l 1
 210 171 l 1
EndSplineSet
EndChar

StartChar: A
Encoding: 65 65 3
Width: 487
VWidth: 671
Flags: HMW
HStem: 171 10.5G<186 236.5 186 186 413.5 464 413.5 413.5> 277 45<265.5 384 265.5 400 249.5 384> 503 10G<299 351 351 351>
VStem: 186 63.5<171 277 257 277> 413.5 50.5<171 248.5 248.5 248.5>
LayerCount: 2
Fore
SplineSet
351 513 m 1
 464 257 l 1
 464 171 l 1
 413.5 171 l 1
 413.5 248.5 l 1
 400 277 l 1
 249.5 277 l 1
 236.5 248.5 l 1
 236.5 171 l 1
 186 171 l 1
 186 257 l 1
 299 513 l 1
 351 513 l 1
324 455 m 1
 265.5 322 l 1
 384 322 l 1
 326 455 l 1
 324 455 l 1
EndSplineSet
Substitution2: "'ss01' Style Set 1 in Latin lookup 5 subtable" A.alt1
Substitution2: "'salt' Stylistic Alternatives in Latin lookup 4 subtable" A.alt1
Substitution2: "'c2sc' Capitals to Small Capitals in Latin lookup 2 subtable" A.sc
AlternateSubs2: "'aalt' Access All Alternates in Latin lookup 1 subtable" A.sc A.alt1
EndChar

StartChar: B
Encoding: 66 66 4
Width: 489
VWidth: 671
Flags: HMW
HStem: 171 47<259.75 360.75 360.75 367.75> 322 45.5<259.75 360.75 259.75 360.75> 466.5 46.5<259.75 360.75 259.75 259.75>
VStem: 209.25 50.5<218 218 218 322 367.5 466.5> 399.25 50.5<253.5 286.5 286.5 287 218.25 299 404 431 431 440>
LayerCount: 2
Fore
SplineSet
209.25 171 m 1
 209.25 513 l 1
 367.75 513 l 2
 422.75 513 449.75 491.5 449.75 440 c 2
 449.75 403 l 2
 449.75 373.5 438.25 352.5 411.25 345 c 1
 438.25 338 449.75 317 449.75 287 c 2
 449.75 244 l 2
 449.75 192.5 422.75 171 367.75 171 c 2
 209.25 171 l 1
259.75 367.5 m 1
 360.75 367.5 l 2
 390.75 367.5 399.25 379 399.25 404 c 2
 399.25 431 l 2
 399.25 456 390.75 466.5 360.75 466.5 c 2
 259.75 466.5 l 1
 259.75 367.5 l 1
259.75 218 m 1
 360.75 218 l 2
 390.75 218 399.25 228.5 399.25 253.5 c 2
 399.25 286.5 l 2
 399.25 311.5 390.75 322 360.75 322 c 2
 259.75 322 l 1
 259.75 218 l 1
EndSplineSet
Substitution2: "'c2sc' Capitals to Small Capitals in Latin lookup 2 subtable" B.sc
Substitution2: "'aalt' Access All Alternates in Latin lookup 0 subtable" B.sc
EndChar

StartChar: C
Encoding: 67 67 5
Width: 487
VWidth: 671
Flags: HMW
HStem: 171 47<256.75 360.25 291.25 360.25 360.25 366.75> 466.5 46.5<284.25 291.25 291.25 360.25>
VStem: 202.25 50.5<244 253.5 253.5 431> 398.25 50.5<253.5 266.5 218.25 281.5 218.25 281.5 419.5 431 431 440>
LayerCount: 2
Fore
SplineSet
448.75 266.5 m 1
 448.75 244 l 2
 448.75 192.5 421.75 171 366.75 171 c 2
 284.25 171 l 2
 229.25 171 202.25 192.5 202.25 244 c 2
 202.25 440 l 2
 202.25 491 229.25 513 284.25 513 c 2
 366.75 513 l 2
 421.75 513 448.75 491 448.75 440 c 2
 448.75 419.5 l 1
 398.25 406 l 1
 398.25 431 l 2
 398.25 456 390.25 466.5 360.25 466.5 c 2
 291.25 466.5 l 2
 261.25 466.5 252.75 456 252.75 431 c 2
 252.75 253.5 l 2
 252.75 228.5 261.25 218 291.25 218 c 2
 360.25 218 l 2
 390.25 218 398.25 228.5 398.25 253.5 c 2
 398.25 281.5 l 1
 448.75 266.5 l 1
EndSplineSet
Substitution2: "'c2sc' Capitals to Small Capitals in Latin lookup 2 subtable" C.sc
Substitution2: "'aalt' Access All Alternates in Latin lookup 0 subtable" C.sc
EndChar

StartChar: D
Encoding: 68 68 6
Width: 487
VWidth: 671
Flags: HMW
HStem: 171 47<251.25 359.75 359.75 367.75> 466.5 46.5<251.25 359.75 251.25 251.25>
VStem: 200.75 50.5<218 466.5 218 513 218 513> 397.75 50.5<253.5 431 431 440>
LayerCount: 2
Fore
SplineSet
448.25 440 m 2
 448.25 244 l 2
 448.25 192.5 422.75 171 367.75 171 c 2
 200.75 171 l 1
 200.75 513 l 1
 367.75 513 l 2
 422.75 513 448.25 491.5 448.25 440 c 2
397.75 253.5 m 2
 397.75 431 l 2
 397.75 456 389.75 466.5 359.75 466.5 c 2
 251.25 466.5 l 1
 251.25 218 l 1
 359.75 218 l 2
 389.75 218 397.75 228.5 397.75 253.5 c 2
EndSplineSet
Substitution2: "'c2sc' Capitals to Small Capitals in Latin lookup 2 subtable" D.sc
Substitution2: "'aalt' Access All Alternates in Latin lookup 0 subtable" D.sc
EndChar

StartChar: E
Encoding: 69 69 7
Width: 488
VWidth: 671
Flags: HMW
HStem: 171 47<262 442.5 262 442.5> 323 45.5<262 413.5 262 413.5> 466.5 46.5<262 442.5 262 262>
VStem: 211.5 50.5<218 323 368.5 466.5>
LayerCount: 2
Fore
SplineSet
442.5 171 m 1
 211.5 171 l 1
 211.5 513 l 1
 442.5 513 l 1
 442.5 466.5 l 1
 262 466.5 l 1
 262 368.5 l 1
 413.5 368.5 l 1
 413.5 323 l 1
 262 323 l 1
 262 218 l 1
 442.5 218 l 1
 442.5 171 l 1
EndSplineSet
Substitution2: "'c2sc' Capitals to Small Capitals in Latin lookup 2 subtable" E.sc
Substitution2: "'aalt' Access All Alternates in Latin lookup 0 subtable" E.sc
EndChar

StartChar: F
Encoding: 70 70 8
Width: 497
VWidth: 671
Flags: HMW
HStem: 171 10.5G<226.25 276.75 226.25 226.25> 315 45.5<276.75 435.75 276.75 435.75> 466.5 46.5<276.75 462.75 276.75 276.75>
VStem: 226.25 50.5<171 315 360.5 466.5>
LayerCount: 2
Fore
SplineSet
462.75 466.5 m 1
 276.75 466.5 l 1
 276.75 360.5 l 1
 435.75 360.5 l 1
 435.75 315 l 1
 276.75 315 l 1
 276.75 171 l 1
 226.25 171 l 1
 226.25 513 l 1
 462.75 513 l 1
 462.75 466.5 l 1
EndSplineSet
Substitution2: "'c2sc' Capitals to Small Capitals in Latin lookup 2 subtable" F.sc
Substitution2: "'aalt' Access All Alternates in Latin lookup 0 subtable" F.sc
EndChar

StartChar: G
Encoding: 71 71 9
Width: 487
VWidth: 671
Flags: HMW
HStem: 171 47<255.5 362.25 289.25 362.25 362.25 365.75> 318 40<331.75 398.75 331.75 447.75> 466.5 46.5<283.25 289.75 289.75 359.25>
VStem: 201.25 50.5<244 253.5 253.5 431> 397.25 50.5<427 431 431 440>
LayerCount: 2
Fore
SplineSet
447.75 358 m 1
 447.75 244 l 2
 447.75 192.5 420.75 171 365.75 171 c 2
 283.25 171 l 2
 227.75 171 201.25 192.5 201.25 244 c 2
 201.25 440 l 2
 201.25 491.5 228.25 513 283.25 513 c 2
 368.25 513 l 2
 423.25 513 447.75 491.5 447.75 440 c 2
 447.75 427 l 1
 397.25 413.5 l 1
 397.25 431 l 2
 397.25 456 389.25 466.5 359.25 466.5 c 2
 289.75 466.5 l 2
 259.75 466.5 251.75 456 251.75 431 c 2
 251.75 253.5 l 2
 251.75 228.5 259.75 218 289.25 218 c 2
 362.25 218 l 2
 391.25 218 398.75 227 398.75 252 c 2
 398.75 318 l 1
 331.75 318 l 1
 331.75 358 l 1
 447.75 358 l 1
EndSplineSet
Substitution2: "'c2sc' Capitals to Small Capitals in Latin lookup 2 subtable" G.sc
Substitution2: "'aalt' Access All Alternates in Latin lookup 0 subtable" G.sc
EndChar

StartChar: H
Encoding: 72 72 10
Width: 487
VWidth: 671
Flags: HMW
HStem: 171 10.5G<196.25 246.75 196.25 196.25 402.25 452.75 402.25 402.25> 322 45.5<246.75 402.25 246.75 402.25> 503 10G<196.25 246.75 246.75 246.75 402.25 452.75 452.75 452.75>
VStem: 196.25 50.5<171 322 171 367.5 367.5 513> 402.25 50.5<171 322 322 322 367.5 513>
LayerCount: 2
Fore
SplineSet
452.75 171 m 1
 402.25 171 l 1
 402.25 322 l 1
 246.75 322 l 1
 246.75 171 l 1
 196.25 171 l 1
 196.25 513 l 1
 246.75 513 l 1
 246.75 367.5 l 1
 402.25 367.5 l 1
 402.25 513 l 1
 452.75 513 l 1
 452.75 171 l 1
EndSplineSet
Substitution2: "'c2sc' Capitals to Small Capitals in Latin lookup 2 subtable" H.sc
Substitution2: "'aalt' Access All Alternates in Latin lookup 0 subtable" H.sc
EndChar

StartChar: I
Encoding: 73 73 11
Width: 487
VWidth: 671
Flags: HMW
HStem: 171 47<204.25 299.25 204.25 299.25 349.75 444.75> 466.5 46.5<210.25 299.25 210.25 439.25 349.75 349.75 349.75 439.25>
VStem: 299.25 50.5<218 466.5 218 466.5>
LayerCount: 2
Fore
SplineSet
204.25 171 m 1
 204.25 218 l 1
 299.25 218 l 1
 299.25 466.5 l 1
 210.25 466.5 l 1
 210.25 513 l 1
 439.25 513 l 1
 439.25 466.5 l 1
 349.75 466.5 l 1
 349.75 218 l 1
 444.75 218 l 1
 444.75 171 l 1
 204.25 171 l 1
EndSplineSet
Substitution2: "'c2sc' Capitals to Small Capitals in Latin lookup 2 subtable" I.sc
Substitution2: "'aalt' Access All Alternates in Latin lookup 0 subtable" I.sc
EndChar

StartChar: J
Encoding: 74 74 12
Width: 483
VWidth: 671
Flags: HMW
HStem: 171 47<251.5 348.5 285.5 348.5 348.5 355> 466.5 46.5<215 437 215 386.5>
VStem: 197 50.5<244 253.5 253.5 278 278 278> 386.5 50.5<253.5 466.5 466.5 466.5>
LayerCount: 2
Fore
SplineSet
215 466.5 m 1
 215 513 l 1
 437 513 l 1
 437 244 l 2
 437 192.5 410 171 355 171 c 2
 279 171 l 2
 224 171 197 192.5 197 244 c 2
 197 278 l 1
 247.5 292.5 l 1
 247.5 253.5 l 2
 247.5 228.5 255.5 218 285.5 218 c 2
 348.5 218 l 2
 378.5 218 386.5 228.5 386.5 253.5 c 2
 386.5 466.5 l 1
 215 466.5 l 1
EndSplineSet
Substitution2: "'c2sc' Capitals to Small Capitals in Latin lookup 2 subtable" J.sc
Substitution2: "'aalt' Access All Alternates in Latin lookup 0 subtable" J.sc
EndChar

StartChar: K
Encoding: 75 75 13
Width: 496
VWidth: 671
Flags: HMW
HStem: 171 10.5G<210 260.5 210 210 408.5 457.5 408.5 408.5> 503 10G<210 260.5 260.5 260.5 410.5 476 476 476>
VStem: 210 50.5<171 277.5 348 513> 408.5 49<171 255.5 255.5 255.5>
LayerCount: 2
Fore
SplineSet
457.5 171 m 1
 408.5 171 l 1
 408.5 255.5 l 1
 322.5 340.5 l 1
 260.5 277.5 l 1
 260.5 171 l 1
 210 171 l 1
 210 513 l 1
 260.5 513 l 1
 260.5 348 l 1
 262 348 l 1
 410.5 513 l 1
 476 513 l 1
 354 378.5 l 1
 457.5 277 l 1
 457.5 171 l 1
EndSplineSet
Substitution2: "'ss01' Style Set 1 in Latin lookup 5 subtable" K.alt1
Substitution2: "'salt' Stylistic Alternatives in Latin lookup 4 subtable" K.alt1
Substitution2: "'c2sc' Capitals to Small Capitals in Latin lookup 2 subtable" K.sc
AlternateSubs2: "'aalt' Access All Alternates in Latin lookup 1 subtable" K.sc K.alt1
EndChar

StartChar: L
Encoding: 76 76 14
Width: 494
VWidth: 671
Flags: HMW
HStem: 171 47<267.25 460.25 267.25 460.25> 503 10G<216.75 267.25 267.25 267.25>
VStem: 216.75 50.5<218 513 218 513 218 513>
LayerCount: 2
Fore
SplineSet
460.25 171 m 1
 216.75 171 l 1
 216.75 513 l 1
 267.25 513 l 1
 267.25 218 l 1
 460.25 218 l 1
 460.25 171 l 1
EndSplineSet
Substitution2: "'c2sc' Capitals to Small Capitals in Latin lookup 2 subtable" L.sc
Substitution2: "'aalt' Access All Alternates in Latin lookup 0 subtable" L.sc
EndChar

StartChar: M
Encoding: 77 77 15
Width: 487
VWidth: 671
Flags: HMW
HStem: 171 10.5G<186 236.5 186 186 413.5 464 413.5 413.5> 503 10G<186 239 239 239 410.5 464 464 464>
VStem: 186 50.5<171 423.5 171 513> 413.5 50.5<171 423.5 423.5 423.5>
LayerCount: 2
Fore
SplineSet
464 171 m 1
 413.5 171 l 1
 413.5 423.5 l 1
 411.5 423.5 l 1
 341 291 l 1
 309 291 l 1
 238 423.5 l 1
 236.5 423.5 l 1
 236.5 171 l 1
 186 171 l 1
 186 513 l 1
 239 513 l 1
 325 356.5 l 1
 410.5 513 l 1
 464 513 l 1
 464 171 l 1
EndSplineSet
Substitution2: "'c2sc' Capitals to Small Capitals in Latin lookup 2 subtable" M.sc
Substitution2: "'aalt' Access All Alternates in Latin lookup 0 subtable" M.sc
EndChar

StartChar: N
Encoding: 78 78 16
Width: 487
VWidth: 671
Flags: HMW
HStem: 171 10.5G<196.75 247.25 196.75 196.75 403.25 452.25 403.25 403.25> 503 10G<196.75 245.25 245.25 245.25 401.75 452.25 452.25 452.25>
VStem: 196.75 50.5<171 416 171 513> 401.75 50.5<264.5 513>
LayerCount: 2
Fore
SplineSet
452.25 171 m 1
 403.25 171 l 1
 249.75 416 l 1
 247.25 416 l 1
 247.25 171 l 1
 196.75 171 l 1
 196.75 513 l 1
 245.25 513 l 1
 399.25 264.5 l 1
 401.75 264.5 l 1
 401.75 513 l 1
 452.25 513 l 1
 452.25 171 l 1
EndSplineSet
Substitution2: "'c2sc' Capitals to Small Capitals in Latin lookup 2 subtable" N.sc
Substitution2: "'aalt' Access All Alternates in Latin lookup 0 subtable" N.sc
EndChar

StartChar: O
Encoding: 79 79 17
Width: 487
VWidth: 671
Flags: HMW
HStem: 171 47<250.25 364.75 284.25 364.75 364.75 371.25> 466.5 46.5<277.75 284.25 284.25 364.75>
VStem: 195.75 50.5<244 253.5 253.5 431> 402.75 50.5<253.5 431 431 440>
LayerCount: 2
Fore
SplineSet
371.25 171 m 2
 277.75 171 l 2
 222.75 171 195.75 192.5 195.75 244 c 2
 195.75 440 l 2
 195.75 491.5 222.75 513 277.75 513 c 2
 371.25 513 l 2
 426.25 513 453.25 491.5 453.25 440 c 2
 453.25 244 l 2
 453.25 192.5 426.25 171 371.25 171 c 2
284.25 218 m 2
 364.75 218 l 2
 394.75 218 402.75 228.5 402.75 253.5 c 2
 402.75 431 l 2
 402.75 456 394.75 466.5 364.75 466.5 c 2
 284.25 466.5 l 2
 254.25 466.5 246.25 456 246.25 431 c 2
 246.25 253.5 l 2
 246.25 228.5 254.25 218 284.25 218 c 2
EndSplineSet
Substitution2: "'c2sc' Capitals to Small Capitals in Latin lookup 2 subtable" O.sc
Substitution2: "'aalt' Access All Alternates in Latin lookup 0 subtable" O.sc
EndChar

StartChar: P
Encoding: 80 80 18
Width: 498
VWidth: 671
Flags: HMW
HStem: 171 10.5G<226.5 277 226.5 226.5> 313 45.5<277 376.5 376.5 383.5 277 376.5> 466.5 46.5<277 376.5 277 277>
VStem: 226.5 50.5<171 313 171 358.5 358.5 466.5> 415 50.5<396.5 431 431 440>
LayerCount: 2
Fore
SplineSet
465.5 440 m 2
 465.5 386 l 2
 465.5 335 438.5 313 383.5 313 c 2
 277 313 l 1
 277 171 l 1
 226.5 171 l 1
 226.5 513 l 1
 383.5 513 l 2
 438.5 513 465.5 491 465.5 440 c 2
415 396.5 m 2
 415 431 l 2
 415 456 406.5 466.5 376.5 466.5 c 2
 277 466.5 l 1
 277 358.5 l 1
 376.5 358.5 l 2
 406.5 358.5 415 371.5 415 396.5 c 2
EndSplineSet
Substitution2: "'c2sc' Capitals to Small Capitals in Latin lookup 2 subtable" P.sc
Substitution2: "'aalt' Access All Alternates in Latin lookup 0 subtable" P.sc
EndChar

StartChar: Q
Encoding: 81 81 19
Width: 502
VWidth: 641
Flags: HMW
HStem: 83.25 10.5G<436.75 436.75 436.75 496.25> 141.75 47<267.25 376.75 301.75 376.75 376.75 379.75> 437.25 46.5<294.75 301.75 301.75 376.75>
VStem: 212.75 50.5<214.75 224.25 224.25 401.75> 415.25 50.5<224.25 401.75 401.75 410.75>
LayerCount: 2
Fore
SplineSet
436.75 83.25 m 1
 379.75 141.75 l 1
 294.75 141.75 l 2
 239.75 141.75 212.75 163.25 212.75 214.75 c 2
 212.75 410.75 l 2
 212.75 462.25 239.75 483.75 294.75 483.75 c 2
 383.75 483.75 l 2
 438.75 483.75 465.75 462.25 465.75 410.75 c 2
 465.75 214.75 l 2
 465.75 180.75 454.75 160.75 427.25 152.25 c 1
 496.25 83.25 l 1
 436.75 83.25 l 1
301.75 188.75 m 2
 376.75 188.75 l 2
 406.75 188.75 415.25 199.25 415.25 224.25 c 2
 415.25 401.75 l 2
 415.25 426.75 406.75 437.25 376.75 437.25 c 2
 301.75 437.25 l 2
 271.75 437.25 263.25 426.75 263.25 401.75 c 2
 263.25 224.25 l 2
 263.25 199.25 271.75 188.75 301.75 188.75 c 2
EndSplineSet
Substitution2: "'c2sc' Capitals to Small Capitals in Latin lookup 2 subtable" Q.sc
Substitution2: "'aalt' Access All Alternates in Latin lookup 0 subtable" Q.sc
EndChar

StartChar: R
Encoding: 82 82 20
Width: 490
VWidth: 671
Flags: HMW
HStem: 171 10.5G<211.25 261.75 211.25 211.25 401.25 451.75 401.25 401.25> 313 45.5<261.75 346.75 261.75 363.25> 466.5 46.5<261.75 363.25 261.75 261.75>
VStem: 211.25 50.5<171 313 358.5 466.5> 401.25 50.5<171 237 237 237 394 431 431 440>
LayerCount: 2
Fore
SplineSet
451.75 171 m 1
 401.25 171 l 1
 401.25 237 l 1
 346.75 313 l 1
 261.75 313 l 1
 261.75 171 l 1
 211.25 171 l 1
 211.25 513 l 1
 369.75 513 l 2
 424.75 513 451.75 491 451.75 440 c 2
 451.75 390 l 2
 451.75 353 434.25 330 397.75 324.5 c 1
 451.75 249.5 l 1
 451.75 171 l 1
261.75 358.5 m 1
 363.25 358.5 l 2
 393.25 358.5 401.25 369 401.25 394 c 2
 401.25 431 l 2
 401.25 456 393.25 466.5 363.25 466.5 c 2
 261.75 466.5 l 1
 261.75 358.5 l 1
EndSplineSet
Substitution2: "'ss01' Style Set 1 in Latin lookup 5 subtable" R.alt1
Substitution2: "'salt' Stylistic Alternatives in Latin lookup 4 subtable" R.alt1
Substitution2: "'c2sc' Capitals to Small Capitals in Latin lookup 2 subtable" R.sc
AlternateSubs2: "'aalt' Access All Alternates in Latin lookup 1 subtable" R.sc R.alt1
EndChar

StartChar: S
Encoding: 83 83 21
Width: 487
VWidth: 671
Flags: HMW
HStem: 171 47<257.75 357.25 291.75 357.25 357.25 361.25> 322 45.5<255.25 366.25 291.75 357.25> 466.5 46.5<287.75 291.75 291.75 357.25>
VStem: 203.25 50.5<244 253 253 253 396.5 403 403 431> 395.25 50.5<253.5 286.5 286.5 293.5 219.5 299 432 440>
LayerCount: 2
Fore
SplineSet
253.75 266.5 m 1
 253.75 253.5 l 2
 253.75 228.5 261.75 218 291.75 218 c 2
 357.25 218 l 2
 387.25 218 395.25 228.5 395.25 253.5 c 2
 395.25 286.5 l 2
 395.25 311.5 387.25 322 357.25 322 c 2
 282.75 322 l 2
 227.75 322 203.25 345.5 203.25 396.5 c 2
 203.25 438.5 l 2
 203.25 490 232.75 513 287.75 513 c 2
 363.75 513 l 2
 418.75 513 445.75 491 445.75 440 c 2
 445.75 432 l 1
 395.25 418.5 l 1
 395.25 431 l 2
 395.25 456 387.25 466.5 357.25 466.5 c 2
 291.75 466.5 l 2
 261.75 466.5 253.75 456 253.75 431 c 2
 253.75 403 l 2
 253.75 378 261.75 367.5 291.75 367.5 c 2
 366.25 367.5 l 2
 421.25 367.5 445.75 345 445.75 293.5 c 2
 445.75 245 l 2
 445.75 194 416.25 171 361.25 171 c 2
 285.25 171 l 2
 230.25 171 203.25 192.5 203.25 244 c 2
 203.25 253 l 1
 253.75 266.5 l 1
EndSplineSet
Substitution2: "'c2sc' Capitals to Small Capitals in Latin lookup 2 subtable" S.sc
Substitution2: "'aalt' Access All Alternates in Latin lookup 0 subtable" S.sc
EndChar

StartChar: T
Encoding: 84 84 22
Width: 487
VWidth: 671
Flags: HMW
HStem: 171 10.5G<299.5 350 299.5 299.5> 466.5 46.5<185.5 299.5 185.5 464.5 350 464.5 350 350>
VStem: 299.5 50.5<171 466.5 171 466.5>
LayerCount: 2
Fore
SplineSet
464.5 466.5 m 1
 350 466.5 l 1
 350 171 l 1
 299.5 171 l 1
 299.5 466.5 l 1
 185.5 466.5 l 1
 185.5 513 l 1
 464.5 513 l 1
 464.5 466.5 l 1
EndSplineSet
Substitution2: "'c2sc' Capitals to Small Capitals in Latin lookup 2 subtable" T.sc
Substitution2: "'aalt' Access All Alternates in Latin lookup 0 subtable" T.sc
EndChar

StartChar: U
Encoding: 85 85 23
Width: 487
VWidth: 671
Flags: HMW
HStem: 171 47<255.25 359.75 290.25 359.75 359.75 366.25> 503 10G<200.75 251.25 251.25 251.25 397.75 448.25 448.25 448.25>
VStem: 200.75 50.5<244 253.5 253.5 513> 397.75 50.5<253.5 513>
LayerCount: 2
Fore
SplineSet
448.25 513 m 1
 448.25 244 l 2
 448.25 192.5 421.25 171 366.25 171 c 2
 282.75 171 l 2
 227.75 171 200.75 192.5 200.75 244 c 2
 200.75 513 l 1
 251.25 513 l 1
 251.25 253.5 l 2
 251.25 228.5 259.25 218 290.25 218 c 2
 359.75 218 l 2
 389.75 218 397.75 228.5 397.75 253.5 c 2
 397.75 513 l 1
 448.25 513 l 1
EndSplineSet
Substitution2: "'c2sc' Capitals to Small Capitals in Latin lookup 2 subtable" U.sc
Substitution2: "'aalt' Access All Alternates in Latin lookup 0 subtable" U.sc
EndChar

StartChar: V
Encoding: 86 86 24
Width: 487
VWidth: 671
Flags: HMW
HStem: 171 10.5G<297.5 352 297.5 297.5> 503 10G<188.5 239 239 239 411 461.5 461.5 461.5>
VStem: 188.5 50.5<431 513 431 513 431 513> 411 50.5<431 513>
LayerCount: 2
Fore
SplineSet
461.5 424 m 1
 352 171 l 1
 297.5 171 l 1
 188.5 424 l 1
 188.5 513 l 1
 239 513 l 1
 239 431 l 1
 324 229 l 1
 325.5 229 l 1
 411 431 l 1
 411 513 l 1
 461.5 513 l 1
 461.5 424 l 1
EndSplineSet
Substitution2: "'ss01' Style Set 1 in Latin lookup 5 subtable" V.alt1
Substitution2: "'salt' Stylistic Alternatives in Latin lookup 4 subtable" V.alt1
Substitution2: "'c2sc' Capitals to Small Capitals in Latin lookup 2 subtable" V.sc
AlternateSubs2: "'aalt' Access All Alternates in Latin lookup 1 subtable" V.sc V.alt1
EndChar

StartChar: W
Encoding: 87 87 25
Width: 487
VWidth: 671
Flags: HMW
HStem: 171 10.5G<230.25 276.25 230.25 230.25 372.75 418.75 372.75 372.75> 503 10G<180.25 227.25 227.25 227.25 422.25 468.75 468.75 468.75>
VStem: 180.25 47<439.5 513 439.5 513 439.5 513> 422.25 46.5<439.5 513 429 513>
LayerCount: 2
Fore
SplineSet
308.25 393.5 m 1
 341.25 393.5 l 1
 385.75 256.5 l 1
 388.75 256.5 l 1
 422.25 439.5 l 1
 422.25 513 l 1
 468.75 513 l 1
 468.75 429 l 1
 418.75 171 l 1
 372.75 171 l 1
 325.75 308 l 1
 323.25 308 l 1
 276.25 171 l 1
 230.25 171 l 1
 180.25 429 l 1
 180.25 513 l 1
 227.25 513 l 1
 227.25 439.5 l 1
 260.75 256.5 l 1
 263.25 256.5 l 1
 308.25 393.5 l 1
EndSplineSet
Substitution2: "'ss01' Style Set 1 in Latin lookup 5 subtable" W.alt1
Substitution2: "'salt' Stylistic Alternatives in Latin lookup 4 subtable" W.alt1
Substitution2: "'c2sc' Capitals to Small Capitals in Latin lookup 2 subtable" W.sc
AlternateSubs2: "'aalt' Access All Alternates in Latin lookup 1 subtable" W.sc W.alt1
EndChar

StartChar: X
Encoding: 88 88 26
Width: 487
VWidth: 671
Flags: HMW
HStem: 171 10.5G<195.25 245.75 195.25 195.25 403.25 453.75 403.25 403.25> 503 10G<205.75 256.25 256.25 256.25 392.75 443.25 443.25 443.25>
VStem: 195.25 50.5<171 239.5 171 256.5 171 256.5> 205.75 50.5<444 513 444 513 444 513> 392.75 50.5<444 513 427.5 513> 403.25 50.5<171 239.5 239.5 239.5>
LayerCount: 2
Fore
SplineSet
324.75 377.5 m 1xe8
 392.75 444 l 1
 392.75 513 l 1
 443.25 513 l 1
 443.25 427.5 l 1
 358.25 348 l 1
 453.75 256.5 l 1xd8
 453.75 171 l 1
 403.25 171 l 1
 403.25 239.5 l 1
 324.75 316 l 1
 245.75 239.5 l 1
 245.75 171 l 1
 195.25 171 l 1
 195.25 256.5 l 1
 290.75 348 l 1
 205.75 427.5 l 1xe4
 205.75 513 l 1
 256.25 513 l 1
 256.25 444 l 1
 324.75 377.5 l 1xe8
EndSplineSet
Substitution2: "'ss01' Style Set 1 in Latin lookup 5 subtable" X.alt1
Substitution2: "'salt' Stylistic Alternatives in Latin lookup 4 subtable" X.alt1
Substitution2: "'c2sc' Capitals to Small Capitals in Latin lookup 2 subtable" X.sc
AlternateSubs2: "'aalt' Access All Alternates in Latin lookup 1 subtable" X.sc X.alt1
EndChar

StartChar: Y
Encoding: 89 89 27
Width: 487
VWidth: 671
Flags: HMW
HStem: 171 10.5G<300 350.5 300 300> 503 10G<193.5 244 244 244 406 456.5 456.5 456.5>
VStem: 193.5 50.5<438.5 513 438.5 513 438.5 513> 300 50.5<171 320 171 320> 406 50.5<438.5 513>
LayerCount: 2
Fore
SplineSet
456.5 419.5 m 1
 350.5 320 l 1
 350.5 171 l 1
 300 171 l 1
 300 320 l 1
 193.5 419.5 l 1
 193.5 513 l 1
 244 513 l 1
 244 438.5 l 1
 325 360.5 l 1
 406 438.5 l 1
 406 513 l 1
 456.5 513 l 1
 456.5 419.5 l 1
EndSplineSet
Substitution2: "'ss01' Style Set 1 in Latin lookup 5 subtable" Y.alt1
Substitution2: "'salt' Stylistic Alternatives in Latin lookup 4 subtable" Y.alt1
Substitution2: "'c2sc' Capitals to Small Capitals in Latin lookup 2 subtable" Y.sc
AlternateSubs2: "'aalt' Access All Alternates in Latin lookup 1 subtable" Y.sc Y.alt1
EndChar

StartChar: Z
Encoding: 90 90 28
Width: 487
VWidth: 671
Flags: HMW
HStem: 171 47<261.5 450 261.5 450> 466.5 46.5<206.5 381 206.5 444>
LayerCount: 2
Fore
SplineSet
450 171 m 1
 198 171 l 1
 198 215 l 1
 381 466.5 l 1
 206.5 466.5 l 1
 206.5 513 l 1
 444 513 l 1
 444 468.5 l 1
 261.5 218 l 1
 450 218 l 1
 450 171 l 1
EndSplineSet
Substitution2: "'c2sc' Capitals to Small Capitals in Latin lookup 2 subtable" Z.sc
Substitution2: "'aalt' Access All Alternates in Latin lookup 0 subtable" Z.sc
EndChar

StartChar: A.alt1
Encoding: 65537 -1 29
Width: 487
VWidth: 671
Flags: HMW
HStem: 171 10.5G<174 230.5 174 174 419.5 476 419.5 419.5> 246 45<268.5 381.5 268.5 393 257 381.5> 503 10G<298.5 351 351 351>
LayerCount: 2
Fore
SplineSet
351 513 m 1
 476 171 l 1
 419.5 171 l 1
 393 246 l 1
 257 246 l 1
 230.5 171 l 1
 174 171 l 1
 298.5 513 l 1
 351 513 l 1
324 447.5 m 1
 268.5 291 l 1
 381.5 291 l 1
 326 447.5 l 1
 324 447.5 l 1
EndSplineSet
EndChar

StartChar: K.alt1
Encoding: 65538 -1 30
Width: 501
VWidth: 671
Flags: HMW
HStem: 171 10.5G<215.25 265.75 215.25 215.25 431.75 491.75 431.75 431.75> 503 10G<215.25 265.75 265.75 265.75 415.75 479.25 479.25 479.25>
VStem: 215.25 50.5<171 282 351 513>
LayerCount: 2
Fore
SplineSet
491.75 171 m 1
 431.75 171 l 1
 315.25 331.5 l 1
 265.75 282 l 1
 265.75 171 l 1
 215.25 171 l 1
 215.25 513 l 1
 265.75 513 l 1
 265.75 351 l 1
 267.25 351 l 1
 415.75 513 l 1
 479.25 513 l 1
 346.25 367.5 l 1
 491.75 171 l 1
EndSplineSet
EndChar

StartChar: R.alt1
Encoding: 65539 -1 31
Width: 500
VWidth: 671
Flags: HMW
HStem: 171 10.5G<220 270.5 220 220 425.5 482 425.5 425.5> 313 45.5<270.5 356 270.5 370.5> 466.5 46.5<270.5 370.5 270.5 270.5>
VStem: 220 50.5<171 313 358.5 466.5> 408.5 50.5<394 431 431 440>
LayerCount: 2
Fore
SplineSet
482 171 m 1
 425.5 171 l 1
 356 313 l 1
 270.5 313 l 1
 270.5 171 l 1
 220 171 l 1
 220 513 l 1
 377 513 l 2
 432 513 459 491 459 440 c 2
 459 388.5 l 2
 459 349 445 325.5 405 320 c 1
 482 171 l 1
270.5 358.5 m 1
 370.5 358.5 l 2
 400.5 358.5 408.5 369 408.5 394 c 2
 408.5 431 l 2
 408.5 456 400.5 466.5 370.5 466.5 c 2
 270.5 466.5 l 1
 270.5 358.5 l 1
EndSplineSet
EndChar

StartChar: V.alt1
Encoding: 65540 -1 32
Width: 487
VWidth: 671
Flags: HMW
HStem: 171 10.5G<298.25 350.75 298.25 298.25> 503 10G<174.75 229.25 229.25 229.25 420.25 474.25 474.25 474.25>
LayerCount: 2
Fore
SplineSet
474.25 513 m 1
 350.75 171 l 1
 298.25 171 l 1
 174.75 513 l 1
 229.25 513 l 1
 323.75 247 l 1
 325.25 247 l 1
 420.25 513 l 1
 474.25 513 l 1
EndSplineSet
EndChar

StartChar: W.alt1
Encoding: 65541 -1 33
Width: 487
VWidth: 671
Flags: HMW
HStem: 171 10.5G<226.25 270.25 226.25 226.25 379.25 423.25 379.25 379.25> 503 10G<170.25 218.75 218.75 218.75 430.75 478.75 478.75 478.75>
LayerCount: 2
Fore
SplineSet
309.25 406 m 1
 339.75 406 l 1
 389.25 264 l 1
 391.25 264 l 1
 430.75 513 l 1
 478.75 513 l 1
 423.25 171 l 1
 379.25 171 l 1
 325.75 321.5 l 1
 323.25 321.5 l 1
 270.25 171 l 1
 226.25 171 l 1
 170.25 513 l 1
 218.75 513 l 1
 258.25 264 l 1
 259.75 264 l 1
 309.25 406 l 1
EndSplineSet
EndChar

StartChar: X.alt1
Encoding: 65542 -1 34
Width: 487
VWidth: 671
Flags: HMW
HStem: 171 10.5G<179.25 238.75 179.25 179.25 410.75 469.75 410.75 410.75> 503 10G<189.25 246.75 246.75 246.75 402.25 459.75 459.75 459.75>
LayerCount: 2
Fore
SplineSet
324.75 387 m 1
 402.25 513 l 1
 459.75 513 l 1
 357.75 350.5 l 1
 469.75 171 l 1
 410.75 171 l 1
 324.75 309.5 l 1
 238.75 171 l 1
 179.25 171 l 1
 291.75 350.5 l 1
 189.25 513 l 1
 246.75 513 l 1
 324.75 387 l 1
EndSplineSet
EndChar

StartChar: Y.alt1
Encoding: 65543 -1 35
Width: 487
VWidth: 671
Flags: HMW
HStem: 171 10.5G<299.25 349.75 299.25 299.25> 503 10G<177.25 235.75 235.75 235.75 413.25 471.75 471.75 471.75>
VStem: 299.25 50.5<171 322.5 171 322.5>
LayerCount: 2
Fore
SplineSet
471.75 513 m 1
 349.75 322.5 l 1
 349.75 171 l 1
 299.25 171 l 1
 299.25 322.5 l 1
 177.25 513 l 1
 235.75 513 l 1
 324.75 371 l 1
 413.25 513 l 1
 471.75 513 l 1
EndSplineSet
EndChar

StartChar: zero
Encoding: 48 48 36
Width: 487
VWidth: 671
Flags: HMW
HStem: 171 47<256.25 358.25 290.75 358.25 358.25 365.25> 466.5 46.5<283.75 290.75 290.75 358.25>
VStem: 201.75 50.5<244 253.5 253.5 431> 396.75 50.5<253.5 431 431 440>
LayerCount: 2
Fore
SplineSet
365.25 171 m 2
 283.75 171 l 2
 228.75 171 201.75 192.5 201.75 244 c 2
 201.75 440 l 2
 201.75 491.5 228.75 513 283.75 513 c 2
 365.25 513 l 2
 420.25 513 447.25 491.5 447.25 440 c 2
 447.25 244 l 2
 447.25 192.5 420.25 171 365.25 171 c 2
290.75 218 m 2
 358.25 218 l 2
 388.25 218 396.75 228.5 396.75 253.5 c 2
 396.75 431 l 2
 396.75 456 388.25 466.5 358.25 466.5 c 2
 290.75 466.5 l 2
 260.75 466.5 252.25 456 252.25 431 c 2
 252.25 253.5 l 2
 252.25 228.5 260.75 218 290.75 218 c 2
EndSplineSet
Substitution2: "'smcp' Lowercase to Small Capitals in Latin lookup 3 subtable" zero.sc
Substitution2: "'c2sc' Capitals to Small Capitals in Latin lookup 2 subtable" zero.sc
Substitution2: "'aalt' Access All Alternates in Latin lookup 0 subtable" zero.sc
EndChar

StartChar: one
Encoding: 49 49 37
Width: 504
VWidth: 671
Flags: HMW
HStem: 171 47<239.75 335.75 386.25 479.25 239.75 335.75> 466.5 46.5<251.75 335.75 251.75 386.25>
VStem: 335.75 50.5<218 466.5 466.5 466.5>
LayerCount: 2
Fore
SplineSet
386.25 513 m 1
 386.25 218 l 1
 479.25 218 l 1
 479.25 171 l 1
 239.75 171 l 1
 239.75 218 l 1
 335.75 218 l 1
 335.75 466.5 l 1
 251.75 466.5 l 1
 251.75 513 l 1
 386.25 513 l 1
EndSplineSet
Substitution2: "'smcp' Lowercase to Small Capitals in Latin lookup 3 subtable" one.sc
Substitution2: "'c2sc' Capitals to Small Capitals in Latin lookup 2 subtable" one.sc
Substitution2: "'aalt' Access All Alternates in Latin lookup 0 subtable" one.sc
EndChar

StartChar: two
Encoding: 50 50 38
Width: 490
VWidth: 671
Flags: HMW
HStem: 171 47<277.5 461 277.5 461> 466.5 46.5<286 292.5 292.5 360.5>
VStem: 204 50.5<424.5 431 411 440 411 465.5> 398.5 50.5<415.5 431 431 440 398 443.5>
LayerCount: 2
Fore
SplineSet
461 171 m 1
 199 171 l 1
 199 211.5 l 1
 381.5 376.5 l 2
 396.5 390.5 398.5 397.5 398.5 415.5 c 2
 398.5 431 l 2
 398.5 456 390.5 466.5 360.5 466.5 c 2
 292.5 466.5 l 2
 262.5 466.5 254.5 456 254.5 431 c 2
 254.5 411 l 1
 204 424.5 l 1
 204 440 l 2
 204 491 231 513 286 513 c 2
 367 513 l 2
 422 513 449 491 449 440 c 2
 449 412 l 2
 449 384 440.5 366 418.5 347 c 2
 277.5 219 l 1
 277.5 218 l 1
 461 218 l 1
 461 171 l 1
EndSplineSet
Substitution2: "'smcp' Lowercase to Small Capitals in Latin lookup 3 subtable" two.sc
Substitution2: "'c2sc' Capitals to Small Capitals in Latin lookup 2 subtable" two.sc
Substitution2: "'aalt' Access All Alternates in Latin lookup 0 subtable" two.sc
EndChar

StartChar: three
Encoding: 51 51 39
Width: 487
VWidth: 671
Flags: HMW
HStem: 171 47<256.25 358.25 290.75 358.25 358.25 365.25> 322 45<290.25 358.25 290.25 358.25> 466.5 46.5<283.75 290.75 290.75 358.25>
VStem: 201.75 50.5<244 253.5 253.5 255 255 255 429.5 431> 396.75 50.5<253.5 286.5 218.25 299 403 431 431 440>
LayerCount: 2
Fore
SplineSet
201.75 255 m 1
 252.25 268.5 l 1
 252.25 253.5 l 2
 252.25 228.5 260.75 218 290.75 218 c 2
 358.25 218 l 2
 388.25 218 396.75 228.5 396.75 253.5 c 2
 396.75 286.5 l 2
 396.75 311.5 388.25 322 358.25 322 c 2
 290.25 322 l 1
 290.25 367 l 1
 358.25 367 l 2
 388.25 367 396.75 378 396.75 403 c 2
 396.75 431 l 2
 396.75 456 388.25 466.5 358.25 466.5 c 2
 290.75 466.5 l 2
 260.75 466.5 252.25 456 252.25 431 c 2
 252.25 416 l 1
 201.75 429.5 l 1
 201.75 440 l 2
 201.75 491 228.75 513 283.75 513 c 2
 365.25 513 l 2
 420.25 513 447.25 491 447.25 440 c 2
 447.25 402.5 l 2
 447.25 372.5 435.75 351.5 408.75 344.5 c 1
 435.75 337 447.25 316 447.25 286.5 c 2
 447.25 244 l 2
 447.25 192.5 420.25 171 365.25 171 c 2
 283.75 171 l 2
 228.75 171 201.75 192.5 201.75 244 c 2
 201.75 255 l 1
EndSplineSet
Substitution2: "'smcp' Lowercase to Small Capitals in Latin lookup 3 subtable" three.sc
Substitution2: "'c2sc' Capitals to Small Capitals in Latin lookup 2 subtable" three.sc
Substitution2: "'aalt' Access All Alternates in Latin lookup 0 subtable" three.sc
EndChar

StartChar: four
Encoding: 52 52 40
Width: 492
VWidth: 671
Flags: HMW
HStem: 171 10.5G<370.25 420.75 370.25 370.25> 255.5 46.5<250.25 370.25 250.25 370.25 420.75 479.25> 503 10G<359.75 420.75 420.75 420.75>
VStem: 370.25 50.5<171 255.5 171 255.5 302 449.5 449.5 449.5>
LayerCount: 2
Fore
SplineSet
479.25 255.5 m 1
 420.75 255.5 l 1
 420.75 171 l 1
 370.25 171 l 1
 370.25 255.5 l 1
 189.75 255.5 l 1
 189.75 300.5 l 1
 359.75 513 l 1
 420.75 513 l 1
 420.75 302 l 1
 479.25 302 l 1
 479.25 255.5 l 1
370.25 302 m 1
 370.25 449.5 l 1
 250.25 302 l 1
 370.25 302 l 1
EndSplineSet
Substitution2: "'smcp' Lowercase to Small Capitals in Latin lookup 3 subtable" four.sc
Substitution2: "'c2sc' Capitals to Small Capitals in Latin lookup 2 subtable" four.sc
Substitution2: "'aalt' Access All Alternates in Latin lookup 0 subtable" four.sc
EndChar

StartChar: five
Encoding: 53 53 41
Width: 491
VWidth: 671
Flags: HMW
HStem: 171 47<267.5 364.5 301.5 364.5 364.5 371> 339.5 45.5<288.25 372.5 317.5 364.5> 466.5 46.5<263.5 449.5 263.5 263.5>
VStem: 213 50.5<244 253.5 253.5 255 255 255 310 319.75 369.5 466.5> 402.5 50.5<253.5 304 304 311.5>
LayerCount: 2
Fore
SplineSet
453 311.5 m 2
 453 244 l 2
 453 192.5 426 171 371 171 c 2
 295 171 l 2
 240 171 213 192.5 213 244 c 2
 213 255 l 1
 263.5 263.5 l 1
 263.5 253.5 l 2
 263.5 228.5 271.5 218 301.5 218 c 2
 364.5 218 l 2
 394.5 218 402.5 228.5 402.5 253.5 c 2
 402.5 304 l 2
 402.5 329 394.5 339.5 364.5 339.5 c 2
 303.5 339.5 l 2
 273 339.5 263.5 329.5 263.5 310 c 1
 213 310 l 1
 213 513 l 1
 449.5 513 l 1
 449.5 466.5 l 1
 263.5 466.5 l 1
 263.5 369.5 l 1
 273 379 291 385 317.5 385 c 2
 372.5 385 l 2
 422.5 385 453 364 453 311.5 c 2
EndSplineSet
Substitution2: "'smcp' Lowercase to Small Capitals in Latin lookup 3 subtable" five.sc
Substitution2: "'c2sc' Capitals to Small Capitals in Latin lookup 2 subtable" five.sc
Substitution2: "'aalt' Access All Alternates in Latin lookup 0 subtable" five.sc
EndChar

StartChar: six
Encoding: 54 54 42
Width: 492
VWidth: 671
Flags: HMW
HStem: 171 47<266.25 368.25 300.75 368.25 368.25 375.25> 332 45.5<287.5 376.25 316.25 368.25> 466.5 46.5<292.75 300.75 300.75 368.25>
VStem: 211.75 50.5<244 253.5 253.5 301 362 431> 406.75 50.5<253.5 296.5 296.5 302.5 432 440>
LayerCount: 2
Fore
SplineSet
457.25 302.5 m 2
 457.25 244 l 2
 457.25 192.5 430.25 171 375.25 171 c 2
 293.75 171 l 2
 238.75 171 211.75 192.5 211.75 244 c 2
 211.75 440 l 2
 211.75 491 237.75 513 292.75 513 c 2
 375.25 513 l 2
 430.25 513 457.25 491 457.25 440 c 2
 457.25 432 l 1
 406.75 420 l 1
 406.75 431 l 2
 406.75 456 398.25 466.5 368.25 466.5 c 2
 300.75 466.5 l 2
 270.75 466.5 262.25 456 262.25 431 c 2
 262.25 362 l 1
 267.75 369.5 284.75 377.5 316.25 377.5 c 2
 376.25 377.5 l 2
 434.25 377.5 457.25 353.5 457.25 302.5 c 2
406.75 253.5 m 2
 406.75 296.5 l 2
 406.75 321.5 398.25 332 368.25 332 c 2
 302.75 332 l 2
 272.25 332 262.25 322.5 262.25 301 c 2
 262.25 253.5 l 2
 262.25 228.5 270.75 218 300.75 218 c 2
 368.25 218 l 2
 398.25 218 406.75 228.5 406.75 253.5 c 2
EndSplineSet
Substitution2: "'smcp' Lowercase to Small Capitals in Latin lookup 3 subtable" six.sc
Substitution2: "'c2sc' Capitals to Small Capitals in Latin lookup 2 subtable" six.sc
Substitution2: "'aalt' Access All Alternates in Latin lookup 0 subtable" six.sc
EndChar

StartChar: seven
Encoding: 55 55 43
Width: 487
VWidth: 671
Flags: HMW
HStem: 171 10.5G<258.25 314.75 258.25 258.25> 466.5 46.5<203.25 391.75 203.25 445.75>
LayerCount: 2
Fore
SplineSet
445.75 468.5 m 1
 314.75 171 l 1
 258.25 171 l 1
 391.75 466.5 l 1
 203.25 466.5 l 1
 203.25 513 l 1
 445.75 513 l 1
 445.75 468.5 l 1
EndSplineSet
Substitution2: "'smcp' Lowercase to Small Capitals in Latin lookup 3 subtable" seven.sc
Substitution2: "'c2sc' Capitals to Small Capitals in Latin lookup 2 subtable" seven.sc
Substitution2: "'aalt' Access All Alternates in Latin lookup 0 subtable" seven.sc
EndChar

StartChar: eight
Encoding: 56 56 44
Width: 487
VWidth: 671
Flags: HMW
HStem: 171 47<257.75 357.25 291.75 357.25 357.25 363.75> 321.5 45.5<276.75 357.75 291.25 357.75> 466.5 46.5<285.25 291.75 291.75 357.25>
VStem: 203.25 50.5<244 253.5 253.5 286 241 286.5 241 301.25 402.5 431> 395.25 50.5<253.5 286 286 286.5 218.25 298.5 402.5 431 431 440>
LayerCount: 2
Fore
SplineSet
445.75 286.5 m 2
 445.75 244 l 2
 445.75 192.5 418.75 171 363.75 171 c 2
 285.25 171 l 2
 230.25 171 203.25 192.5 203.25 244 c 2
 203.25 286.5 l 2
 203.25 316 214.25 337 239.25 344.5 c 1
 214.25 351.5 203.25 372.5 203.25 402.5 c 2
 203.25 440 l 2
 203.25 491 230.25 513 285.25 513 c 2
 363.75 513 l 2
 418.75 513 445.75 491 445.75 440 c 2
 445.75 402.5 l 2
 445.75 372.5 434.75 351.5 409.75 344.5 c 1
 434.75 337 445.75 316 445.75 286.5 c 2
395.25 402.5 m 2
 395.25 431 l 2
 395.25 456 387.25 466.5 357.25 466.5 c 2
 291.75 466.5 l 2
 261.75 466.5 253.75 456 253.75 431 c 2
 253.75 402.5 l 2
 253.75 377.5 262.25 367 291.25 367 c 2
 357.75 367 l 2
 386.75 367 395.25 377.5 395.25 402.5 c 2
395.25 253.5 m 2
 395.25 286 l 2
 395.25 311 386.75 321.5 357.75 321.5 c 2
 291.25 321.5 l 2
 262.25 321.5 253.75 311 253.75 286 c 2
 253.75 253.5 l 2
 253.75 228.5 261.75 218 291.75 218 c 2
 357.25 218 l 2
 387.25 218 395.25 228.5 395.25 253.5 c 2
EndSplineSet
Substitution2: "'smcp' Lowercase to Small Capitals in Latin lookup 3 subtable" eight.sc
Substitution2: "'c2sc' Capitals to Small Capitals in Latin lookup 2 subtable" eight.sc
Substitution2: "'aalt' Access All Alternates in Latin lookup 0 subtable" eight.sc
EndChar

StartChar: nine
Encoding: 57 57 45
Width: 482
VWidth: 671
Flags: HMW
HStem: 171 47<246.25 348.25 280.75 348.25 348.25 355.25> 310.5 45.5<241.25 348.25 280.75 331.75> 466.5 46.5<273.75 280.75 280.75 348.25>
VStem: 191.75 50.5<244 250.5 250.5 250.5 383.5 391.5 391.5 431> 386.75 50.5<253.5 324 324 324 386.5 431 431 440>
LayerCount: 2
Fore
SplineSet
191.75 383.5 m 2
 191.75 440 l 2
 191.75 491 218.75 513 273.75 513 c 2
 355.25 513 l 2
 410.25 513 437.25 491 437.25 440 c 2
 437.25 244 l 2
 437.25 193 410.25 171 355.25 171 c 2
 273.75 171 l 2
 218.75 171 191.75 193 191.75 244 c 2
 191.75 250.5 l 1
 242.25 265 l 1
 242.25 253.5 l 2
 242.25 228.5 250.75 218 280.75 218 c 2
 348.25 218 l 2
 378.25 218 386.75 228.5 386.75 253.5 c 2
 386.75 324 l 1
 381.25 316.5 363.25 310.5 331.75 310.5 c 2
 270.25 310.5 l 2
 212.25 310.5 191.75 332.5 191.75 383.5 c 2
242.25 431 m 2
 242.25 391.5 l 2
 242.25 366.5 250.75 356 280.75 356 c 2
 348.25 356 l 2
 378.25 356 386.75 366.5 386.75 386.5 c 2
 386.75 431 l 2
 386.75 456 378.25 466.5 348.25 466.5 c 2
 280.75 466.5 l 2
 250.75 466.5 242.25 456 242.25 431 c 2
EndSplineSet
Substitution2: "'smcp' Lowercase to Small Capitals in Latin lookup 3 subtable" nine.sc
Substitution2: "'c2sc' Capitals to Small Capitals in Latin lookup 2 subtable" nine.sc
Substitution2: "'aalt' Access All Alternates in Latin lookup 0 subtable" nine.sc
EndChar

StartChar: a
Encoding: 97 97 46
Width: 482
VWidth: 632
Flags: HMW
HStem: 132 42<251.75 325.5 288.5 311.5> 254 40<276 288.5 288.5 309 309 325.5> 354.5 41.5<292 296 296 338.5>
VStem: 202 48<201.5 207 207 221 194.75 225 194.75 250> 212 48<315.5 333 315.5 353.25> 378 48<132 153 153 153 205 223 223 235.25 274 316 316 318>
LayerCount: 2
Fore
SplineSet
426 132 m 1xec
 378 132 l 1
 378 153 l 1
 377 153 l 1
 366 141 347 132 311.5 132 c 2
 276 132 l 2
 227.5 132 202 150.5 202 201.5 c 2
 202 225 l 2xf4
 202 275 227.5 294 276 294 c 2
 309 294 l 2
 344.5 294 366 285 377 274 c 1
 378 274 l 1
 378 316 l 2
 378 343 369 354.5 338.5 354.5 c 2
 296 354.5 l 2
 268 354.5 260 344.5 260 322.5 c 2
 260 315.5 l 1
 212 328 l 1
 212 333 l 2
 212 373.5 238 396 292 396 c 2
 343 396 l 2
 398 396 426 369 426 318 c 2
 426 132 l 1xec
325.5 254 m 2
 288.5 254 l 2
 260.5 254 250 245.5 250 221 c 2
 250 207 l 2
 250 182.5 260.5 174 288.5 174 c 2
 325.5 174 l 2
 352.5 174 378 181.5 378 205 c 2
 378 223 l 2
 378 247.5 352 254 325.5 254 c 2
EndSplineSet
Substitution2: "'smcp' Lowercase to Small Capitals in Latin lookup 3 subtable" A.sc
Substitution2: "'aalt' Access All Alternates in Latin lookup 0 subtable" A.sc
EndChar

StartChar: b
Encoding: 98 98 47
Width: 497
VWidth: 671
Flags: HMW
HStem: 171 47<334 345.5 345.5 369 369 384.75 334 388> 388.5 46.5<319 388 345.5 369> 503 10G<228.5 279 279 279>
VStem: 228.5 50.5<171 194.5 245.5 261 261 345.5 411.5 513> 411 50.5<261.5 345 345 359.5>
LayerCount: 2
Fore
SplineSet
369 388.5 m 2
 334 388.5 l 2
 304 388.5 279 376.5 279 345.5 c 2
 279 261 l 2
 279 230 304 218 334 218 c 2
 369 218 l 2
 400.5 218 411 231 411 261.5 c 2
 411 345 l 2
 411 375.5 400.5 388.5 369 388.5 c 2
279 194.5 m 1
 279 171 l 1
 228.5 171 l 1
 228.5 513 l 1
 279 513 l 1
 279 411.5 l 1
 280.5 411.5 l 1
 290 424 310 435 345.5 435 c 2
 388 435 l 2
 437 435 461.5 410.5 461.5 359.5 c 2
 461.5 246.5 l 2
 461.5 195 437.5 171 388 171 c 2
 345.5 171 l 2
 310 171 290 182 280.5 194.5 c 1
 279 194.5 l 1
EndSplineSet
Substitution2: "'smcp' Lowercase to Small Capitals in Latin lookup 3 subtable" B.sc
Substitution2: "'aalt' Access All Alternates in Latin lookup 0 subtable" B.sc
EndChar

StartChar: c
Encoding: 99 99 48
Width: 487
VWidth: 632
Flags: HMW
HStem: 132 47<264 350 298.5 350 350 356.5> 349.5 46.5<291.5 298.5 298.5 350>
VStem: 209.5 50.5<205 214.5 214.5 314> 388 50.5<179.25 229.5 179.25 229.5 310 314 314 323>
LayerCount: 2
Fore
SplineSet
260 314 m 2
 260 214.5 l 2
 260 189.5 268.5 179 298.5 179 c 2
 350 179 l 2
 380 179 388 189.5 388 214.5 c 2
 388 229.5 l 1
 438.5 214.5 l 1
 438.5 205 l 2
 438.5 153.5 411.5 132 356.5 132 c 2
 291.5 132 l 2
 236.5 132 209.5 153.5 209.5 205 c 2
 209.5 323 l 2
 209.5 374 236.5 396 291.5 396 c 2
 356.5 396 l 2
 411.5 396 438.5 374 438.5 323 c 2
 438.5 310 l 1
 388 296.5 l 1
 388 314 l 2
 388 339 380 349.5 350 349.5 c 2
 298.5 349.5 l 2
 268.5 349.5 260 339 260 314 c 2
EndSplineSet
Substitution2: "'smcp' Lowercase to Small Capitals in Latin lookup 3 subtable" C.sc
Substitution2: "'aalt' Access All Alternates in Latin lookup 0 subtable" C.sc
EndChar

StartChar: d
Encoding: 100 100 49
Width: 477
VWidth: 671
Flags: HMW
HStem: 171 47<237 315.25 280.75 303.75> 388.5 46.5<265 280.75 280.75 303.75 303.75 315.25> 503 10G<370.25 420.75 420.75 420.75>
VStem: 188.25 50.5<246.5 261.5 261.5 345> 370.25 50.5<171 194.5 194.5 194.5 261 345.5 345.5 361 411.5 513 171 513>
LayerCount: 2
Fore
SplineSet
315.25 388.5 m 2
 280.75 388.5 l 2
 249.25 388.5 238.75 375.5 238.75 345 c 2
 238.75 261.5 l 2
 238.75 231 249.25 218 280.75 218 c 2
 315.25 218 l 2
 345.75 218 370.25 230 370.25 261 c 2
 370.25 345.5 l 2
 370.25 376.5 345.75 388.5 315.25 388.5 c 2
370.25 171 m 1
 370.25 194.5 l 1
 369.25 194.5 l 1
 359.75 182 339.25 171 303.75 171 c 2
 261.75 171 l 2
 212.25 171 188.25 195 188.25 246.5 c 2
 188.25 359.5 l 2
 188.25 410.5 212.25 435 261.75 435 c 2
 303.75 435 l 2
 339.25 435 359.75 424 369.25 411.5 c 1
 370.25 411.5 l 1
 370.25 513 l 1
 420.75 513 l 1
 420.75 171 l 1
 370.25 171 l 1
EndSplineSet
Substitution2: "'smcp' Lowercase to Small Capitals in Latin lookup 3 subtable" D.sc
Substitution2: "'aalt' Access All Alternates in Latin lookup 0 subtable" D.sc
EndChar

StartChar: e
Encoding: 101 101 50
Width: 487
VWidth: 632
Flags: HMW
HStem: 132 42<267.25 349.25 298.75 349.25 349.25 351.75> 248.5 38.5<260.75 388.25 260.75 436.25 260.75 388.25> 354.5 41.5<294.75 298.75 298.75 350.25>
VStem: 212.75 48<205 210 210 248.5 287 319> 388.25 48<207 211.5 174.25 221 174.25 221 287 318.5 318.5 319.5>
LayerCount: 2
Fore
SplineSet
436.25 319.5 m 2
 436.25 248.5 l 1
 260.75 248.5 l 1
 260.75 210 l 2
 260.75 185 268.75 174 298.75 174 c 2
 349.25 174 l 2
 379.25 174 388.25 183 388.25 207 c 2
 388.25 221 l 1
 436.25 211.5 l 1
 436.25 199.5 l 2
 436.25 149 406.75 132 351.75 132 c 2
 294.75 132 l 2
 239.75 132 212.75 153.5 212.75 205 c 2
 212.75 323 l 2
 212.75 374 239.75 396 294.75 396 c 2
 354.25 396 l 2
 409.25 396 436.25 371 436.25 319.5 c 2
260.75 319 m 2
 260.75 287 l 1
 388.25 287 l 1
 388.25 318.5 l 2
 388.25 342.5 382.75 354.5 350.25 354.5 c 2
 298.75 354.5 l 2
 266.75 354.5 260.75 343 260.75 319 c 2
EndSplineSet
Substitution2: "'smcp' Lowercase to Small Capitals in Latin lookup 3 subtable" E.sc
Substitution2: "'aalt' Access All Alternates in Latin lookup 0 subtable" E.sc
EndChar

StartChar: f
Encoding: 102 102 51
Width: 483
VWidth: 671
Flags: HMW
HStem: 171 10.5G<265.75 316.25 265.75 265.75> 333 45.5<188.25 265.75 188.25 265.75 316.25 423.25> 466.5 46.5<347.75 354.75 354.75 432.75>
VStem: 265.75 50.5<171 333 171 333 378.5 431>
LayerCount: 2
Fore
SplineSet
188.25 333 m 1
 188.25 378.5 l 1
 265.75 378.5 l 1
 265.75 440 l 2
 265.75 491 292.75 513 347.75 513 c 2
 444.75 513 l 1
 432.75 466.5 l 1
 354.75 466.5 l 2
 324.75 466.5 316.25 456 316.25 431 c 2
 316.25 378.5 l 1
 423.25 378.5 l 1
 423.25 333 l 1
 316.25 333 l 1
 316.25 171 l 1
 265.75 171 l 1
 265.75 333 l 1
 188.25 333 l 1
EndSplineSet
Substitution2: "'smcp' Lowercase to Small Capitals in Latin lookup 3 subtable" F.sc
Substitution2: "'aalt' Access All Alternates in Latin lookup 0 subtable" F.sc
EndChar

StartChar: g
Encoding: 103 103 52
Width: 482
VWidth: 572
Flags: HMW
HStem: -48 45<252.5 341.75 286.75 341.75 341.75 345.25> 72 47<247 325.25 290.75 313.75> 289.5 46.5<275 290.75 290.75 313.75 313.75 325.25>
VStem: 198.25 50.5<23.5 31 31 31 147.5 162.5 162.5 246> 380.25 50.5<32.5 95.5 95.5 95.5 162 246.5 246.5 262 312.5 336>
LayerCount: 2
Fore
SplineSet
380.25 336 m 1
 430.75 336 l 1
 430.75 25 l 2
 430.75 -26.5 400.75 -48 345.25 -48 c 2
 279.75 -48 l 2
 225.25 -48 198.25 -26.5 198.25 23.5 c 2
 198.25 31 l 1
 248.75 44.5 l 1
 248.75 32.5 l 2
 248.75 7.5 256.75 -3 286.75 -3 c 2
 341.75 -3 l 2
 372.25 -3 380.25 7.5 380.25 32.5 c 2
 380.25 95.5 l 1
 379.25 95.5 l 1
 369.75 83 349.25 72 313.75 72 c 2
 271.75 72 l 2
 222.25 72 198.25 96 198.25 147.5 c 2
 198.25 260.5 l 2
 198.25 311.5 222.25 336 271.75 336 c 2
 313.75 336 l 2
 349.25 336 369.75 325 379.25 312.5 c 1
 380.25 312.5 l 1
 380.25 336 l 1
290.75 119 m 2
 325.25 119 l 2
 355.75 119 380.25 131 380.25 162 c 2
 380.25 246.5 l 2
 380.25 277.5 355.75 289.5 325.25 289.5 c 2
 290.75 289.5 l 2
 259.25 289.5 248.75 276.5 248.75 246 c 2
 248.75 162.5 l 2
 248.75 132 259.25 119 290.75 119 c 2
EndSplineSet
Substitution2: "'ss02' Style Set 2 in Latin lookup 6 subtable" g.short
Substitution2: "'smcp' Lowercase to Small Capitals in Latin lookup 3 subtable" G.sc
AlternateSubs2: "'aalt' Access All Alternates in Latin lookup 1 subtable" G.sc g.short
EndChar

StartChar: h
Encoding: 104 104 53
Width: 484
VWidth: 671
Flags: HMW
HStem: 171 10.5G<203.25 253.75 203.25 203.25 385.25 435.75 385.25 385.25> 388.5 46.5<293.5 362.25 320.25 343.25> 503 10G<203.25 253.75 253.75 253.75>
VStem: 203.25 50.5<171 345.5 411.5 513> 385.25 50.5<171 345 345 359.5>
LayerCount: 2
Fore
SplineSet
435.75 171 m 1
 385.25 171 l 1
 385.25 345 l 2
 385.25 375.5 374.75 388.5 343.25 388.5 c 2
 308.75 388.5 l 2
 278.25 388.5 253.75 376.5 253.75 345.5 c 2
 253.75 171 l 1
 203.25 171 l 1
 203.25 513 l 1
 253.75 513 l 1
 253.75 411.5 l 1
 254.75 411.5 l 1
 264.25 424 284.75 435 320.25 435 c 2
 362.25 435 l 2
 411.75 435 435.75 410.5 435.75 359.5 c 2
 435.75 171 l 1
EndSplineSet
Substitution2: "'smcp' Lowercase to Small Capitals in Latin lookup 3 subtable" H.sc
Substitution2: "'aalt' Access All Alternates in Latin lookup 0 subtable" H.sc
EndChar

StartChar: i
Encoding: 105 105 54
Width: 494
VWidth: 684
Flags: HMW
HStem: 184 47<217.75 321.75 217.75 321.75 372.25 461.25> 401.5 46.5<228.25 321.75 228.25 372.25> 503 49<317.25 372.25 317.25 372.25>
VStem: 317.25 55<503 552>
LayerCount: 2
Fore
SplineSet
217.75 184 m 1
 217.75 231 l 1
 321.75 231 l 1
 321.75 401.5 l 1
 228.25 401.5 l 1
 228.25 448 l 1
 372.25 448 l 1
 372.25 231 l 1
 461.25 231 l 1
 461.25 184 l 1
 217.75 184 l 1
372.25 503 m 1
 317.25 503 l 1
 317.25 552 l 1
 372.25 552 l 1
 372.25 503 l 1
EndSplineSet
Substitution2: "'smcp' Lowercase to Small Capitals in Latin lookup 3 subtable" I.sc
Substitution2: "'aalt' Access All Alternates in Latin lookup 0 subtable" I.sc
EndChar

StartChar: j
Encoding: 106 106 55
Width: 474
VWidth: 624
Flags: HMW
HStem: 4 45<247 314.75 281.25 314.75 314.75 318.25> 341.5 46.5<236.25 353.75 236.25 404.25> 443 49<349.25 404.25 349.25 404.25>
VStem: 192.75 50.5<75.5 84.5 84.5 103 103 103> 349.25 55<443 492>
LayerCount: 2
Fore
SplineSet
404.25 388 m 1
 404.25 77 l 2
 404.25 25.5 373.25 4 318.25 4 c 2
 274.25 4 l 2
 219.75 4 192.75 25.5 192.75 75.5 c 2
 192.75 103 l 1
 243.25 117.5 l 1
 243.25 84.5 l 2
 243.25 59.5 251.25 49 281.25 49 c 2
 314.75 49 l 2
 344.75 49 353.75 59.5 353.75 84.5 c 2
 353.75 341.5 l 1
 236.25 341.5 l 1
 236.25 388 l 1
 404.25 388 l 1
404.25 443 m 1
 349.25 443 l 1
 349.25 492 l 1
 404.25 492 l 1
 404.25 443 l 1
EndSplineSet
Substitution2: "'ss02' Style Set 2 in Latin lookup 6 subtable" j.short
Substitution2: "'smcp' Lowercase to Small Capitals in Latin lookup 3 subtable" J.sc
AlternateSubs2: "'aalt' Access All Alternates in Latin lookup 1 subtable" J.sc j.short
EndChar

StartChar: k
Encoding: 107 107 56
Width: 490
VWidth: 671
Flags: HMW
HStem: 171 10.5G<205 255.5 205 205 384.5 435 384.5 384.5> 425 10G<386.5 455 455 455> 503 10G<205 255.5 255.5 255.5>
VStem: 205 50.5<171 248 309 513> 384.5 50.5<171 243.5 243.5 243.5>
LayerCount: 2
Fore
SplineSet
435 171 m 1
 384.5 171 l 1
 384.5 243.5 l 1
 318.5 306 l 1
 255.5 248 l 1
 255.5 171 l 1
 205 171 l 1
 205 513 l 1
 255.5 513 l 1
 255.5 309 l 1
 256 309 l 1
 386.5 435 l 1
 455 435 l 1
 352 339.5 l 1
 435 260 l 1
 435 171 l 1
EndSplineSet
Substitution2: "'ss01' Style Set 1 in Latin lookup 5 subtable" k.alt1
Substitution2: "'salt' Stylistic Alternatives in Latin lookup 4 subtable" k.alt1
Substitution2: "'smcp' Lowercase to Small Capitals in Latin lookup 3 subtable" K.sc
AlternateSubs2: "'aalt' Access All Alternates in Latin lookup 1 subtable" K.sc k.alt1
EndChar

StartChar: l
Encoding: 108 108 57
Width: 492
VWidth: 671
Flags: HMW
HStem: 171 47<212.75 316.75 212.75 316.75 367.25 456.25> 466.5 46.5<223.25 316.75 223.25 367.25>
VStem: 316.75 50.5<218 466.5 466.5 466.5>
LayerCount: 2
Fore
SplineSet
212.75 171 m 1
 212.75 218 l 1
 316.75 218 l 1
 316.75 466.5 l 1
 223.25 466.5 l 1
 223.25 513 l 1
 367.25 513 l 1
 367.25 218 l 1
 456.25 218 l 1
 456.25 171 l 1
 212.75 171 l 1
EndSplineSet
Substitution2: "'smcp' Lowercase to Small Capitals in Latin lookup 3 subtable" L.sc
Substitution2: "'aalt' Access All Alternates in Latin lookup 0 subtable" L.sc
EndChar

StartChar: m
Encoding: 109 109 58
Width: 487
VWidth: 632
Flags: HMW
HStem: 132 10.5G<184 184 184 229 303 303 303 347 421 421 421 466> 351 45<184 262.5 275.5 279 391 396.5>
VStem: 184 45<132 308.5 132 396> 303 44<132 308.5 132 321 132 331.75> 421 45<132 318.5 318.5 325.5 132 330.5>
CounterMasks: 1 38
LayerCount: 2
Fore
SplineSet
184 132 m 1
 184 396 l 1
 225 396 l 1
 225 366 l 1
 226 366 l 1
 230.5 377.5 242.5 396 275.5 396 c 2
 296.5 396 l 2
 328 396 336.5 381.5 340 366 c 1
 340.5 366 l 1
 345 379.5 360 396 391 396 c 2
 411.5 396 l 2
 452 396 466 375 466 325.5 c 2
 466 132 l 1
 421 132 l 1
 421 318.5 l 2
 421 342.5 416 351 396.5 351 c 2
 380.5 351 l 2
 364 351 347 340.5 347 308.5 c 2
 347 132 l 1
 303 132 l 1
 303 321 l 2
 303 342.5 297.5 351 279 351 c 2
 262.5 351 l 2
 239.5 351 229 334 229 308.5 c 2
 229 132 l 1
 184 132 l 1
EndSplineSet
Substitution2: "'smcp' Lowercase to Small Capitals in Latin lookup 3 subtable" M.sc
Substitution2: "'aalt' Access All Alternates in Latin lookup 0 subtable" M.sc
EndChar

StartChar: n
Encoding: 110 110 59
Width: 487
VWidth: 632
Flags: HMW
HStem: 132 10.5G<209.25 259.75 209.25 209.25 389.25 439.75 389.25 389.25> 349.5 46.5<209.25 314.75 326.25 347.25>
VStem: 209.25 50.5<132 306.5 372.5 396> 389.25 50.5<132 306.5 306.5 320.5>
LayerCount: 2
Fore
SplineSet
439.75 132 m 1
 389.25 132 l 1
 389.25 306.5 l 2
 389.25 336.5 378.75 349.5 347.25 349.5 c 2
 314.75 349.5 l 2
 284.75 349.5 259.75 337.5 259.75 306.5 c 2
 259.75 132 l 1
 209.25 132 l 1
 209.25 396 l 1
 259.75 396 l 1
 259.75 372.5 l 1
 261.25 372.5 l 1
 270.75 385 290.75 396 326.25 396 c 2
 366.25 396 l 2
 415.25 396 439.75 372 439.75 320.5 c 2
 439.75 132 l 1
EndSplineSet
Substitution2: "'smcp' Lowercase to Small Capitals in Latin lookup 3 subtable" N.sc
Substitution2: "'aalt' Access All Alternates in Latin lookup 0 subtable" N.sc
EndChar

StartChar: o
Encoding: 111 111 60
Width: 487
VWidth: 632
Flags: HMW
HStem: 132 47<263.25 351.75 297.75 351.75 351.75 358.25> 349.5 46.5<290.75 297.75 297.75 351.75>
VStem: 208.75 50.5<205 214.5 214.5 314> 389.75 50.5<214.5 314 314 323>
LayerCount: 2
Fore
SplineSet
358.25 132 m 2
 290.75 132 l 2
 235.75 132 208.75 153.5 208.75 205 c 2
 208.75 323 l 2
 208.75 374 235.75 396 290.75 396 c 2
 358.25 396 l 2
 413.25 396 440.25 374 440.25 323 c 2
 440.25 205 l 2
 440.25 153.5 413.25 132 358.25 132 c 2
297.75 179 m 2
 351.75 179 l 2
 381.75 179 389.75 189.5 389.75 214.5 c 2
 389.75 314 l 2
 389.75 339 381.75 349.5 351.75 349.5 c 2
 297.75 349.5 l 2
 267.75 349.5 259.25 339 259.25 314 c 2
 259.25 214.5 l 2
 259.25 189.5 267.75 179 297.75 179 c 2
EndSplineSet
Substitution2: "'smcp' Lowercase to Small Capitals in Latin lookup 3 subtable" O.sc
Substitution2: "'aalt' Access All Alternates in Latin lookup 0 subtable" O.sc
EndChar

StartChar: p
Encoding: 112 112 61
Width: 492
VWidth: 576
Flags: HMW
HStem: -33.75 10.5G<218.25 268.75 218.25 218.25> 76.75 47<323.75 335.25 335.25 358.25 358.25 374 323.75 377.25> 294.25 46.5<218.25 323.75 335.25 358.25>
VStem: 218.25 50.5<-33.75 100.25 151.25 166.75 166.75 251.25 317.25 340.75> 400.25 50.5<167.25 250.75 250.75 265.25>
LayerCount: 2
Fore
SplineSet
268.75 340.75 m 1
 268.75 317.25 l 1
 269.75 317.25 l 1
 279.25 329.75 299.75 340.75 335.25 340.75 c 2
 377.25 340.75 l 2
 426.75 340.75 450.75 316.25 450.75 265.25 c 2
 450.75 152.25 l 2
 450.75 100.75 426.75 76.75 377.25 76.75 c 2
 335.25 76.75 l 2
 299.75 76.75 279.25 87.75 269.75 100.25 c 1
 268.75 100.25 l 1
 268.75 -33.75 l 1
 218.25 -33.75 l 1
 218.25 340.75 l 1
 268.75 340.75 l 1
323.75 123.75 m 2
 358.25 123.75 l 2
 389.75 123.75 400.25 136.75 400.25 167.25 c 2
 400.25 250.75 l 2
 400.25 281.25 389.75 294.25 358.25 294.25 c 2
 323.75 294.25 l 2
 293.25 294.25 268.75 282.25 268.75 251.25 c 2
 268.75 166.75 l 2
 268.75 135.75 293.25 123.75 323.75 123.75 c 2
EndSplineSet
Substitution2: "'ss02' Style Set 2 in Latin lookup 6 subtable" p.short
Substitution2: "'smcp' Lowercase to Small Capitals in Latin lookup 3 subtable" P.sc
AlternateSubs2: "'aalt' Access All Alternates in Latin lookup 1 subtable" P.sc p.short
EndChar

StartChar: q
Encoding: 113 113 62
Width: 482
VWidth: 576
Flags: HMW
HStem: -33.75 10.5G<380.25 430.75 380.25 380.25> 76.75 47<247 325.25 290.75 313.75> 294.25 46.5<275 290.75 290.75 313.75 313.75 325.25>
VStem: 198.25 50.5<152.25 167.25 167.25 250.75> 380.25 50.5<-33.75 100.25 100.25 100.25 166.75 251.25 251.25 266.75 317.25 340.75 -33.75 340.75>
LayerCount: 2
Fore
SplineSet
380.25 317.25 m 1
 380.25 340.75 l 1
 430.75 340.75 l 1
 430.75 -33.75 l 1
 380.25 -33.75 l 1
 380.25 100.25 l 1
 379.25 100.25 l 1
 369.75 87.75 349.25 76.75 313.75 76.75 c 2
 271.75 76.75 l 2
 222.25 76.75 198.25 100.75 198.25 152.25 c 2
 198.25 265.25 l 2
 198.25 316.25 222.25 340.75 271.75 340.75 c 2
 313.75 340.75 l 2
 349.25 340.75 369.75 329.75 379.25 317.25 c 1
 380.25 317.25 l 1
290.75 123.75 m 2
 325.25 123.75 l 2
 355.75 123.75 380.25 135.75 380.25 166.75 c 2
 380.25 251.25 l 2
 380.25 282.25 355.75 294.25 325.25 294.25 c 2
 290.75 294.25 l 2
 259.25 294.25 248.75 281.25 248.75 250.75 c 2
 248.75 167.25 l 2
 248.75 136.75 259.25 123.75 290.75 123.75 c 2
EndSplineSet
Substitution2: "'ss02' Style Set 2 in Latin lookup 6 subtable" q.short
Substitution2: "'smcp' Lowercase to Small Capitals in Latin lookup 3 subtable" Q.sc
AlternateSubs2: "'aalt' Access All Alternates in Latin lookup 1 subtable" Q.sc q.short
EndChar

StartChar: r
Encoding: 114 114 63
Width: 501
VWidth: 632
Flags: HMW
HStem: 132 10.5G<240.25 290.75 240.25 240.25> 349.5 46.5<240.25 345.75 357.25 375.75>
VStem: 240.25 50.5<132 306.5 372.5 396> 416.25 50.5<300 300 300 307.5 307.5 320.5 300 322.75>
LayerCount: 2
Fore
SplineSet
466.75 300 m 1
 416.25 286.5 l 1
 416.25 307.5 l 2
 416.25 338 407.25 349.5 375.75 349.5 c 2
 345.75 349.5 l 2
 315.25 349.5 290.75 337.5 290.75 306.5 c 2
 290.75 132 l 1
 240.25 132 l 1
 240.25 396 l 1
 290.75 396 l 1
 290.75 372.5 l 1
 291.75 372.5 l 1
 301.25 385 321.75 396 357.25 396 c 2
 393.25 396 l 2
 442.25 396 466.75 372.5 466.75 320.5 c 2
 466.75 300 l 1
EndSplineSet
Substitution2: "'smcp' Lowercase to Small Capitals in Latin lookup 3 subtable" R.sc
Substitution2: "'aalt' Access All Alternates in Latin lookup 0 subtable" R.sc
EndChar

StartChar: s
Encoding: 115 115 64
Width: 487
VWidth: 632
Flags: HMW
HStem: 132 42<262.5 348.25 299.75 348.25 348.25 350.75> 247.5 40<264.75 352.75 304.25 344.75> 354.5 41.5<298.25 300.75 300.75 349.25>
VStem: 214.25 48<195.5 205 205 205 315 318.5 318.5 324.5> 386.75 48<205 215.5 215.5 217 175.25 227 329.5 333.5>
LayerCount: 2
Fore
SplineSet
262.25 217 m 1
 262.25 205.5 l 2
 262.25 183.5 268.25 174 299.75 174 c 2
 348.25 174 l 2
 377.75 174 386.75 182 386.75 205 c 2
 386.75 215.5 l 2
 386.75 238.5 377.75 247.5 344.75 247.5 c 2
 293.75 247.5 l 2
 235.75 247.5 214.25 266 214.25 315 c 2
 214.25 327 l 2
 214.25 378 245.25 396 298.25 396 c 2
 356.25 396 l 2
 416.75 396 434.75 373.5 434.75 333.5 c 2
 434.75 329.5 l 1
 386.75 316.5 l 1
 386.75 324 l 2
 386.75 346 380.75 354.5 349.25 354.5 c 2
 300.75 354.5 l 2
 272.25 354.5 262.25 347 262.25 324.5 c 2
 262.25 318.5 l 2
 262.25 295.5 271.25 287.5 304.25 287.5 c 2
 352.75 287.5 l 2
 410.75 287.5 434.75 265.5 434.75 217 c 2
 434.75 200.5 l 2
 434.75 150 403.75 132 350.75 132 c 2
 292.75 132 l 2
 232.25 132 214.25 155.5 214.25 195.5 c 2
 214.25 205 l 1
 262.25 217 l 1
EndSplineSet
Substitution2: "'smcp' Lowercase to Small Capitals in Latin lookup 3 subtable" S.sc
Substitution2: "'aalt' Access All Alternates in Latin lookup 0 subtable" S.sc
EndChar

StartChar: t
Encoding: 116 116 65
Width: 477
VWidth: 671
Flags: HMW
HStem: 171 47<319.25 422.25 353.25 422.25 353.25 430.75> 389.5 45.5<178.25 264.75 178.25 264.75 315.25 424.75> 503 10G<264.75 315.25 315.25 315.25>
VStem: 264.75 50.5<243 253.5 253.5 389.5 435 513>
LayerCount: 2
Fore
SplineSet
178.25 389.5 m 1
 178.25 435 l 1
 264.75 435 l 1
 264.75 513 l 1
 315.25 513 l 1
 315.25 435 l 1
 424.75 435 l 1
 424.75 389.5 l 1
 315.25 389.5 l 1
 315.25 253.5 l 2
 315.25 228.5 323.25 218 353.25 218 c 2
 422.25 218 l 1
 430.75 171 l 1
 346.75 171 l 2
 291.75 171 264.75 192 264.75 243 c 2
 264.75 389.5 l 1
 178.25 389.5 l 1
EndSplineSet
Substitution2: "'smcp' Lowercase to Small Capitals in Latin lookup 3 subtable" T.sc
Substitution2: "'aalt' Access All Alternates in Latin lookup 0 subtable" T.sc
EndChar

StartChar: u
Encoding: 117 117 66
Width: 487
VWidth: 632
Flags: HMW
HStem: 132 47<257 335.25 300.75 323.75> 386 10G<208.25 258.75 258.75 258.75 390.25 440.75 440.75 440.75>
VStem: 208.25 50.5<207.5 222.5 222.5 396> 390.25 50.5<132 155.5 155.5 155.5 222 396 132 396>
LayerCount: 2
Fore
SplineSet
208.25 396 m 1
 258.75 396 l 1
 258.75 222.5 l 2
 258.75 192 269.25 179 300.75 179 c 2
 335.25 179 l 2
 365.75 179 390.25 191 390.25 222 c 2
 390.25 396 l 1
 440.75 396 l 1
 440.75 132 l 1
 390.25 132 l 1
 390.25 155.5 l 1
 389.25 155.5 l 1
 379.75 143 359.25 132 323.75 132 c 2
 281.75 132 l 2
 232.25 132 208.25 156 208.25 207.5 c 2
 208.25 396 l 1
EndSplineSet
Substitution2: "'smcp' Lowercase to Small Capitals in Latin lookup 3 subtable" U.sc
Substitution2: "'aalt' Access All Alternates in Latin lookup 0 subtable" U.sc
EndChar

StartChar: v
Encoding: 118 118 67
Width: 487
VWidth: 632
Flags: HMW
HStem: 132 10.5G<297.5 352 297.5 297.5> 386 10G<204 254.5 254.5 254.5 395.5 446 446 446>
VStem: 204 50.5<315.5 396 315.5 396 315.5 396> 395.5 50.5<315.5 396 307 396>
LayerCount: 2
Fore
SplineSet
395.5 396 m 1
 446 396 l 1
 446 307 l 1
 352 132 l 1
 297.5 132 l 1
 204 307 l 1
 204 396 l 1
 254.5 396 l 1
 254.5 315.5 l 1
 324 184 l 1
 325.5 184 l 1
 395.5 315.5 l 1
 395.5 396 l 1
EndSplineSet
Substitution2: "'ss01' Style Set 1 in Latin lookup 5 subtable" v.alt1
Substitution2: "'salt' Stylistic Alternatives in Latin lookup 4 subtable" v.alt1
Substitution2: "'smcp' Lowercase to Small Capitals in Latin lookup 3 subtable" V.sc
AlternateSubs2: "'aalt' Access All Alternates in Latin lookup 1 subtable" V.sc v.alt1
EndChar

StartChar: w
Encoding: 119 119 68
Width: 487
VWidth: 632
Flags: HMW
HStem: 132 10.5G<234.25 277.25 234.25 234.25 371.75 415.25 371.75 371.75> 386 10G<180.75 228.75 228.75 228.75 420.25 468.25 468.25 468.25>
VStem: 180.75 48<316.5 396 316.5 396 316.5 396> 420.25 48<316.5 396 312.5 396>
LayerCount: 2
Fore
SplineSet
309.75 343 m 1
 339.25 343 l 1
 387.75 207.5 l 1
 389.75 207.5 l 1
 420.25 316.5 l 1
 420.25 396 l 1
 468.25 396 l 1
 468.25 312.5 l 1
 415.25 132 l 1
 371.75 132 l 1
 325.75 260 l 1
 323.75 260 l 1
 277.25 132 l 1
 234.25 132 l 1
 180.75 312.5 l 1
 180.75 396 l 1
 228.75 396 l 1
 228.75 316.5 l 1
 259.25 207.5 l 1
 261.25 207.5 l 1
 309.75 343 l 1
EndSplineSet
Substitution2: "'ss01' Style Set 1 in Latin lookup 5 subtable" w.alt1
Substitution2: "'salt' Stylistic Alternatives in Latin lookup 4 subtable" w.alt1
Substitution2: "'smcp' Lowercase to Small Capitals in Latin lookup 3 subtable" W.sc
AlternateSubs2: "'aalt' Access All Alternates in Latin lookup 1 subtable" W.sc w.alt1
EndChar

StartChar: x
Encoding: 120 120 69
Width: 487
VWidth: 632
Flags: HMW
HStem: 132 10.5G<207.75 258.25 207.75 207.75 390.75 441.25 390.75 390.75> 386 10G<217.25 267.75 267.75 267.75 381.75 432.25 432.25 432.25>
VStem: 207.75 50.5<132 185 132 200.5 132 200.5> 217.25 50.5<346.5 396 346.5 396 346.5 396> 381.75 50.5<346.5 396 331.5 396> 390.75 50.5<132 185 185 185>
LayerCount: 2
Fore
SplineSet
324.75 297 m 1xe8
 381.75 346.5 l 1
 381.75 396 l 1
 432.25 396 l 1
 432.25 331.5 l 1
 358.75 270 l 1
 441.25 200.5 l 1xd8
 441.25 132 l 1
 390.75 132 l 1
 390.75 185 l 1
 324.75 240.5 l 1
 258.25 185 l 1
 258.25 132 l 1
 207.75 132 l 1
 207.75 200.5 l 1
 290.75 270 l 1
 217.25 331.5 l 1xe4
 217.25 396 l 1
 267.75 396 l 1
 267.75 346.5 l 1
 324.75 297 l 1xe8
EndSplineSet
Substitution2: "'ss01' Style Set 1 in Latin lookup 5 subtable" x.alt1
Substitution2: "'salt' Stylistic Alternatives in Latin lookup 4 subtable" x.alt1
Substitution2: "'smcp' Lowercase to Small Capitals in Latin lookup 3 subtable" X.sc
AlternateSubs2: "'aalt' Access All Alternates in Latin lookup 1 subtable" X.sc x.alt1
EndChar

StartChar: y
Encoding: 121 121 70
Width: 487
VWidth: 572
Flags: HMW
HStem: -48 45<261.25 352.75 295.75 352.75 352.75 356.25> 72 47<255.5 336.75 299.25 325.25> 326 10G<206.75 257.25 257.25 257.25 391.75 442.25 442.25 442.25>
VStem: 206.75 50.5<23.5 31 31 31 147.5 162.5 162.5 336> 391.75 50.5<32.5 95.5 95.5 95.5 162 336>
LayerCount: 2
Fore
SplineSet
391.75 336 m 1
 442.25 336 l 1
 442.25 25 l 2
 442.25 -26.5 411.25 -48 356.25 -48 c 2
 288.75 -48 l 2
 233.75 -48 206.75 -26.5 206.75 23.5 c 2
 206.75 31 l 1
 257.25 44.5 l 1
 257.25 32.5 l 2
 257.25 7.5 265.75 -3 295.75 -3 c 2
 352.75 -3 l 2
 382.75 -3 391.75 7.5 391.75 32.5 c 2
 391.75 95.5 l 1
 390.25 95.5 l 1
 380.75 83 360.75 72 325.25 72 c 2
 280.25 72 l 2
 230.75 72 206.75 96 206.75 147.5 c 2
 206.75 336 l 1
 257.25 336 l 1
 257.25 162.5 l 2
 257.25 132 267.75 119 299.25 119 c 2
 336.75 119 l 2
 366.75 119 391.75 131 391.75 162 c 2
 391.75 336 l 1
EndSplineSet
Substitution2: "'ss02' Style Set 2 in Latin lookup 6 subtable" y.short
Substitution2: "'smcp' Lowercase to Small Capitals in Latin lookup 3 subtable" Y.sc
AlternateSubs2: "'aalt' Access All Alternates in Latin lookup 1 subtable" Y.sc y.short
EndChar

StartChar: z
Encoding: 122 122 71
Width: 487
VWidth: 632
Flags: HMW
HStem: 132 45.5<274.75 443.75 274.75 443.75> 351 45<215.25 369.25 215.25 437.25>
LayerCount: 2
Fore
SplineSet
443.75 132 m 1
 205.25 132 l 1
 205.25 173 l 1
 369.25 350 l 1
 369.25 351 l 1
 215.25 351 l 1
 215.25 396 l 1
 437.25 396 l 1
 437.25 355 l 1
 274.75 178.5 l 1
 274.75 177.5 l 1
 443.75 177.5 l 1
 443.75 132 l 1
EndSplineSet
Substitution2: "'smcp' Lowercase to Small Capitals in Latin lookup 3 subtable" Z.sc
Substitution2: "'aalt' Access All Alternates in Latin lookup 0 subtable" Z.sc
EndChar

StartChar: dotlessi
Encoding: 305 305 72
Width: 487
VWidth: 632
Flags: HMW
HStem: 132 47<202.75 306.75 202.75 306.75 357.25 446.25> 349.5 46.5<213.25 306.75 213.25 357.25>
VStem: 306.75 50.5<179 349.5 349.5 349.5>
LayerCount: 2
Fore
SplineSet
202.75 132 m 1
 202.75 179 l 1
 306.75 179 l 1
 306.75 349.5 l 1
 213.25 349.5 l 1
 213.25 396 l 1
 357.25 396 l 1
 357.25 179 l 1
 446.25 179 l 1
 446.25 132 l 1
 202.75 132 l 1
EndSplineSet
Substitution2: "'smcp' Lowercase to Small Capitals in Latin lookup 3 subtable" I.sc
Substitution2: "'aalt' Access All Alternates in Latin lookup 0 subtable" I.sc
EndChar

StartChar: k.alt1
Encoding: 65544 -1 73
Width: 487
VWidth: 671
Flags: HMW
HStem: 171 10.5G<200.75 251.25 200.75 200.75 388.25 448.25 388.25 388.25> 425 10G<374.75 443.25 443.25 443.25> 503 10G<200.75 251.25 251.25 251.25>
VStem: 200.75 50.5<171 264 326 513>
LayerCount: 2
Fore
SplineSet
448.25 171 m 1
 388.25 171 l 1
 300.75 305.5 l 1
 251.25 264 l 1
 251.25 171 l 1
 200.75 171 l 1
 200.75 513 l 1
 251.25 513 l 1
 251.25 326 l 1
 251.75 326 l 1
 374.75 435 l 1
 443.25 435 l 1
 335.75 339 l 1
 448.25 171 l 1
EndSplineSet
EndChar

StartChar: v.alt1
Encoding: 65545 -1 74
Width: 487
VWidth: 632
Flags: HMW
HStem: 132 10.5G<295.75 353.75 295.75 295.75> 386 10G<193.75 248.75 248.75 248.75 400.75 455.25 455.25 455.25>
LayerCount: 2
Fore
SplineSet
400.75 396 m 1
 455.25 396 l 1
 353.75 132 l 1
 295.75 132 l 1
 193.75 396 l 1
 248.75 396 l 1
 323.75 193.5 l 1
 325.25 193.5 l 1
 400.75 396 l 1
EndSplineSet
EndChar

StartChar: w.alt1
Encoding: 65546 -1 75
Width: 487
VWidth: 632
Flags: HMW
HStem: 132 10.5G<236 281 236 236 369 413.5 369 369> 386 10G<184 234 234 234 416 466 466 466>
LayerCount: 2
Fore
SplineSet
310 316.5 m 1
 339.5 316.5 l 1
 379.5 214 l 1
 381 214 l 1
 416 396 l 1
 466 396 l 1
 413.5 132 l 1
 369 132 l 1
 325.5 239.5 l 1
 324 239.5 l 1
 281 132 l 1
 236 132 l 1
 184 396 l 1
 234 396 l 1
 269 214 l 1
 270.5 214 l 1
 310 316.5 l 1
EndSplineSet
EndChar

StartChar: x.alt1
Encoding: 65547 -1 76
Width: 487
VWidth: 632
Flags: HMW
HStem: 132 10.5G<198.25 256.25 198.25 198.25 395.25 452.75 395.25 395.25> 386 10G<209.25 266.25 266.25 266.25 385.25 442.25 442.25 442.25>
LayerCount: 2
Fore
SplineSet
325.75 306 m 1
 385.25 396 l 1
 442.25 396 l 1
 357.25 272 l 1
 452.75 132 l 1
 395.25 132 l 1
 325.75 235.5 l 1
 256.25 132 l 1
 198.25 132 l 1
 294.25 272 l 1
 209.25 396 l 1
 266.25 396 l 1
 325.75 306 l 1
EndSplineSet
EndChar

StartChar: g.short
Encoding: 65548 -1 77
Width: 482
VWidth: 589
Flags: HMW
HStem: 4.5 45<252.5 341.75 286.75 341.75 341.75 345.25> 137.5 45.5<247 325.25 290.75 313.75> 307 46.5<275 290.75 290.75 313.75 313.75 325.25>
VStem: 198.25 50.5<76 84.5 84.5 84.5 213 224.5 224.5 266> 380.25 50.5<85 161 161 161 221 269 269 283.25 330 353.5>
LayerCount: 2
Fore
SplineSet
380.25 353.5 m 1
 430.75 353.5 l 1
 430.75 77.5 l 2
 430.75 26 400.75 4.5 345.25 4.5 c 2
 279.75 4.5 l 2
 225.25 4.5 198.25 26 198.25 76 c 2
 198.25 84.5 l 1
 248.75 98 l 1
 248.75 85 l 2
 248.75 60 256.75 49.5 286.75 49.5 c 2
 341.75 49.5 l 2
 372.25 49.5 380.25 60 380.25 85 c 2
 380.25 161 l 1
 379.25 161 l 1
 369.75 148.5 349.25 137.5 313.75 137.5 c 2
 271.75 137.5 l 2
 222.25 137.5 198.25 161.5 198.25 213 c 2
 198.25 278 l 2
 198.25 329 222.25 353.5 271.75 353.5 c 2
 313.75 353.5 l 2
 349.25 353.5 369.75 342.5 379.25 330 c 1
 380.25 330 l 1
 380.25 353.5 l 1
290.75 183 m 2
 325.25 183 l 2
 355.75 183 380.25 193 380.25 221 c 2
 380.25 269 l 2
 380.25 297.5 355.75 307 325.25 307 c 2
 290.75 307 l 2
 259.25 307 248.75 294 248.75 266 c 2
 248.75 224.5 l 2
 248.75 196.5 259.25 183 290.75 183 c 2
EndSplineSet
EndChar

StartChar: j.short
Encoding: 65549 -1 78
Width: 474
VWidth: 641
Flags: HMW
HStem: 56.5 45<247 314.75 281.25 314.75 314.75 318.25> 359 46.5<241.25 353.75 241.25 404.25> 460.5 49<349.25 404.25 349.25 404.25>
VStem: 192.75 50.5<128 137 137 155.5 155.5 155.5> 353.75 50.5<137 359 359 359>
LayerCount: 2
Fore
SplineSet
404.25 405.5 m 1
 404.25 129.5 l 2
 404.25 78 373.25 56.5 318.25 56.5 c 2
 274.25 56.5 l 2
 219.75 56.5 192.75 78 192.75 128 c 2
 192.75 155.5 l 1
 243.25 170 l 1
 243.25 137 l 2
 243.25 112 251.25 101.5 281.25 101.5 c 2
 314.75 101.5 l 2
 344.75 101.5 353.75 112 353.75 137 c 2
 353.75 359 l 1
 241.25 359 l 1
 241.25 405.5 l 1
 404.25 405.5 l 1
404.25 460.5 m 1
 349.25 460.5 l 1
 349.25 509.5 l 1
 404.25 509.5 l 1
 404.25 460.5 l 1
EndSplineSet
EndChar

StartChar: y.short
Encoding: 65550 -1 79
Width: 487
VWidth: 589
Flags: HMW
HStem: 4.5 45<261.25 352.75 295.75 352.75 352.75 356.25> 137.5 45.5<255.5 336.75 299.25 325.25> 343.5 10G<206.75 257.25 257.25 257.25 391.75 442.25 442.25 442.25>
VStem: 206.75 50.5<76 85 85 86 86 86 213 224.5 224.5 353.5> 391.75 50.5<85 161 161 161 221 353.5>
LayerCount: 2
Fore
SplineSet
391.75 353.5 m 1
 442.25 353.5 l 1
 442.25 77.5 l 2
 442.25 26 411.25 4.5 356.25 4.5 c 2
 288.75 4.5 l 2
 233.75 4.5 206.75 26 206.75 76 c 2
 206.75 86 l 1
 257.25 99.5 l 1
 257.25 85 l 2
 257.25 60 265.75 49.5 295.75 49.5 c 2
 352.75 49.5 l 2
 382.75 49.5 391.75 60 391.75 85 c 2
 391.75 161 l 1
 390.25 161 l 1
 380.75 148.5 360.75 137.5 325.25 137.5 c 2
 280.25 137.5 l 2
 230.75 137.5 206.75 161.5 206.75 213 c 2
 206.75 353.5 l 1
 257.25 353.5 l 1
 257.25 224.5 l 2
 257.25 196.5 267.75 183 299.25 183 c 2
 336.75 183 l 2
 366.75 183 391.75 193 391.75 221 c 2
 391.75 353.5 l 1
EndSplineSet
EndChar

StartChar: p.short
Encoding: 65551 -1 80
Width: 492
VWidth: 589
Flags: HMW
HStem: 4.5 10.5G<218.25 268.75 218.25 218.25> 89.5 47<323.75 335.25 335.25 358.25 358.25 374 323.75 377.25> 307 46.5<218.25 323.75 335.25 358.25>
VStem: 218.25 50.5<4.5 113 164 179.5 179.5 264 330 353.5> 400.25 50.5<180 263.5 263.5 278>
LayerCount: 2
Fore
SplineSet
268.75 353.5 m 1
 268.75 330 l 1
 269.75 330 l 1
 279.25 342.5 299.75 353.5 335.25 353.5 c 2
 377.25 353.5 l 2
 426.75 353.5 450.75 329 450.75 278 c 2
 450.75 165 l 2
 450.75 113.5 426.75 89.5 377.25 89.5 c 2
 335.25 89.5 l 2
 299.75 89.5 279.25 100.5 269.75 113 c 1
 268.75 113 l 1
 268.75 4.5 l 1
 218.25 4.5 l 1
 218.25 353.5 l 1
 268.75 353.5 l 1
323.75 136.5 m 2
 358.25 136.5 l 2
 389.75 136.5 400.25 149.5 400.25 180 c 2
 400.25 263.5 l 2
 400.25 294 389.75 307 358.25 307 c 2
 323.75 307 l 2
 293.25 307 268.75 295 268.75 264 c 2
 268.75 179.5 l 2
 268.75 148.5 293.25 136.5 323.75 136.5 c 2
EndSplineSet
EndChar

StartChar: q.short
Encoding: 65552 -1 81
Width: 482
VWidth: 591
Flags: HMW
HStem: 9 10.5G<380.25 430.75 380.25 380.25> 91 47<247 325.25 290.75 313.75> 308.5 46.5<275 290.75 290.75 313.75 313.75 325.25>
VStem: 198.25 50.5<166.5 181.5 181.5 265> 380.25 50.5<9 114.5 114.5 114.5 181 265.5 265.5 281 331.5 355 9 355>
LayerCount: 2
Fore
SplineSet
380.25 331.5 m 1
 380.25 355 l 1
 430.75 355 l 1
 430.75 9 l 1
 380.25 9 l 1
 380.25 114.5 l 1
 379.25 114.5 l 1
 369.75 102 349.25 91 313.75 91 c 2
 271.75 91 l 2
 222.25 91 198.25 115 198.25 166.5 c 2
 198.25 279.5 l 2
 198.25 330.5 222.25 355 271.75 355 c 2
 313.75 355 l 2
 349.25 355 369.75 344 379.25 331.5 c 1
 380.25 331.5 l 1
290.75 138 m 2
 325.25 138 l 2
 355.75 138 380.25 150 380.25 181 c 2
 380.25 265.5 l 2
 380.25 296.5 355.75 308.5 325.25 308.5 c 2
 290.75 308.5 l 2
 259.25 308.5 248.75 295.5 248.75 265 c 2
 248.75 181.5 l 2
 248.75 151 259.25 138 290.75 138 c 2
EndSplineSet
EndChar

StartChar: A.sc
Encoding: 63329 63329 82
Width: 487
VWidth: 632
Flags: HMW
HStem: 132 10.5G<193.5 242.5 193.5 193.5 407 456.5 407 407> 201.5 42.5<272 378 272 394 255.5 378> 386 10G<302.5 347.5 347.5 347.5>
VStem: 193.5 49<132 175.5 132 192 132 192> 407 49.5<132 175.5 175.5 175.5>
LayerCount: 2
Fore
SplineSet
347.5 396 m 1
 456.5 192 l 1
 456.5 132 l 1
 407 132 l 1
 407 175.5 l 1
 394 201.5 l 1
 255.5 201.5 l 1
 242.5 175.5 l 1
 242.5 132 l 1
 193.5 132 l 1
 193.5 192 l 1
 302.5 396 l 1
 347.5 396 l 1
324.5 343 m 1
 272 244 l 1
 378 244 l 1
 325.5 343 l 1
 324.5 343 l 1
EndSplineSet
Substitution2: "'ss01' Style Set 1 in Latin lookup 5 subtable" A.scalt1
Substitution2: "'salt' Stylistic Alternatives in Latin lookup 4 subtable" A.scalt1
Substitution2: "'aalt' Access All Alternates in Latin lookup 0 subtable" A.scalt1
EndChar

StartChar: B.sc
Encoding: 63330 63330 83
Width: 487
VWidth: 632
Flags: HMW
HStem: 132 41.5<261.25 356.75 356.75 358.75> 247 37.5<261.25 356.75 261.25 356.75> 355 41<261.25 356.75 261.25 261.25>
VStem: 213.75 47.5<132 173.5> 387.75 48<202.5 213 172.25 218 172.25 228.5 313.5 319.5 319.5 326 326 332.5>
LayerCount: 2
Fore
SplineSet
213.75 132 m 1
 213.25 396 l 1
 358.75 396 l 2
 412.75 396 435.75 380.5 435.75 332.5 c 2
 435.75 319.5 l 2
 435.75 289 425.75 274 402.75 266.5 c 1
 427.25 259.5 435.75 245 435.75 213 c 2
 435.75 197 l 2
 435.75 147.5 412.75 132 358.75 132 c 2
 213.75 132 l 1
261.25 284.5 m 1
 356.75 284.5 l 2
 381.25 284.5 387.75 293 387.75 313.5 c 2
 387.75 326 l 2
 387.75 347 382.25 355 356.75 355 c 2
 261.25 355 l 1
 261.25 284.5 l 1
261.25 173.5 m 1
 356.75 173.5 l 2
 382.25 173.5 387.75 181.5 387.75 202.5 c 2
 387.75 218 l 2
 387.75 239 381.25 247 356.75 247 c 2
 261.25 247 l 1
 261.25 173.5 l 1
EndSplineSet
EndChar

StartChar: C.sc
Encoding: 63331 63331 84
Width: 487
VWidth: 632
Flags: HMW
HStem: 132 47<257 356.25 292.75 356.25 356.25 365.25> 349.5 46.5<283.75 292.75 292.75 356.25>
VStem: 206.75 50.5<201 212 212 316.5> 391.75 50.5<212 216.5 175.75 232.5 175.75 232.5 314 316.5 316.5 326.5>
LayerCount: 2
Fore
SplineSet
442.25 216.5 m 1
 442.25 201 l 2
 442.25 150.5 418.75 132 365.25 132 c 2
 283.75 132 l 2
 230.25 132 206.75 150.5 206.75 201 c 2
 206.75 326.5 l 2
 206.75 377 230.25 396 283.75 396 c 2
 365.25 396 l 2
 418.75 396 442.25 377 442.25 326.5 c 2
 442.25 314 l 1
 391.75 299 l 1
 391.75 316.5 l 2
 391.75 340.5 384.25 349.5 356.25 349.5 c 2
 292.75 349.5 l 2
 264.75 349.5 257.25 340.5 257.25 316.5 c 2
 257.25 212 l 2
 257.25 188 264.75 179 292.75 179 c 2
 356.25 179 l 2
 384.25 179 391.75 188 391.75 212 c 2
 391.75 232.5 l 1
 442.25 216.5 l 1
EndSplineSet
EndChar

StartChar: D.sc
Encoding: 63332 63332 85
Width: 489
VWidth: 632
Flags: HMW
HStem: 132 47<262.25 361.25 361.25 370.25> 349.5 46.5<262.25 361.25 262.25 262.25>
VStem: 211.75 50.5<179 349.5 179 396 179 396> 396.75 50.5<212 316.5 316.5 326.5>
LayerCount: 2
Fore
SplineSet
447.25 326.5 m 2
 447.25 201 l 2
 447.25 150.5 423.75 132 370.25 132 c 2
 211.75 132 l 1
 211.75 396 l 1
 370.25 396 l 2
 423.75 396 447.25 377 447.25 326.5 c 2
396.75 212 m 2
 396.75 316.5 l 2
 396.75 340.5 389.25 349.5 361.25 349.5 c 2
 262.25 349.5 l 1
 262.25 179 l 1
 361.25 179 l 2
 389.25 179 396.75 188 396.75 212 c 2
EndSplineSet
EndChar

StartChar: E.sc
Encoding: 63333 63333 86
Width: 487
VWidth: 632
Flags: HMW
HStem: 132 43.5<266.5 432.5 266.5 432.5> 247.5 40<266.5 403 266.5 403> 353.5 42.5<266.5 432.5 266.5 266.5>
VStem: 217.5 49<175.5 247.5 287.5 353.5>
LayerCount: 2
Fore
SplineSet
432.5 132 m 1
 217.5 132 l 1
 217.5 396 l 1
 432.5 396 l 1
 432.5 353.5 l 1
 266.5 353.5 l 1
 266.5 287.5 l 1
 403 287.5 l 1
 403 247.5 l 1
 266.5 247.5 l 1
 266.5 175.5 l 1
 432.5 175.5 l 1
 432.5 132 l 1
EndSplineSet
EndChar

StartChar: F.sc
Encoding: 63334 63334 87
Width: 493
VWidth: 632
Flags: HMW
HStem: 132 10.5G<228.75 279.25 228.75 228.75> 228.5 44<279.25 416.75 279.25 416.75> 349.5 46.5<279.25 446.25 279.25 279.25>
VStem: 228.75 50.5<132 228.5 272.5 349.5>
LayerCount: 2
Fore
SplineSet
446.25 349.5 m 1
 279.25 349.5 l 1
 279.25 272.5 l 1
 416.75 272.5 l 1
 416.75 228.5 l 1
 279.25 228.5 l 1
 279.25 132 l 1
 228.75 132 l 1
 228.75 396 l 1
 446.25 396 l 1
 446.25 349.5 l 1
EndSplineSet
EndChar

StartChar: G.sc
Encoding: 63335 63335 88
Width: 487
VWidth: 632
Flags: HMW
HStem: 132 44.5<257.25 362 293 362 362 364> 244.5 35<338.5 395.5 338.5 441> 352 44<284 293 293 358.5>
VStem: 207 50.5<201 209.5 209.5 319> 392 49<320 321 321 329>
LayerCount: 2
Fore
SplineSet
441 279.5 m 1
 441 205 l 2
 441 154.5 417.5 132 364 132 c 2
 284 132 l 2
 230.5 132 207 150.5 207 201 c 2
 207 326.5 l 2
 207 377 230.5 396 284 396 c 2
 364 396 l 2
 417 396 441 376.5 441 329 c 2
 441 320 l 1
 392 307 l 1
 392 321 l 2
 392 343 385.5 352 358.5 352 c 2
 293 352 l 2
 265 352 257.5 343 257.5 319 c 2
 257.5 209.5 l 2
 257.5 185.5 265 176.5 293 176.5 c 2
 362 176.5 l 2
 389 176.5 395.5 185.5 395.5 207.5 c 2
 395.5 244.5 l 1
 338.5 244.5 l 1
 338.5 279.5 l 1
 441 279.5 l 1
EndSplineSet
EndChar

StartChar: H.sc
Encoding: 63336 63336 89
Width: 487
VWidth: 632
Flags: HMW
HStem: 132 10.5G<208.25 258.75 208.25 208.25 390.25 440.75 390.25 390.25> 244.5 45.5<258.75 390.25 258.75 390.25> 386 10G<208.25 258.75 258.75 258.75 390.25 440.75 440.75 440.75>
VStem: 208.25 50.5<132 244.5 132 290 290 396> 390.25 50.5<132 244.5 244.5 244.5 290 396>
LayerCount: 2
Fore
SplineSet
440.75 132 m 1
 390.25 132 l 1
 390.25 244.5 l 1
 258.75 244.5 l 1
 258.75 132 l 1
 208.25 132 l 1
 208.25 396 l 1
 258.75 396 l 1
 258.75 290 l 1
 390.25 290 l 1
 390.25 396 l 1
 440.75 396 l 1
 440.75 132 l 1
EndSplineSet
EndChar

StartChar: I.sc
Encoding: 63337 63337 90
Width: 487
VWidth: 632
Flags: HMW
HStem: 132 47<224.75 299.25 224.75 299.25 349.75 424.25> 349.5 46.5<231.75 299.25 231.75 416.75 349.75 349.75 349.75 416.75>
VStem: 299.25 50.5<179 349.5 179 349.5>
LayerCount: 2
Fore
SplineSet
224.75 132 m 1
 224.75 179 l 1
 299.25 179 l 1
 299.25 349.5 l 1
 231.75 349.5 l 1
 231.75 396 l 1
 416.75 396 l 1
 416.75 349.5 l 1
 349.75 349.5 l 1
 349.75 179 l 1
 424.25 179 l 1
 424.25 132 l 1
 224.75 132 l 1
EndSplineSet
EndChar

StartChar: J.sc
Encoding: 63338 63338 91
Width: 488
VWidth: 632
Flags: HMW
HStem: 132 47<265.75 352.5 301.5 352.5 352.5 361.5> 349.5 46.5<240 438.5 240 388>
VStem: 215.5 50.5<201 212 212 222.5 222.5 222.5> 388 50.5<212 349.5 349.5 349.5>
LayerCount: 2
Fore
SplineSet
240 349.5 m 1
 240 396 l 1
 438.5 396 l 1
 438.5 201 l 2
 438.5 150.5 415 132 361.5 132 c 2
 292.5 132 l 2
 239 132 215.5 150.5 215.5 201 c 2
 215.5 222.5 l 1
 266 237.5 l 1
 266 212 l 2
 266 188 273.5 179 301.5 179 c 2
 352.5 179 l 2
 380.5 179 388 188 388 212 c 2
 388 349.5 l 1
 240 349.5 l 1
EndSplineSet
EndChar

StartChar: K.sc
Encoding: 63339 63339 92
Width: 497
VWidth: 632
Flags: HMW
HStem: 132 10.5G<221.75 272.25 221.75 221.75 399.75 448.75 399.75 399.75> 386 10G<221.75 272.25 272.25 272.25 402.75 467.25 467.25 467.25>
VStem: 221.75 50.5<132 212 275 396> 399.75 49<132 186.5 186.5 186.5>
LayerCount: 2
Fore
SplineSet
448.75 132 m 1
 399.75 132 l 1
 399.75 186.5 l 1
 324.25 258.5 l 1
 272.25 212 l 1
 272.25 132 l 1
 221.75 132 l 1
 221.75 396 l 1
 272.25 396 l 1
 272.25 275 l 1
 273.75 275 l 1
 402.75 396 l 1
 467.25 396 l 1
 356.25 293 l 1
 448.75 205.5 l 1
 448.75 132 l 1
EndSplineSet
Substitution2: "'ss01' Style Set 1 in Latin lookup 5 subtable" K.scalt1
Substitution2: "'salt' Stylistic Alternatives in Latin lookup 4 subtable" K.scalt1
Substitution2: "'aalt' Access All Alternates in Latin lookup 0 subtable" K.scalt1
EndChar

StartChar: L.sc
Encoding: 63340 63340 93
Width: 501
VWidth: 632
Flags: HMW
HStem: 132 47<298 456.5 298 456.5> 386 10G<247.5 298 298 298>
VStem: 247.5 50.5<179 396 179 396 179 396>
LayerCount: 2
Fore
SplineSet
456.5 132 m 1
 247.5 132 l 1
 247.5 396 l 1
 298 396 l 1
 298 179 l 1
 456.5 179 l 1
 456.5 132 l 1
EndSplineSet
EndChar

StartChar: M.sc
Encoding: 63341 63341 94
Width: 487
VWidth: 632
Flags: HMW
HStem: 132 10.5G<194.25 243.75 194.25 194.25 405.75 454.75 405.75 405.75> 386 10G<194.25 243.75 243.75 243.75 405.25 454.75 454.75 454.75>
VStem: 194.25 49.5<132 305.5 132 396> 405.75 49<132 305.5 305.5 305.5>
LayerCount: 2
Fore
SplineSet
454.75 132 m 1
 405.75 132 l 1
 405.75 305.5 l 1
 402.75 305.5 l 1
 338.75 179 l 1
 310.75 179 l 1
 246.75 305.5 l 1
 243.75 305.5 l 1
 243.75 132 l 1
 194.25 132 l 1
 194.25 396 l 1
 243.75 396 l 1
 324.25 244.5 l 1
 324.75 244.5 l 1
 405.25 396 l 1
 454.75 396 l 1
 454.75 132 l 1
EndSplineSet
EndChar

StartChar: N.sc
Encoding: 63342 63342 95
Width: 487
VWidth: 632
Flags: HMW
HStem: 132 10.5G<206.25 256.75 206.25 206.25 393.25 442.75 393.25 393.25> 386 10G<206.25 257.25 257.25 257.25 392.25 442.75 442.75 442.75>
VStem: 206.25 50.5<132 317 132 396> 392.25 50.5<211 396>
LayerCount: 2
Fore
SplineSet
442.75 132 m 1
 393.25 132 l 1
 258.75 317 l 1
 256.75 317 l 1
 256.75 132 l 1
 206.25 132 l 1
 206.25 396 l 1
 257.25 396 l 1
 390.25 211 l 1
 392.25 211 l 1
 392.25 396 l 1
 442.75 396 l 1
 442.75 132 l 1
EndSplineSet
EndChar

StartChar: O.sc
Encoding: 63343 63343 96
Width: 487
VWidth: 632
Flags: HMW
HStem: 132 47<256 357.75 291.25 357.75 357.75 366.25> 349.5 46.5<282.75 291.25 291.25 357.75>
VStem: 205.75 50.5<201 212 212 316.5> 392.75 50.5<212 316.5 316.5 326.5>
LayerCount: 2
Fore
SplineSet
366.25 132 m 2
 282.75 132 l 2
 229.25 132 205.75 150.5 205.75 201 c 2
 205.75 326.5 l 2
 205.75 377 229.25 396 282.75 396 c 2
 366.25 396 l 2
 419.75 396 443.25 377 443.25 326.5 c 2
 443.25 201 l 2
 443.25 150.5 419.75 132 366.25 132 c 2
291.25 179 m 2
 357.75 179 l 2
 385.75 179 392.75 188 392.75 212 c 2
 392.75 316.5 l 2
 392.75 340.5 385.75 349.5 357.75 349.5 c 2
 291.25 349.5 l 2
 263.25 349.5 256.25 340.5 256.25 316.5 c 2
 256.25 212 l 2
 256.25 188 263.25 179 291.25 179 c 2
EndSplineSet
EndChar

StartChar: P.sc
Encoding: 63344 63344 97
Width: 494
VWidth: 632
Flags: HMW
HStem: 132 10.5G<228.5 279 228.5 228.5> 217 45.5<279 363 363 370.5 279 363> 349.5 46.5<279 363 279 279>
VStem: 228.5 50.5<132 217 132 262.5 262.5 349.5> 397 50.5<294 318 318 326.5 262.25 330>
LayerCount: 2
Fore
SplineSet
447.5 326.5 m 2
 447.5 287.5 l 2
 447.5 237 424 217 370.5 217 c 2
 279 217 l 1
 279 132 l 1
 228.5 132 l 1
 228.5 396 l 1
 370.5 396 l 2
 424 396 447.5 377 447.5 326.5 c 2
397 294 m 2
 397 318 l 2
 397 342 391 349.5 363 349.5 c 2
 279 349.5 l 1
 279 262.5 l 1
 363 262.5 l 2
 391 262.5 397 270 397 294 c 2
EndSplineSet
EndChar

StartChar: Q.sc
Encoding: 63345 63345 98
Width: 492
VWidth: 612
Flags: HMW
HStem: 72 10.5G<403.75 461.75 403.75 403.75> 112 47<259.5 361.25 295.25 361.25 361.25 365.25> 329.5 46.5<286.25 295.25 295.25 361.25>
VStem: 209.25 50.5<181 192 192 296.5> 396.75 50.5<192 296.5 296.5 306.5>
LayerCount: 2
Fore
SplineSet
411.25 123 m 1
 461.75 72 l 1
 403.75 72 l 1
 365.25 112 l 1
 286.25 112 l 2
 232.75 112 209.25 130.5 209.25 181 c 2
 209.25 306.5 l 2
 209.25 357 232.75 376 286.25 376 c 2
 370.25 376 l 2
 423.75 376 447.25 357 447.25 306.5 c 2
 447.25 182.5 l 2
 447.25 149.5 437.25 131 411.25 123 c 1
295.25 159 m 2
 361.25 159 l 2
 388.25 159 396.75 166.5 396.75 192 c 2
 396.75 296.5 l 2
 396.75 320.5 389.25 329.5 361.25 329.5 c 2
 295.25 329.5 l 2
 267.25 329.5 259.75 320.5 259.75 296.5 c 2
 259.75 192 l 2
 259.75 168 267.25 159 295.25 159 c 2
EndSplineSet
EndChar

StartChar: R.sc
Encoding: 63346 63346 99
Width: 487
VWidth: 632
Flags: HMW
HStem: 132 10.5G<215.75 266.25 215.75 215.75 382.75 433.25 382.75 382.75> 230.5 42<266.25 344.75 266.25 348.75> 351.5 44.5<266.25 348.75 266.25 266.25>
VStem: 215.75 50.5<132 230.5 272.5 351.5> 382.75 50.5<132 178 178 178 304.5 319.5 319.5 326.5>
LayerCount: 2
Fore
SplineSet
433.25 132 m 1
 382.75 132 l 1
 382.75 178 l 1
 344.75 230.5 l 1
 266.25 230.5 l 1
 266.25 132 l 1
 215.75 132 l 1
 215.75 396 l 1
 356.25 396 l 2
 409.75 396 433.25 377 433.25 326.5 c 2
 433.25 298.5 l 2
 433.25 259 415.25 246 393.25 239 c 1
 433.25 184.5 l 1
 433.25 132 l 1
266.25 272.5 m 1
 348.75 272.5 l 2
 371.25 272.5 382.75 275.5 382.75 304.5 c 2
 382.75 319.5 l 2
 382.75 343.5 376.75 351.5 348.75 351.5 c 2
 266.25 351.5 l 1
 266.25 272.5 l 1
EndSplineSet
Substitution2: "'ss01' Style Set 1 in Latin lookup 5 subtable" R.scalt1
Substitution2: "'salt' Stylistic Alternatives in Latin lookup 4 subtable" R.scalt1
Substitution2: "'aalt' Access All Alternates in Latin lookup 0 subtable" R.scalt1
EndChar

StartChar: S.sc
Encoding: 63347 63347 100
Width: 487
VWidth: 632
Flags: HMW
HStem: 132 42<262.5 348.25 299.75 348.25 348.25 350.75> 247.5 40<264.75 352.75 304.25 344.75> 354.5 41.5<298.25 300.75 300.75 349.25>
VStem: 214.25 48<195.5 205 205 205 315 318.5 318.5 324.5> 386.75 48<205 215.5 215.5 217 175.25 227 329.5 333.5>
LayerCount: 2
Fore
SplineSet
262.25 217 m 1
 262.25 205.5 l 2
 262.25 183.5 268.25 174 299.75 174 c 2
 348.25 174 l 2
 377.75 174 386.75 182 386.75 205 c 2
 386.75 215.5 l 2
 386.75 238.5 377.75 247.5 344.75 247.5 c 2
 293.75 247.5 l 2
 235.75 247.5 214.25 266 214.25 315 c 2
 214.25 327 l 2
 214.25 378 245.25 396 298.25 396 c 2
 356.25 396 l 2
 416.75 396 434.75 373.5 434.75 333.5 c 2
 434.75 329.5 l 1
 386.75 315.5 l 1
 386.75 324 l 2
 386.75 346 380.75 354.5 349.25 354.5 c 2
 300.75 354.5 l 2
 272.25 354.5 262.25 347 262.25 324.5 c 2
 262.25 318.5 l 2
 262.25 295.5 271.25 287.5 304.25 287.5 c 2
 352.75 287.5 l 2
 410.75 287.5 434.75 265.5 434.75 217 c 2
 434.75 200.5 l 2
 434.75 150 403.75 132 350.75 132 c 2
 292.75 132 l 2
 232.25 132 214.25 155.5 214.25 195.5 c 2
 214.25 205 l 1
 262.25 217 l 1
EndSplineSet
EndChar

StartChar: T.sc
Encoding: 63348 63348 101
Width: 487
VWidth: 632
Flags: HMW
HStem: 132 10.5G<299.5 350 299.5 299.5> 349.5 46.5<197.5 299.5 197.5 452.5 350 452.5 350 350>
VStem: 299.5 50.5<132 349.5 132 349.5>
LayerCount: 2
Fore
SplineSet
452.5 349.5 m 1
 350 349.5 l 1
 350 132 l 1
 299.5 132 l 1
 299.5 349.5 l 1
 197.5 349.5 l 1
 197.5 396 l 1
 452.5 396 l 1
 452.5 349.5 l 1
EndSplineSet
EndChar

StartChar: U.sc
Encoding: 63349 63349 102
Width: 487
VWidth: 632
Flags: HMW
HStem: 132 47<257 356.25 293.25 356.25 356.25 365.25> 386 10G<206.75 257.25 257.25 257.25 391.75 442.25 442.25 442.25>
VStem: 206.75 50.5<201 212 212 396> 391.75 50.5<212 396>
LayerCount: 2
Fore
SplineSet
442.25 396 m 1
 442.25 201 l 2
 442.25 150.5 418.75 132 365.25 132 c 2
 283.75 132 l 2
 230.25 132 206.75 150.5 206.75 201 c 2
 206.75 396 l 1
 257.25 396 l 1
 257.25 212 l 2
 257.25 188 264.75 179 293.25 179 c 2
 356.25 179 l 2
 384.25 179 391.75 188 391.75 212 c 2
 391.75 396 l 1
 442.25 396 l 1
EndSplineSet
EndChar

StartChar: V.sc
Encoding: 63350 63350 103
Width: 487
VWidth: 632
Flags: HMW
HStem: 132 10.5G<296.5 353.5 296.5 296.5> 386 10G<204 254.5 254.5 254.5 395.5 446 446 446>
VStem: 204 50.5<315.5 396 315.5 396 315.5 396> 395.5 50.5<315.5 396>
LayerCount: 2
Fore
SplineSet
446 307 m 1
 353.5 132 l 1
 296.5 132 l 1
 204 307 l 1
 204 396 l 1
 254.5 396 l 1
 254.5 315.5 l 1
 324 184 l 1
 325.5 184 l 1
 395.5 315.5 l 1
 395.5 396 l 1
 446 396 l 1
 446 307 l 1
EndSplineSet
Substitution2: "'ss01' Style Set 1 in Latin lookup 5 subtable" V.scalt1
Substitution2: "'salt' Stylistic Alternatives in Latin lookup 4 subtable" V.scalt1
Substitution2: "'aalt' Access All Alternates in Latin lookup 0 subtable" V.scalt1
EndChar

StartChar: W.sc
Encoding: 63351 63351 104
Width: 487
VWidth: 632
Flags: HMW
HStem: 132 10.5G<233.75 277.75 233.75 233.75 371.75 415.75 371.75 371.75> 386 10G<180.75 228.75 228.75 228.75 420.25 468.25 468.25 468.25>
VStem: 180.75 48<316.5 396 316.5 396 316.5 396> 420.25 48<316.5 396 312 396>
LayerCount: 2
Fore
SplineSet
310.25 380 m 1
 339.25 380 l 1
 390.25 211.5 l 1
 392.25 211.5 l 1
 420.25 316.5 l 1
 420.25 396 l 1
 468.25 396 l 1
 468.25 312 l 1
 415.75 132 l 1
 371.75 132 l 1
 325.75 282.5 l 1
 323.75 282.5 l 1
 277.75 132 l 1
 233.75 132 l 1
 180.75 312 l 1
 180.75 396 l 1
 228.75 396 l 1
 228.75 316.5 l 1
 257.25 211.5 l 1
 259.25 211.5 l 1
 310.25 380 l 1
EndSplineSet
Substitution2: "'ss01' Style Set 1 in Latin lookup 5 subtable" W.scalt1
Substitution2: "'salt' Stylistic Alternatives in Latin lookup 4 subtable" W.scalt1
Substitution2: "'aalt' Access All Alternates in Latin lookup 0 subtable" W.scalt1
EndChar

StartChar: X.sc
Encoding: 63352 63352 105
Width: 487
VWidth: 632
Flags: HMW
HStem: 132 10.5G<207.75 258.25 207.75 207.75 390.75 441.25 390.75 390.75> 386 10G<217.25 267.75 267.75 267.75 381.75 432.25 432.25 432.25>
VStem: 207.75 50.5<132 185 132 200.5 132 200.5> 217.25 50.5<346.5 396 346.5 396 346.5 396> 381.75 50.5<346.5 396 331.5 396> 390.75 50.5<132 185 185 185>
LayerCount: 2
Fore
SplineSet
324.75 297 m 1xe8
 381.75 346.5 l 1
 381.75 396 l 1
 432.25 396 l 1
 432.25 331.5 l 1
 358.75 270 l 1
 441.25 200.5 l 1xd8
 441.25 132 l 1
 390.75 132 l 1
 390.75 185 l 1
 324.75 240.5 l 1
 258.25 185 l 1
 258.25 132 l 1
 207.75 132 l 1
 207.75 200.5 l 1
 290.75 270 l 1
 217.25 331.5 l 1xe4
 217.25 396 l 1
 267.75 396 l 1
 267.75 346.5 l 1
 324.75 297 l 1xe8
EndSplineSet
Substitution2: "'ss01' Style Set 1 in Latin lookup 5 subtable" X.scalt1
Substitution2: "'salt' Stylistic Alternatives in Latin lookup 4 subtable" X.scalt1
Substitution2: "'aalt' Access All Alternates in Latin lookup 0 subtable" X.scalt1
EndChar

StartChar: Y.sc
Encoding: 63353 63353 106
Width: 487
VWidth: 632
Flags: HMW
HStem: 132 10.5G<299.25 349.75 299.25 299.25> 386 10G<203.25 253.75 253.75 253.75 395.25 445.75 445.75 445.75>
VStem: 203.25 50.5<330 396 330 396 330 396> 299.25 50.5<132 226 132 226> 395.25 50.5<330 396>
LayerCount: 2
Fore
SplineSet
445.75 313 m 1
 349.75 226 l 1
 349.75 132 l 1
 299.25 132 l 1
 299.25 226 l 1xd0
 203.25 313 l 1
 203.25 396 l 1
 253.75 396 l 1
 253.75 330 l 1
 324.75 265 l 1
 395.25 330 l 1
 395.25 396 l 1
 445.75 396 l 1
 445.75 313 l 1
EndSplineSet
Substitution2: "'ss01' Style Set 1 in Latin lookup 5 subtable" Y.scalt1
Substitution2: "'salt' Stylistic Alternatives in Latin lookup 4 subtable" Y.scalt1
Substitution2: "'aalt' Access All Alternates in Latin lookup 0 subtable" Y.scalt1
EndChar

StartChar: Z.sc
Encoding: 63354 63354 107
Width: 487
VWidth: 632
Flags: HMW
HStem: 132 47<274.75 439.75 274.75 439.75> 349.5 46.5<218.75 368.75 218.75 433.75>
LayerCount: 2
Fore
SplineSet
439.75 132 m 1
 209.25 132 l 1
 209.25 174 l 1
 368.75 349 l 1
 368.75 349.5 l 1
 218.75 349.5 l 1
 218.75 396 l 1
 433.75 396 l 1
 433.75 353.5 l 1
 274.75 179.5 l 1
 274.75 179 l 1
 439.75 179 l 1
 439.75 132 l 1
EndSplineSet
EndChar

StartChar: A.scalt1
Encoding: 57356 57356 108
Width: 487
VWidth: 632
Flags: HMW
HStem: 132 10.5G<183.25 239.25 183.25 183.25 410.25 465.75 410.25 410.25> 193.5 40<277.25 372.25 277.25 384.25 265.25 372.25> 386 10G<296.25 353.25 353.25 353.25>
LayerCount: 2
Fore
SplineSet
353.25 396 m 1
 465.75 132 l 1
 410.25 132 l 1
 384.25 193.5 l 1
 265.25 193.5 l 1
 239.25 132 l 1
 183.25 132 l 1
 296.25 396 l 1
 353.25 396 l 1
323.75 344 m 1
 277.25 233.5 l 1
 372.25 233.5 l 1
 325.75 344 l 1
 323.75 344 l 1
EndSplineSet
EndChar

StartChar: K.scalt1
Encoding: 65553 -1 109
Width: 498
VWidth: 632
Flags: HMW
HStem: 132 10.5G<222.75 273.25 222.75 222.75 407.75 470.25 407.75 407.75> 386 10G<222.75 273.25 273.25 273.25 398.25 462.25 462.25 462.25>
VStem: 222.75 50.5<132 208.5 272 396>
LayerCount: 2
Fore
SplineSet
470.25 132 m 1
 407.75 132 l 1
 317.75 251 l 1
 273.25 208.5 l 1
 273.25 132 l 1
 222.75 132 l 1
 222.75 396 l 1
 273.25 396 l 1
 273.25 272 l 1
 274.75 272 l 1
 398.25 396 l 1
 462.25 396 l 1
 352.75 283.5 l 1
 470.25 132 l 1
EndSplineSet
EndChar

StartChar: R.scalt1
Encoding: 65554 -1 110
Width: 492
VWidth: 632
Flags: HMW
HStem: 132 10.5G<221.25 271.75 221.25 221.25 394.25 449.75 394.25 394.25> 230.5 42<271.75 342.25 271.75 353.25> 351.5 44.5<271.75 353.25 271.75 271.75>
VStem: 221.25 50.5<132 230.5 272.5 351.5> 387.25 50.5<307 319.5 319.5 326.5 282 331.5>
LayerCount: 2
Fore
SplineSet
449.75 132 m 1
 394.25 132 l 1
 342.25 230.5 l 1
 271.75 230.5 l 1
 271.75 132 l 1
 221.25 132 l 1
 221.25 396 l 1
 360.75 396 l 2
 414.25 396 437.75 377 437.75 326.5 c 2
 437.75 301 l 2
 437.75 263 426.75 242.5 391.25 238 c 1
 449.75 132 l 1
271.75 272.5 m 1
 353.25 272.5 l 2
 382.25 272.5 387.25 282 387.25 307 c 2
 387.25 319.5 l 2
 387.25 343.5 381.25 351.5 353.25 351.5 c 2
 271.75 351.5 l 1
 271.75 272.5 l 1
EndSplineSet
EndChar

StartChar: V.scalt1
Encoding: 65555 -1 111
Width: 487
VWidth: 632
Flags: HMW
HStem: 132 10.5G<297.5 352.5 297.5 297.5> 386 10G<197 250 250 250 400 453 453 453>
LayerCount: 2
Fore
SplineSet
400 396 m 1
 453 396 l 1
 352.5 132 l 1
 297.5 132 l 1
 197 396 l 1
 250 396 l 1
 324 194.5 l 1
 325.5 194.5 l 1
 400 396 l 1
EndSplineSet
EndChar

StartChar: W.scalt1
Encoding: 65556 -1 112
Width: 487
VWidth: 632
Flags: HMW
HStem: 132 10.5G<233 278.5 233 233 371.5 416.5 371.5 371.5> 370 10G<311.5 338 338 338>
LayerCount: 2
Fore
SplineSet
311.5 380 m 1
 338 380 l 1
 387.5 215.5 l 1
 389.5 215.5 l 1
 422.5 396 l 1
 472 396 l 1
 416.5 132 l 1
 371.5 132 l 1
 326 281.5 l 1
 324 281.5 l 1
 278.5 132 l 1
 233 132 l 1
 178 396 l 1
 227 396 l 1
 260.5 215.5 l 1
 262.5 215.5 l 1
 311.5 380 l 1
EndSplineSet
EndChar

StartChar: X.scalt1
Encoding: 65557 -1 113
Width: 487
VWidth: 632
Flags: HMW
HStem: 132 10.5G<198.25 256.25 198.25 198.25 394.75 452.75 394.75 394.75> 386 10G<209.25 266.25 266.25 266.25 384.75 442.25 442.25 442.25>
LayerCount: 2
Fore
SplineSet
325.75 306 m 1
 384.75 396 l 1
 442.25 396 l 1
 357.75 272 l 1
 452.75 132 l 1
 394.75 132 l 1
 325.75 235.5 l 1
 256.25 132 l 1
 198.25 132 l 1
 293.75 272 l 1
 209.25 396 l 1
 266.25 396 l 1
 325.75 306 l 1
EndSplineSet
EndChar

StartChar: Y.scalt1
Encoding: 65558 -1 114
Width: 487
VWidth: 632
Flags: HMW
HStem: 132 10.5G<299.25 349.75 299.25 299.25> 386 10G<188.75 248.25 248.25 248.25 400.75 460.25 460.25 460.25>
VStem: 299.25 50.5<132 252.5 132 252.5>
LayerCount: 2
Fore
SplineSet
460.25 396 m 1
 349.75 252.5 l 1
 349.75 132 l 1
 299.25 132 l 1
 299.25 252.5 l 1
 188.75 396 l 1
 248.25 396 l 1
 324.75 295 l 1
 400.75 396 l 1
 460.25 396 l 1
EndSplineSet
EndChar

StartChar: zero.sc
Encoding: 65559 -1 115
Width: 487
VWidth: 632
Flags: HMW
HStem: 132 47<262.75 352.25 296.75 352.25 352.25 358.75> 349.5 46.5<290.25 296.75 296.75 352.25>
VStem: 208.25 50.5<205 214.5 214.5 314> 390.25 50.5<214.5 314 314 323>
LayerCount: 2
Fore
SplineSet
358.75 132 m 2
 290.25 132 l 2
 235.25 132 208.25 153.5 208.25 205 c 2
 208.25 323 l 2
 208.25 374.5 235.25 396 290.25 396 c 2
 358.75 396 l 2
 413.75 396 440.75 374.5 440.75 323 c 2
 440.75 205 l 2
 440.75 153.5 413.75 132 358.75 132 c 2
296.75 179 m 2
 352.25 179 l 2
 382.25 179 390.25 189.5 390.25 214.5 c 2
 390.25 314 l 2
 390.25 339 382.25 349.5 352.25 349.5 c 2
 296.75 349.5 l 2
 266.75 349.5 258.75 339 258.75 314 c 2
 258.75 214.5 l 2
 258.75 189.5 266.75 179 296.75 179 c 2
EndSplineSet
EndChar

StartChar: one.sc
Encoding: 65560 -1 116
Width: 487
VWidth: 632
Flags: HMW
HStem: 132 47<204.75 304.25 354.75 444.25 204.75 304.25> 349.5 46.5<220.75 304.25 220.75 354.75>
VStem: 304.25 50.5<179 349.5 349.5 349.5>
LayerCount: 2
Fore
SplineSet
354.75 396 m 1
 354.75 179 l 1
 444.25 179 l 1
 444.25 132 l 1
 204.75 132 l 1
 204.75 179 l 1
 304.25 179 l 1
 304.25 349.5 l 1
 220.75 349.5 l 1
 220.75 396 l 1
 354.75 396 l 1
EndSplineSet
EndChar

StartChar: two.sc
Encoding: 65561 -1 117
Width: 487
VWidth: 632
Flags: HMW
HStem: 132 46<297.25 437.25 297.25 437.25> 351 45<289.75 299.25 299.25 350.25>
VStem: 212.75 50.5<315 318 301.5 325.5 301.5 351> 384.75 50.5<317 320 320 322.5 322.5 332.25>
LayerCount: 2
Fore
SplineSet
437.25 132 m 1
 211.75 132 l 1
 211.75 168 l 1
 365.25 284.5 l 2
 378.75 295.5 384.75 304 384.75 317 c 2
 384.75 322.5 l 2
 384.75 342 377.75 351 350.25 351 c 2
 299.25 351 l 2
 270.75 351 263.25 342 263.25 318 c 2
 263.25 301.5 l 1
 212.75 315 l 1
 212.75 325.5 l 2
 212.75 376.5 235.75 396 289.75 396 c 2
 356.75 396 l 2
 409.25 396 435.25 377 435.25 334 c 2
 435.25 320 l 2
 435.25 295 427.75 278 403.75 261 c 2
 297.25 179 l 1
 297.25 178 l 1
 437.25 178 l 1
 437.25 132 l 1
EndSplineSet
EndChar

StartChar: three.sc
Encoding: 65562 -1 118
Width: 487
VWidth: 632
Flags: HMW
HStem: 132 42<266.5 355.5 298 355.5 355.5 359> 247.5 37.5<295 355.5 295 355.5> 354.5 41.5<294 298 298 355.5>
VStem: 212 49.5<199.5 206.5 206.5 206.5> 387 49<203 213.5 172.25 218.5 172.25 228.75 314 320 320 325.5 325.5 332.5>
LayerCount: 2
Fore
SplineSet
212 206.5 m 1
 261.5 220.5 l 1
 261.5 207.5 l 2
 261.5 185 268.5 174 298 174 c 2
 355.5 174 l 2
 381.5 174 387 182 387 203 c 2
 387 218.5 l 2
 387 239 380.5 247.5 355.5 247.5 c 2
 295 247.5 l 1
 295 285 l 1
 355.5 285 l 2
 380.5 285 387 293 387 314 c 2
 387 325.5 l 2
 387 346.5 381.5 354.5 355.5 354.5 c 2
 298 354.5 l 2
 268.5 354.5 261.5 344 261.5 321.5 c 2
 261.5 309.5 l 1
 212 322 l 1
 212 330 l 2
 212 379 239 396 294 396 c 2
 359 396 l 2
 413 396 436 380.5 436 332.5 c 2
 436 320 l 2
 436 289.5 427 274.5 404 267.5 c 1
 428 261 436 246 436 213.5 c 2
 436 197 l 2
 436 147.5 413 132 359 132 c 2
 294 132 l 2
 239 132 212 149 212 199.5 c 2
 212 206.5 l 1
EndSplineSet
EndChar

StartChar: four.sc
Encoding: 65563 -1 119
Width: 487
VWidth: 632
Flags: HMW
HStem: 132 10.5G<351.75 399.75 351.75 351.75> 194 42.5<254.75 351.75 254.75 351.75 399.75 454.75> 386 10G<340.25 399.75 399.75 399.75>
VStem: 351.75 48<132 194 132 194 236.5 339.5 339.5 339.5>
LayerCount: 2
Fore
SplineSet
454.75 194 m 1
 399.75 194 l 1
 399.75 132 l 1
 351.75 132 l 1
 351.75 194 l 1
 194.25 194 l 1
 194.25 235.5 l 1
 340.25 396 l 1
 399.75 396 l 1
 399.75 236.5 l 1
 454.75 236.5 l 1
 454.75 194 l 1
351.75 236.5 m 1
 351.75 339.5 l 1
 350.75 339.5 l 1
 254.75 237.5 l 1
 254.75 236.5 l 1
 351.75 236.5 l 1
EndSplineSet
EndChar

StartChar: five.sc
Encoding: 65564 -1 120
Width: 486
VWidth: 632
Flags: HMW
HStem: 132 42<264.75 351.25 296.25 351.25 351.25 355.25> 259.5 38.5<289.5 357.25 314.75 351.25> 354.5 41.5<262.75 426.75 262.75 262.75>
VStem: 214.75 48<193.75 198 198 198 234 243 283 354.5> 384.25 48<203 230 230 231.5 176.25 240.5>
LayerCount: 2
Fore
SplineSet
432.25 231.5 m 2
 432.25 201.5 l 2
 432.25 151 408.75 132 355.25 132 c 2
 294.25 132 l 2
 235.25 132 214.75 155.5 214.75 192 c 2
 214.75 198 l 1
 262.75 209 l 1
 262.75 202.5 l 2
 262.75 185 268.25 174 296.25 174 c 2
 351.25 174 l 2
 378.25 174 384.25 182.5 384.25 203 c 2
 384.25 230 l 2
 384.25 251 377.25 259.5 351.25 259.5 c 2
 299.75 259.5 l 2
 279.25 259.5 262.75 252 262.75 234 c 1
 214.75 234 l 1
 214.75 396 l 1
 426.75 396 l 1
 426.75 354.5 l 1
 262.75 354.5 l 1
 262.75 283 l 1
 271.25 291.5 287.75 298 314.75 298 c 2
 357.25 298 l 2
 418.25 298 432.25 273 432.25 231.5 c 2
EndSplineSet
EndChar

StartChar: six.sc
Encoding: 65565 -1 121
Width: 488
VWidth: 632
Flags: HMW
HStem: 132 42<266.5 356 296 356 356 360> 254.5 39<285 363.5 312 356> 354.5 41.5<295.5 301 301 357>
VStem: 214.5 48<204 205.5 205.5 227 280.5 318> 391.5 48<205.5 223 223 225.5 178.25 234 326 335.25>
LayerCount: 2
Fore
SplineSet
439.5 225.5 m 2
 439.5 204 l 2
 439.5 152.5 415 132 360 132 c 2
 294 132 l 2
 239 132 214.5 152.5 214.5 204 c 2
 214.5 320 l 2
 214.5 370.5 242.5 396 295.5 396 c 2
 360 396 l 2
 415 396 439.5 375 439.5 335.5 c 2
 439.5 326 l 1
 391.5 313 l 1
 391.5 324.5 l 2
 391.5 346 384.5 354.5 357 354.5 c 2
 301 354.5 l 2
 271 354.5 262.5 342.5 262.5 318 c 2
 262.5 280.5 l 1
 271.5 288.5 288.5 293.5 312 293.5 c 2
 363.5 293.5 l 2
 423.5 293.5 439.5 269.5 439.5 225.5 c 2
391.5 205.5 m 2
 391.5 223 l 2
 391.5 245 384.5 254.5 356 254.5 c 2
 299.5 254.5 l 2
 270.5 254.5 262.5 245 262.5 227 c 2
 262.5 205.5 l 2
 262.5 184 268.5 174 296 174 c 2
 356 174 l 2
 384.5 174 391.5 183.5 391.5 205.5 c 2
EndSplineSet
EndChar

StartChar: seven.sc
Encoding: 65566 -1 122
Width: 487
VWidth: 632
Flags: HMW
HStem: 132 10.5G<261.75 319.75 261.75 261.75> 349.5 46.5<213.25 379.25 213.25 435.75>
LayerCount: 2
Fore
SplineSet
435.75 352.5 m 1
 319.75 132 l 1
 261.75 132 l 1
 379.25 349.5 l 1
 213.25 349.5 l 1
 213.25 396 l 1
 435.75 396 l 1
 435.75 352.5 l 1
EndSplineSet
EndChar

StartChar: eight.sc
Encoding: 65567 -1 123
Width: 487
VWidth: 632
Flags: HMW
HStem: 132 41<265.25 354 294.5 354 354 356> 247 37.5<282 354 294.5 354> 355 41<292 294.5 294.5 354>
VStem: 215 48<196.5 202.5 202.5 216 216 217.5 192.25 231.25 316 325.5> 385 48<202.5 216 174.75 217.5 174.75 228 314 316 316 325.5 325.5 333.5>
LayerCount: 2
Fore
SplineSet
433 216 m 2
 433 196.5 l 2
 433 153 410 132 356 132 c 2
 292 132 l 2
 238.5 132 215 153 215 196.5 c 2
 215 216 l 2
 215 246.5 224 259 246 267 c 1
 224 274.5 215 286 215 316 c 2
 215 333.5 l 2
 215 375 236 396 292 396 c 2
 356 396 l 2
 412 396 433 375 433 333.5 c 2
 433 316 l 2
 433 286 424 274.5 402 267 c 1
 424 259 433 246.5 433 216 c 2
385 314 m 2
 385 325.5 l 2
 385 346.5 379.5 355 354 355 c 2
 294.5 355 l 2
 268.5 355 263 346.5 263 325.5 c 2
 263 314 l 2
 263 293 269.5 284.5 294.5 284.5 c 2
 354 284.5 l 2
 378.5 284.5 385 293 385 314 c 2
385 202.5 m 2
 385 217.5 l 2
 385 238.5 378.5 247 354 247 c 2
 294.5 247 l 2
 269.5 247 263 238.5 263 217.5 c 2
 263 202.5 l 2
 263 182 268.5 173 294.5 173 c 2
 354 173 l 2
 379.5 173 385 182 385 202.5 c 2
EndSplineSet
EndChar

StartChar: nine.sc
Encoding: 65568 -1 124
Width: 487
VWidth: 632
Flags: HMW
HStem: 132 42<266.5 349.25 297.25 349.25 349.25 354.75> 237 38.5<258.25 349.25 298.25 340.75> 354.5 41.5<294.25 298.25 298.25 352.75>
VStem: 214.75 48<193.25 200.5 200.5 200.5 305.5 307.5 307.5 323> 386.25 48<207.5 250.5 250.5 250.5 303.5 323 323 324>
LayerCount: 2
Fore
SplineSet
214.75 305.5 m 2
 214.75 324 l 2
 214.75 375 239.25 396 294.25 396 c 2
 354.75 396 l 2
 409.75 396 434.25 375.5 434.25 324 c 2
 434.25 203.5 l 2
 434.25 152.5 409.75 132 354.75 132 c 2
 293.75 132 l 2
 239.25 132 214.75 152.5 214.75 192.5 c 2
 214.75 200.5 l 1
 262.75 213.5 l 1
 262.75 204 l 2
 262.75 182.5 269.25 174 297.25 174 c 2
 349.25 174 l 2
 378.25 174 386.25 184 386.25 207.5 c 2
 386.25 250.5 l 1
 377.75 242 364.25 237 340.75 237 c 2
 288.25 237 l 2
 228.25 237 214.75 261 214.75 305.5 c 2
262.75 323 m 2
 262.75 307.5 l 2
 262.75 285.5 269.75 275.5 298.25 275.5 c 2
 349.25 275.5 l 2
 378.75 275.5 386.25 285 386.25 303.5 c 2
 386.25 323 l 2
 386.25 344.5 380.25 354.5 352.75 354.5 c 2
 298.25 354.5 l 2
 269.75 354.5 262.75 345 262.75 323 c 2
EndSplineSet
EndChar

StartChar: dieresis
Encoding: 168 168 125
Width: 487
VWidth: 835
Flags: HMW
HStem: 649.25 42.5<254.25 303.25 254.25 303.25 346.25 394.75>
VStem: 254.25 49<649.25 691.75 649.25 691.75> 346.25 48.5<649.25 691.75 649.25 691.75>
LayerCount: 2
Fore
SplineSet
303.25 649.25 m 1
 254.25 649.25 l 1
 254.25 691.75 l 1
 303.25 691.75 l 1
 303.25 649.25 l 1
394.75 649.25 m 1
 346.25 649.25 l 1
 346.25 691.75 l 1
 394.75 691.75 l 1
 394.75 649.25 l 1
EndSplineSet
EndChar

StartChar: acute
Encoding: 180 180 126
Width: 487
VWidth: 839
Flags: HMW
HStem: 647.5 10.5G<275.75 325.25 275.75 275.75> 698.5 10G<324.25 373.25 373.25 373.25>
VStem: 275.75 97.5<647.5 708.5>
LayerCount: 2
Fore
SplineSet
373.25 708.5 m 1
 325.25 647.5 l 1
 275.75 647.5 l 1
 324.25 708.5 l 1
 373.25 708.5 l 1
EndSplineSet
EndChar

StartChar: grave
Encoding: 96 96 127
Width: 487
VWidth: 839
Flags: HMW
HStem: 646.5 10.5G 702 10G
VStem: 279.25 104.5
LayerCount: 2
Fore
SplineSet
323.75 647.5 m 1
 275.75 708.5 l 1
 324.75 708.5 l 1
 373.25 647.5 l 1
 323.75 647.5 l 1
EndSplineSet
EndChar

StartChar: circumflex
Encoding: 710 710 128
Width: 487
VWidth: 839
Flags: HMW
HStem: 646.5 10.5G<253 253 253 299 351 351 351 397> 699.5 10G<304.5 345 345 345>
VStem: 253 144<646.5 646.5>
LayerCount: 2
Fore
SplineSet
253 646.5 m 1
 304.5 709.5 l 1
 345 709.5 l 1
 397 646.5 l 1
 351 646.5 l 1
 326.5 679 l 1
 323 679 l 1
 299 646.5 l 1
 253 646.5 l 1
EndSplineSet
EndChar

StartChar: caron
Encoding: 711 711 129
Width: 487
VWidth: 839
Flags: HMW
HStem: 646.5 10.5G<304.5 304.5 304.5 345> 702 10G
VStem: 241 167.5
LayerCount: 2
Fore
SplineSet
304.5 646.5 m 1
 253 709.5 l 1
 299 709.5 l 1
 323.5 677 l 1
 326.5 677 l 1
 351 709.5 l 1
 397 709.5 l 1
 345 646.5 l 1
 304.5 646.5 l 1
EndSplineSet
EndChar

StartChar: tilde
Encoding: 732 732 130
Width: 487
VWidth: 839
Flags: HMW
HStem: 647.5 36.5<340.5 356.25 340.5 371.75> 672 36.5<292.75 308.5>
VStem: 243.25 162.5<649 707>
LayerCount: 2
Fore
SplineSet
368.25 707 m 1xa0
 405.75 707 l 1
 405.75 675 389.75 647.5 353.75 647.5 c 0xa0
 322.75 647.5 318.25 672 298.75 672 c 0
 286.75 672 280.75 664.5 280.75 649 c 1
 243.25 649 l 1
 243.25 681 259.25 708.5 295.25 708.5 c 0x60
 326.25 708.5 330.75 684 350.25 684 c 0
 362.25 684 368.25 691.5 368.25 707 c 1xa0
EndSplineSet
EndChar

StartChar: macron
Encoding: 175 175 131
Width: 487
VWidth: 835
Flags: HMW
HStem: 652.25 36.5<252 398 252 398>
VStem: 252 146<652.25 688.75 652.25 688.75>
LayerCount: 2
Fore
SplineSet
398 652.25 m 1
 252 652.25 l 1
 252 688.75 l 1
 398 688.75 l 1
 398 652.25 l 1
EndSplineSet
EndChar

StartChar: cedilla
Encoding: 184 184 132
Width: 487
VWidth: 448
Flags: HMW
HStem: -136.25 33<283.5 314 314 323 269.5 314> -78.75 10G<340 380.5 380.5 380.5>
VStem: 340 40.5<-77.75 -68.75 -101.25 -68.75>
LayerCount: 2
Fore
SplineSet
340 -68.75 m 1
 380.5 -68.75 l 1
 380.5 -83.75 l 2
 380.5 -118.75 367 -136.25 323 -136.25 c 2
 269.5 -136.25 l 1
 283.5 -103.25 l 1
 314 -103.25 l 2
 335 -103.25 340 -96.25 340 -77.75 c 2
 340 -68.75 l 1
EndSplineSet
EndChar

StartChar: ring
Encoding: 730 730 133
Width: 487
VWidth: 840
Flags: HMW
HStem: 633.75 25.5<318 330.5 318 337.75> 701.75 25.5<318 330.5>
VStem: 276 27<674.25 686.75 674.25 694> 345.5 26.5<674.25 686.75>
LayerCount: 2
Fore
SplineSet
303 680.25 m 0
 303 668.25 312 659.25 324 659.25 c 0
 337 659.25 345.5 668.25 345.5 680.25 c 0
 345.5 693.25 337 701.75 324 701.75 c 0
 312 701.75 303 693.25 303 680.25 c 0
276 680.25 m 0
 276 707.75 296.5 727.25 324 727.25 c 0
 351.5 727.25 372 707.75 372 680.25 c 0
 372 653.25 351.5 633.75 324 633.75 c 0
 296.5 633.75 276 653.25 276 680.25 c 0
EndSplineSet
EndChar

StartChar: Adieresis
Encoding: 196 196 134
Width: 487
VWidth: 712
Flags: HMW
HStem: 212 10.5G<186 236.5 186 186 413.5 464 413.5 413.5> 318 45<265.5 384 265.5 400 249.5 384> 544 10G<299 351 351 351> 593.5 42.5<254.5 303.5 254.5 303.5 346.5 395>
VStem: 186 63.5<212 318 298 318> 254.5 49<593.5 636 593.5 636> 346.5 48.5<593.5 636 593.5 636> 413.5 50.5<212 289.5 289.5 289.5>
LayerCount: 2
Fore
SplineSet
351 554 m 1
 464 298 l 1
 464 212 l 1
 413.5 212 l 1
 413.5 289.5 l 1
 400 318 l 1
 249.5 318 l 1
 236.5 289.5 l 1
 236.5 212 l 1
 186 212 l 1
 186 298 l 1
 299 554 l 1
 351 554 l 1
324 496 m 1
 265.5 363 l 1
 384 363 l 1
 326 496 l 1
 324 496 l 1
303.5 593.5 m 1x16
 254.5 593.5 l 1
 254.5 636 l 1
 303.5 636 l 1
 303.5 593.5 l 1x16
395 593.5 m 1
 346.5 593.5 l 1
 346.5 636 l 1
 395 636 l 1
 395 593.5 l 1
EndSplineSet
Substitution2: "'ss01' Style Set 1 in Latin lookup 5 subtable" Adieresis.alt1
Substitution2: "'salt' Stylistic Alternatives in Latin lookup 4 subtable" Adieresis.alt1
Substitution2: "'c2sc' Capitals to Small Capitals in Latin lookup 2 subtable" Adieresis.sc
AlternateSubs2: "'aalt' Access All Alternates in Latin lookup 1 subtable" Adieresis.sc Adieresis.alt1
EndChar

StartChar: Aacute
Encoding: 193 193 135
Width: 487
VWidth: 716
Flags: HMW
HStem: 216.25 10.5G<186 236.5 186 186 413.5 464 413.5 413.5> 322.25 45<265.5 384 265.5 400 249.5 384> 548.25 10G<299 351 351 351> 587.75 10.5G<291 340.5 291 291> 638.75 10G<339.5 388.5 388.5 388.5>
VStem: 186 63.5<216.25 322.25 302.25 322.25> 291 97.5<587.75 648.75> 413.5 50.5<216.25 293.75 293.75 293.75>
LayerCount: 2
Fore
SplineSet
351 558.25 m 1
 464 302.25 l 1
 464 216.25 l 1
 413.5 216.25 l 1
 413.5 293.75 l 1
 400 322.25 l 1
 249.5 322.25 l 1
 236.5 293.75 l 1
 236.5 216.25 l 1
 186 216.25 l 1
 186 302.25 l 1
 299 558.25 l 1
 351 558.25 l 1
324 500.25 m 1
 265.5 367.25 l 1
 384 367.25 l 1
 326 500.25 l 1
 324 500.25 l 1
388.5 648.75 m 1x1a
 340.5 587.75 l 1
 291 587.75 l 1
 339.5 648.75 l 1
 388.5 648.75 l 1x1a
EndSplineSet
Substitution2: "'ss01' Style Set 1 in Latin lookup 5 subtable" Aacute.alt1
Substitution2: "'salt' Stylistic Alternatives in Latin lookup 4 subtable" Aacute.alt1
Substitution2: "'c2sc' Capitals to Small Capitals in Latin lookup 2 subtable" Aacute.sc
AlternateSubs2: "'aalt' Access All Alternates in Latin lookup 1 subtable" Aacute.sc Aacute.alt1
EndChar

StartChar: Agrave
Encoding: 192 192 136
Width: 487
VWidth: 716
Flags: HMW
HStem: 216.25 10.5G<186 236.5 186 186 413.5 464 413.5 413.5> 322.25 45<265.5 384 265.5 400 249.5 384> 548.25 10G<299 351 351 351> 586.75 10.5G 642.25 10G
VStem: 186 63.5<216.25 322.25 302.25 322.25> 264.5 104.5 413.5 50.5<216.25 293.75 293.75 293.75>
LayerCount: 2
Fore
SplineSet
351 558.25 m 1
 464 302.25 l 1
 464 216.25 l 1
 413.5 216.25 l 1
 413.5 293.75 l 1
 400 322.25 l 1
 249.5 322.25 l 1
 236.5 293.75 l 1
 236.5 216.25 l 1
 186 216.25 l 1
 186 302.25 l 1
 299 558.25 l 1
 351 558.25 l 1
324 500.25 m 1
 265.5 367.25 l 1
 384 367.25 l 1
 326 500.25 l 1
 324 500.25 l 1
309 587.75 m 1
 261 648.75 l 1xc1
 310 648.75 l 1
 358.5 587.75 l 1
 309 587.75 l 1
EndSplineSet
Substitution2: "'ss01' Style Set 1 in Latin lookup 5 subtable" Agrave.alt1
Substitution2: "'salt' Stylistic Alternatives in Latin lookup 4 subtable" Agrave.alt1
Substitution2: "'c2sc' Capitals to Small Capitals in Latin lookup 2 subtable" Agrave.sc
AlternateSubs2: "'aalt' Access All Alternates in Latin lookup 1 subtable" Agrave.sc Agrave.alt1
EndChar

StartChar: Acircumflex
Encoding: 194 194 137
Width: 487
VWidth: 716
Flags: HMW
HStem: 216.75 10.5G<186 236.5 186 186 413.5 464 413.5 413.5> 322.75 45<265.5 384 265.5 400 249.5 384> 548.75 10G<299 351 351 351> 587.25 10.5G<253 253 253 299 351 351 351 397> 640.25 10G<304.5 345 345 345>
VStem: 186 63.5<216.75 322.75 302.75 322.75> 253 144<587.25 587.25> 413.5 50.5<216.75 294.25 294.25 294.25>
LayerCount: 2
Fore
SplineSet
351 558.75 m 1
 464 302.75 l 1
 464 216.75 l 1
 413.5 216.75 l 1
 413.5 294.25 l 1
 400 322.75 l 1
 249.5 322.75 l 1
 236.5 294.25 l 1
 236.5 216.75 l 1
 186 216.75 l 1
 186 302.75 l 1
 299 558.75 l 1
 351 558.75 l 1
324 500.75 m 1
 265.5 367.75 l 1
 384 367.75 l 1
 326 500.75 l 1
 324 500.75 l 1
253 587.25 m 1
 304.5 650.25 l 1x1a
 345 650.25 l 1
 397 587.25 l 1
 351 587.25 l 1
 326.5 619.75 l 1
 323 619.75 l 1
 299 587.25 l 1
 253 587.25 l 1
EndSplineSet
Substitution2: "'ss01' Style Set 1 in Latin lookup 5 subtable" Acircumflex.alt1
Substitution2: "'salt' Stylistic Alternatives in Latin lookup 4 subtable" Acircumflex.alt1
Substitution2: "'c2sc' Capitals to Small Capitals in Latin lookup 2 subtable" Acircumflex.sc
AlternateSubs2: "'aalt' Access All Alternates in Latin lookup 1 subtable" Acircumflex.sc Acircumflex.alt1
EndChar

StartChar: Atilde
Encoding: 195 195 138
Width: 487
VWidth: 717
Flags: HMW
HStem: 217.25 10.5G<186 236.5 186 186 413.5 464 413.5 413.5> 323.25 45<265.5 384 265.5 400 249.5 384> 549.25 10G<299 351 351 351> 590.75 36.5<340.75 356.5 340.75 372> 615.25 36.5<293 308.75>
VStem: 186 63.5<217.25 323.25 303.25 323.25> 243.5 162.5<592.25 650.25> 413.5 50.5<217.25 294.75 294.75 294.75>
LayerCount: 2
Fore
SplineSet
351 559.25 m 1xe5
 464 303.25 l 1
 464 217.25 l 1
 413.5 217.25 l 1
 413.5 294.75 l 1
 400 323.25 l 1
 249.5 323.25 l 1
 236.5 294.75 l 1
 236.5 217.25 l 1
 186 217.25 l 1
 186 303.25 l 1
 299 559.25 l 1
 351 559.25 l 1xe5
324 501.25 m 1
 265.5 368.25 l 1
 384 368.25 l 1
 326 501.25 l 1
 324 501.25 l 1
368.5 650.25 m 1x12
 406 650.25 l 1
 406 618.25 390 590.75 354 590.75 c 0x12
 323 590.75 318.5 615.25 299 615.25 c 0
 287 615.25 281 607.75 281 592.25 c 1
 243.5 592.25 l 1
 243.5 624.25 259.5 651.75 295.5 651.75 c 0x0a
 326.5 651.75 331 627.25 350.5 627.25 c 0
 362.5 627.25 368.5 634.75 368.5 650.25 c 1x12
EndSplineSet
Substitution2: "'ss01' Style Set 1 in Latin lookup 5 subtable" Atilde.alt1
Substitution2: "'salt' Stylistic Alternatives in Latin lookup 4 subtable" Atilde.alt1
Substitution2: "'c2sc' Capitals to Small Capitals in Latin lookup 2 subtable" Atilde.sc
AlternateSubs2: "'aalt' Access All Alternates in Latin lookup 1 subtable" Atilde.sc Atilde.alt1
EndChar

StartChar: Amacron
Encoding: 256 256 139
Width: 487
VWidth: 709
Flags: HMW
HStem: 209.75 10.5G<186 236.5 186 186 413.5 464 413.5 413.5> 315.75 45<265.5 384 265.5 400 249.5 384> 541.75 10G<299 351 351 351> 592.75 36.5<252 398 252 398>
VStem: 186 63.5<209.75 315.75 295.75 315.75> 252 146<592.75 629.25 592.75 629.25> 413.5 50.5<209.75 287.25 287.25 287.25>
LayerCount: 2
Fore
SplineSet
351 551.75 m 1
 464 295.75 l 1
 464 209.75 l 1
 413.5 209.75 l 1
 413.5 287.25 l 1
 400 315.75 l 1
 249.5 315.75 l 1
 236.5 287.25 l 1
 236.5 209.75 l 1
 186 209.75 l 1
 186 295.75 l 1
 299 551.75 l 1
 351 551.75 l 1
324 493.75 m 1
 265.5 360.75 l 1
 384 360.75 l 1
 326 493.75 l 1
 324 493.75 l 1
398 592.75 m 1x14
 252 592.75 l 1
 252 629.25 l 1
 398 629.25 l 1
 398 592.75 l 1x14
EndSplineSet
Substitution2: "'ss01' Style Set 1 in Latin lookup 5 subtable" Amacron.alt1
Substitution2: "'salt' Stylistic Alternatives in Latin lookup 4 subtable" Amacron.alt1
Substitution2: "'c2sc' Capitals to Small Capitals in Latin lookup 2 subtable" Amacron.sc
AlternateSubs2: "'aalt' Access All Alternates in Latin lookup 1 subtable" Amacron.sc Amacron.alt1
EndChar

StartChar: Edieresis
Encoding: 203 203 140
Width: 488
VWidth: 712
Flags: HMW
HStem: 212 47<262 442.5 262 442.5> 364 45.5<262 413.5 262 413.5> 507.5 46.5<262 442.5 262 262> 593.5 42.5<255.5 304.5 255.5 304.5 347.5 396>
VStem: 211.5 50.5<259 364 409.5 507.5> 255.5 49<593.5 636 593.5 636> 347.5 48.5<593.5 636 593.5 636>
LayerCount: 2
Fore
SplineSet
442.5 212 m 1xe8
 211.5 212 l 1
 211.5 554 l 1
 442.5 554 l 1
 442.5 507.5 l 1
 262 507.5 l 1
 262 409.5 l 1
 413.5 409.5 l 1
 413.5 364 l 1
 262 364 l 1
 262 259 l 1
 442.5 259 l 1
 442.5 212 l 1xe8
304.5 593.5 m 1x16
 255.5 593.5 l 1
 255.5 636 l 1
 304.5 636 l 1
 304.5 593.5 l 1x16
396 593.5 m 1
 347.5 593.5 l 1
 347.5 636 l 1
 396 636 l 1
 396 593.5 l 1
EndSplineSet
Substitution2: "'c2sc' Capitals to Small Capitals in Latin lookup 2 subtable" Edieresis.sc
Substitution2: "'aalt' Access All Alternates in Latin lookup 0 subtable" Edieresis.sc
EndChar

StartChar: Eacute
Encoding: 201 201 141
Width: 488
VWidth: 716
Flags: HMW
HStem: 216.25 47<262 442.5 262 442.5> 368.25 45.5<262 413.5 262 413.5> 511.75 46.5<262 442.5 262 262> 587.75 10.5G<292 341.5 292 292> 638.75 10G<340.5 389.5 389.5 389.5>
VStem: 211.5 50.5<263.25 368.25 413.75 511.75> 292 97.5<587.75 648.75>
LayerCount: 2
Fore
SplineSet
442.5 216.25 m 1
 211.5 216.25 l 1
 211.5 558.25 l 1
 442.5 558.25 l 1
 442.5 511.75 l 1
 262 511.75 l 1
 262 413.75 l 1
 413.5 413.75 l 1
 413.5 368.25 l 1
 262 368.25 l 1
 262 263.25 l 1
 442.5 263.25 l 1
 442.5 216.25 l 1
389.5 648.75 m 1x1a
 341.5 587.75 l 1
 292 587.75 l 1
 340.5 648.75 l 1
 389.5 648.75 l 1x1a
EndSplineSet
Substitution2: "'c2sc' Capitals to Small Capitals in Latin lookup 2 subtable" Eacute.sc
Substitution2: "'aalt' Access All Alternates in Latin lookup 0 subtable" Eacute.sc
EndChar

StartChar: Egrave
Encoding: 200 200 142
Width: 488
VWidth: 716
Flags: HMW
HStem: 216.25 47<262 442.5 262 442.5> 368.25 45.5<262 413.5 262 413.5> 511.75 46.5<262 442.5 262 262> 586.75 10.5G 642.25 10G
VStem: 211.5 50.5<263.25 368.25 413.75 511.75> 265.5 104.5
LayerCount: 2
Fore
SplineSet
442.5 216.25 m 1
 211.5 216.25 l 1
 211.5 558.25 l 1
 442.5 558.25 l 1
 442.5 511.75 l 1
 262 511.75 l 1
 262 413.75 l 1
 413.5 413.75 l 1
 413.5 368.25 l 1
 262 368.25 l 1
 262 263.25 l 1
 442.5 263.25 l 1
 442.5 216.25 l 1
310 587.75 m 1
 262 648.75 l 1x64
 311 648.75 l 1
 359.5 587.75 l 1
 310 587.75 l 1
EndSplineSet
Substitution2: "'c2sc' Capitals to Small Capitals in Latin lookup 2 subtable" Egrave.sc
Substitution2: "'aalt' Access All Alternates in Latin lookup 0 subtable" Egrave.sc
EndChar

StartChar: Ecircumflex
Encoding: 202 202 143
Width: 488
VWidth: 716
Flags: HMW
HStem: 216.75 47<262 442.5 262 442.5> 368.75 45.5<262 413.5 262 413.5> 512.25 46.5<262 442.5 262 262> 587.25 10.5G<254 254 254 300 352 352 352 398> 640.25 10G<305.5 346 346 346>
VStem: 211.5 50.5<263.75 368.75 414.25 512.25> 254 144<587.25 587.25>
LayerCount: 2
Fore
SplineSet
442.5 216.75 m 1xe4
 211.5 216.75 l 1
 211.5 558.75 l 1
 442.5 558.75 l 1
 442.5 512.25 l 1
 262 512.25 l 1
 262 414.25 l 1
 413.5 414.25 l 1
 413.5 368.75 l 1
 262 368.75 l 1
 262 263.75 l 1
 442.5 263.75 l 1
 442.5 216.75 l 1xe4
254 587.25 m 1
 305.5 650.25 l 1x1a
 346 650.25 l 1
 398 587.25 l 1
 352 587.25 l 1
 327.5 619.75 l 1
 324 619.75 l 1
 300 587.25 l 1
 254 587.25 l 1
EndSplineSet
Substitution2: "'c2sc' Capitals to Small Capitals in Latin lookup 2 subtable" Ecircumflex.sc
Substitution2: "'aalt' Access All Alternates in Latin lookup 0 subtable" Ecircumflex.sc
EndChar

StartChar: Emacron
Encoding: 274 274 144
Width: 488
VWidth: 709
Flags: HMW
HStem: 209.75 47<262 442.5 262 442.5> 361.75 45.5<262 413.5 262 413.5> 505.25 46.5<262 442.5 262 262> 592.75 36.5<253 399 253 399>
VStem: 211.5 50.5<256.75 361.75 407.25 505.25> 253 146<592.75 629.25 592.75 629.25>
LayerCount: 2
Fore
SplineSet
442.5 209.75 m 1xe8
 211.5 209.75 l 1
 211.5 551.75 l 1
 442.5 551.75 l 1
 442.5 505.25 l 1
 262 505.25 l 1
 262 407.25 l 1
 413.5 407.25 l 1
 413.5 361.75 l 1
 262 361.75 l 1
 262 256.75 l 1
 442.5 256.75 l 1
 442.5 209.75 l 1xe8
399 592.75 m 1x14
 253 592.75 l 1
 253 629.25 l 1
 399 629.25 l 1
 399 592.75 l 1x14
EndSplineSet
Substitution2: "'c2sc' Capitals to Small Capitals in Latin lookup 2 subtable" Emacron.sc
Substitution2: "'aalt' Access All Alternates in Latin lookup 0 subtable" Emacron.sc
EndChar

StartChar: Idieresis
Encoding: 207 207 145
Width: 487
VWidth: 712
Flags: HMW
HStem: 212 47<204.25 299.25 204.25 299.25 349.75 444.75> 507.5 46.5<210.25 299.25 210.25 439.25 349.75 349.75 349.75 439.25> 593.5 42.5<254.25 303.25 254.25 303.25 346.25 394.75>
VStem: 254.25 49<593.5 636 593.5 636> 299.25 50.5<259 507.5 259 507.5> 346.25 48.5<593.5 636 593.5 636>
LayerCount: 2
Fore
SplineSet
204.25 212 m 1xc8
 204.25 259 l 1
 299.25 259 l 1
 299.25 507.5 l 1
 210.25 507.5 l 1
 210.25 554 l 1
 439.25 554 l 1
 439.25 507.5 l 1
 349.75 507.5 l 1
 349.75 259 l 1
 444.75 259 l 1
 444.75 212 l 1
 204.25 212 l 1xc8
303.25 593.5 m 1x34
 254.25 593.5 l 1
 254.25 636 l 1
 303.25 636 l 1
 303.25 593.5 l 1x34
394.75 593.5 m 1
 346.25 593.5 l 1
 346.25 636 l 1
 394.75 636 l 1
 394.75 593.5 l 1
EndSplineSet
Substitution2: "'c2sc' Capitals to Small Capitals in Latin lookup 2 subtable" Idieresis.sc
Substitution2: "'aalt' Access All Alternates in Latin lookup 0 subtable" Idieresis.sc
EndChar

StartChar: Iacute
Encoding: 205 205 146
Width: 487
VWidth: 716
Flags: HMW
HStem: 216.25 47<204.25 299.25 204.25 299.25 349.75 444.75> 511.75 46.5<210.25 299.25 210.25 439.25 349.75 349.75 349.75 439.25> 587.75 10.5G<290.75 340.25 290.75 290.75> 638.75 10G<339.25 388.25 388.25 388.25>
VStem: 290.75 97.5<587.75 648.75> 299.25 50.5<263.25 511.75 263.25 511.75>
LayerCount: 2
Fore
SplineSet
204.25 216.25 m 1xc4
 204.25 263.25 l 1
 299.25 263.25 l 1
 299.25 511.75 l 1
 210.25 511.75 l 1
 210.25 558.25 l 1
 439.25 558.25 l 1
 439.25 511.75 l 1
 349.75 511.75 l 1
 349.75 263.25 l 1
 444.75 263.25 l 1
 444.75 216.25 l 1
 204.25 216.25 l 1xc4
388.25 648.75 m 1x38
 340.25 587.75 l 1
 290.75 587.75 l 1
 339.25 648.75 l 1
 388.25 648.75 l 1x38
EndSplineSet
Substitution2: "'c2sc' Capitals to Small Capitals in Latin lookup 2 subtable" Iacute.sc
Substitution2: "'aalt' Access All Alternates in Latin lookup 0 subtable" Iacute.sc
EndChar

StartChar: Igrave
Encoding: 204 204 147
Width: 487
VWidth: 716
Flags: HMW
HStem: 216.25 47<204.25 299.25 204.25 299.25 349.75 444.75> 511.75 46.5<210.25 299.25 210.25 439.25 349.75 349.75 349.75 439.25> 586.75 10.5G 642.25 10G
VStem: 264.25 104.5 299.25 50.5<263.25 511.75 263.25 511.75>
LayerCount: 2
Fore
SplineSet
204.25 216.25 m 1x38
 204.25 263.25 l 1
 299.25 263.25 l 1
 299.25 511.75 l 1
 210.25 511.75 l 1
 210.25 558.25 l 1
 439.25 558.25 l 1
 439.25 511.75 l 1
 349.75 511.75 l 1
 349.75 263.25 l 1
 444.75 263.25 l 1
 444.75 216.25 l 1
 204.25 216.25 l 1x38
308.75 587.75 m 1
 260.75 648.75 l 1xc4
 309.75 648.75 l 1
 358.25 587.75 l 1
 308.75 587.75 l 1
EndSplineSet
Substitution2: "'c2sc' Capitals to Small Capitals in Latin lookup 2 subtable" Igrave.sc
Substitution2: "'aalt' Access All Alternates in Latin lookup 0 subtable" Igrave.sc
EndChar

StartChar: Icircumflex
Encoding: 206 206 148
Width: 487
VWidth: 716
Flags: HMW
HStem: 216.75 47<204.25 299.25 204.25 299.25 349.75 444.75> 512.25 46.5<210.25 299.25 210.25 439.25 349.75 349.75 349.75 439.25> 587.25 10.5G<253.25 253.25 253.25 299.25 351.25 351.25 351.25 397.25> 640.25 10G<304.75 345.25 345.25 345.25>
VStem: 253.25 144<587.25 587.25> 299.25 50.5<263.75 512.25 263.75 512.25>
LayerCount: 2
Fore
SplineSet
204.25 216.75 m 1xc4
 204.25 263.75 l 1
 299.25 263.75 l 1
 299.25 512.25 l 1
 210.25 512.25 l 1
 210.25 558.75 l 1
 439.25 558.75 l 1
 439.25 512.25 l 1
 349.75 512.25 l 1
 349.75 263.75 l 1
 444.75 263.75 l 1
 444.75 216.75 l 1
 204.25 216.75 l 1xc4
253.25 587.25 m 1
 304.75 650.25 l 1x38
 345.25 650.25 l 1
 397.25 587.25 l 1
 351.25 587.25 l 1
 326.75 619.75 l 1
 323.25 619.75 l 1
 299.25 587.25 l 1
 253.25 587.25 l 1
EndSplineSet
Substitution2: "'c2sc' Capitals to Small Capitals in Latin lookup 2 subtable" Icircumflex.sc
Substitution2: "'aalt' Access All Alternates in Latin lookup 0 subtable" Icircumflex.sc
EndChar

StartChar: Itilde
Encoding: 296 296 149
Width: 487
VWidth: 717
Flags: HMW
HStem: 217.25 47<204.25 299.25 204.25 299.25 349.75 444.75> 512.75 46.5<210.25 299.25 210.25 439.25 349.75 349.75 349.75 439.25> 590.75 36.5<340.5 356.25 340.5 371.75> 615.25 36.5<292.75 308.5>
VStem: 243.25 162.5<592.25 650.25> 299.25 50.5<264.25 512.75 264.25 512.75>
LayerCount: 2
Fore
SplineSet
204.25 217.25 m 1xc4
 204.25 264.25 l 1
 299.25 264.25 l 1
 299.25 512.75 l 1
 210.25 512.75 l 1
 210.25 559.25 l 1
 439.25 559.25 l 1
 439.25 512.75 l 1
 349.75 512.75 l 1
 349.75 264.25 l 1
 444.75 264.25 l 1
 444.75 217.25 l 1
 204.25 217.25 l 1xc4
368.25 650.25 m 1x28
 405.75 650.25 l 1
 405.75 618.25 389.75 590.75 353.75 590.75 c 0x28
 322.75 590.75 318.25 615.25 298.75 615.25 c 0
 286.75 615.25 280.75 607.75 280.75 592.25 c 1
 243.25 592.25 l 1
 243.25 624.25 259.25 651.75 295.25 651.75 c 0x18
 326.25 651.75 330.75 627.25 350.25 627.25 c 0
 362.25 627.25 368.25 634.75 368.25 650.25 c 1x28
EndSplineSet
Substitution2: "'c2sc' Capitals to Small Capitals in Latin lookup 2 subtable" Itilde.sc
Substitution2: "'aalt' Access All Alternates in Latin lookup 0 subtable" Itilde.sc
EndChar

StartChar: Imacron
Encoding: 65569 -1 150
Width: 487
VWidth: 709
Flags: HMW
HStem: 209.75 47<204.25 299.25 204.25 299.25 349.75 444.75> 505.25 46.5<210.25 299.25 210.25 439.25 349.75 349.75 349.75 439.25> 592.75 36.5<251.75 397.75 251.75 397.75>
VStem: 251.75 146<592.75 629.25 592.75 629.25> 299.25 50.5<256.75 505.25 256.75 505.25>
LayerCount: 2
Fore
SplineSet
204.25 209.75 m 1xc8
 204.25 256.75 l 1
 299.25 256.75 l 1
 299.25 505.25 l 1
 210.25 505.25 l 1
 210.25 551.75 l 1
 439.25 551.75 l 1
 439.25 505.25 l 1
 349.75 505.25 l 1
 349.75 256.75 l 1
 444.75 256.75 l 1
 444.75 209.75 l 1
 204.25 209.75 l 1xc8
397.75 592.75 m 1x30
 251.75 592.75 l 1
 251.75 629.25 l 1
 397.75 629.25 l 1
 397.75 592.75 l 1x30
EndSplineSet
Substitution2: "'c2sc' Capitals to Small Capitals in Latin lookup 2 subtable" Imacron.sc
Substitution2: "'aalt' Access All Alternates in Latin lookup 0 subtable" Imacron.sc
EndChar

StartChar: Odieresis
Encoding: 214 214 151
Width: 487
VWidth: 712
Flags: HMW
HStem: 212 47<250.25 364.75 284.25 364.75 364.75 371.25> 507.5 46.5<277.75 284.25 284.25 364.75> 593.5 42.5<254.25 303.25 254.25 303.25 346.25 394.75>
VStem: 195.75 50.5<285 294.5 294.5 472> 254.25 49<593.5 636 593.5 636> 346.25 48.5<593.5 636 593.5 636> 402.75 50.5<294.5 472 472 481>
LayerCount: 2
Fore
SplineSet
371.25 212 m 2
 277.75 212 l 2
 222.75 212 195.75 233.5 195.75 285 c 2
 195.75 481 l 2
 195.75 532.5 222.75 554 277.75 554 c 2
 371.25 554 l 2
 426.25 554 453.25 532.5 453.25 481 c 2
 453.25 285 l 2
 453.25 233.5 426.25 212 371.25 212 c 2
284.25 259 m 2
 364.75 259 l 2
 394.75 259 402.75 269.5 402.75 294.5 c 2
 402.75 472 l 2
 402.75 497 394.75 507.5 364.75 507.5 c 2
 284.25 507.5 l 2
 254.25 507.5 246.25 497 246.25 472 c 2
 246.25 294.5 l 2
 246.25 269.5 254.25 259 284.25 259 c 2
303.25 593.5 m 1x2c
 254.25 593.5 l 1
 254.25 636 l 1
 303.25 636 l 1
 303.25 593.5 l 1x2c
394.75 593.5 m 1
 346.25 593.5 l 1
 346.25 636 l 1
 394.75 636 l 1
 394.75 593.5 l 1
EndSplineSet
Substitution2: "'c2sc' Capitals to Small Capitals in Latin lookup 2 subtable" Odieresis.sc
Substitution2: "'aalt' Access All Alternates in Latin lookup 0 subtable" Odieresis.sc
EndChar

StartChar: Oacute
Encoding: 211 211 152
Width: 487
VWidth: 716
Flags: HMW
HStem: 216.25 47<250.25 364.75 284.25 364.75 364.75 371.25> 511.75 46.5<277.75 284.25 284.25 364.75> 587.75 10.5G<290.75 340.25 290.75 290.75> 638.75 10G<339.25 388.25 388.25 388.25>
VStem: 195.75 50.5<289.25 298.75 298.75 476.25> 290.75 97.5<587.75 648.75> 402.75 50.5<298.75 476.25 476.25 485.25>
LayerCount: 2
Fore
SplineSet
371.25 216.25 m 2
 277.75 216.25 l 2
 222.75 216.25 195.75 237.75 195.75 289.25 c 2
 195.75 485.25 l 2
 195.75 536.75 222.75 558.25 277.75 558.25 c 2
 371.25 558.25 l 2
 426.25 558.25 453.25 536.75 453.25 485.25 c 2
 453.25 289.25 l 2
 453.25 237.75 426.25 216.25 371.25 216.25 c 2
284.25 263.25 m 2
 364.75 263.25 l 2
 394.75 263.25 402.75 273.75 402.75 298.75 c 2
 402.75 476.25 l 2
 402.75 501.25 394.75 511.75 364.75 511.75 c 2
 284.25 511.75 l 2
 254.25 511.75 246.25 501.25 246.25 476.25 c 2
 246.25 298.75 l 2
 246.25 273.75 254.25 263.25 284.25 263.25 c 2
388.25 648.75 m 1x34
 340.25 587.75 l 1
 290.75 587.75 l 1
 339.25 648.75 l 1
 388.25 648.75 l 1x34
EndSplineSet
Substitution2: "'c2sc' Capitals to Small Capitals in Latin lookup 2 subtable" Oacute.sc
Substitution2: "'aalt' Access All Alternates in Latin lookup 0 subtable" Oacute.sc
EndChar

StartChar: Ograve
Encoding: 210 210 153
Width: 487
VWidth: 716
Flags: HMW
HStem: 216.25 47<250.25 364.75 284.25 364.75 364.75 371.25> 511.75 46.5<277.75 284.25 284.25 364.75> 586.75 10.5G 642.25 10G
VStem: 195.75 50.5<289.25 298.75 298.75 476.25> 264.25 104.5 402.75 50.5<298.75 476.25 476.25 485.25>
LayerCount: 2
Fore
SplineSet
371.25 216.25 m 2
 277.75 216.25 l 2
 222.75 216.25 195.75 237.75 195.75 289.25 c 2
 195.75 485.25 l 2
 195.75 536.75 222.75 558.25 277.75 558.25 c 2
 371.25 558.25 l 2
 426.25 558.25 453.25 536.75 453.25 485.25 c 2
 453.25 289.25 l 2
 453.25 237.75 426.25 216.25 371.25 216.25 c 2
284.25 263.25 m 2
 364.75 263.25 l 2
 394.75 263.25 402.75 273.75 402.75 298.75 c 2
 402.75 476.25 l 2
 402.75 501.25 394.75 511.75 364.75 511.75 c 2
 284.25 511.75 l 2
 254.25 511.75 246.25 501.25 246.25 476.25 c 2
 246.25 298.75 l 2
 246.25 273.75 254.25 263.25 284.25 263.25 c 2
308.75 587.75 m 1
 260.75 648.75 l 1xc2
 309.75 648.75 l 1
 358.25 587.75 l 1
 308.75 587.75 l 1
EndSplineSet
Substitution2: "'c2sc' Capitals to Small Capitals in Latin lookup 2 subtable" Ograve.sc
Substitution2: "'aalt' Access All Alternates in Latin lookup 0 subtable" Ograve.sc
EndChar

StartChar: Ocircumflex
Encoding: 212 212 154
Width: 487
VWidth: 716
Flags: HMW
HStem: 216.75 47<250.25 364.75 284.25 364.75 364.75 371.25> 512.25 46.5<277.75 284.25 284.25 364.75> 587.25 10.5G<252.75 252.75 252.75 298.75 350.75 350.75 350.75 396.75> 640.25 10G<304.25 344.75 344.75 344.75>
VStem: 195.75 50.5<289.75 299.25 299.25 476.75> 252.75 144<587.25 587.25> 402.75 50.5<299.25 476.75 476.75 485.75>
LayerCount: 2
Fore
SplineSet
371.25 216.75 m 2
 277.75 216.75 l 2
 222.75 216.75 195.75 238.25 195.75 289.75 c 2
 195.75 485.75 l 2
 195.75 537.25 222.75 558.75 277.75 558.75 c 2
 371.25 558.75 l 2
 426.25 558.75 453.25 537.25 453.25 485.75 c 2
 453.25 289.75 l 2
 453.25 238.25 426.25 216.75 371.25 216.75 c 2
284.25 263.75 m 2
 364.75 263.75 l 2
 394.75 263.75 402.75 274.25 402.75 299.25 c 2
 402.75 476.75 l 2
 402.75 501.75 394.75 512.25 364.75 512.25 c 2
 284.25 512.25 l 2
 254.25 512.25 246.25 501.75 246.25 476.75 c 2
 246.25 299.25 l 2
 246.25 274.25 254.25 263.75 284.25 263.75 c 2
252.75 587.25 m 1
 304.25 650.25 l 1x34
 344.75 650.25 l 1
 396.75 587.25 l 1
 350.75 587.25 l 1
 326.25 619.75 l 1
 322.75 619.75 l 1
 298.75 587.25 l 1
 252.75 587.25 l 1
EndSplineSet
Substitution2: "'c2sc' Capitals to Small Capitals in Latin lookup 2 subtable" Ocircumflex.sc
Substitution2: "'aalt' Access All Alternates in Latin lookup 0 subtable" Ocircumflex.sc
EndChar

StartChar: Otilde
Encoding: 213 213 155
Width: 487
VWidth: 717
Flags: HMW
HStem: 217.25 47<250.25 364.75 284.25 364.75 364.75 371.25> 512.75 46.5<277.75 284.25 284.25 364.75> 590.75 36.5<340.5 356.25 340.5 371.75> 615.25 36.5<292.75 308.5>
VStem: 195.75 50.5<290.25 299.75 299.75 477.25> 243.25 162.5<592.25 650.25> 402.75 50.5<299.75 477.25 477.25 486.25>
LayerCount: 2
Fore
SplineSet
371.25 217.25 m 2xca
 277.75 217.25 l 2
 222.75 217.25 195.75 238.75 195.75 290.25 c 2
 195.75 486.25 l 2
 195.75 537.75 222.75 559.25 277.75 559.25 c 2
 371.25 559.25 l 2
 426.25 559.25 453.25 537.75 453.25 486.25 c 2
 453.25 290.25 l 2
 453.25 238.75 426.25 217.25 371.25 217.25 c 2xca
284.25 264.25 m 2
 364.75 264.25 l 2
 394.75 264.25 402.75 274.75 402.75 299.75 c 2
 402.75 477.25 l 2
 402.75 502.25 394.75 512.75 364.75 512.75 c 2
 284.25 512.75 l 2
 254.25 512.75 246.25 502.25 246.25 477.25 c 2
 246.25 299.75 l 2
 246.25 274.75 254.25 264.25 284.25 264.25 c 2
368.25 650.25 m 1x24
 405.75 650.25 l 1
 405.75 618.25 389.75 590.75 353.75 590.75 c 0x24
 322.75 590.75 318.25 615.25 298.75 615.25 c 0
 286.75 615.25 280.75 607.75 280.75 592.25 c 1
 243.25 592.25 l 1
 243.25 624.25 259.25 651.75 295.25 651.75 c 0x14
 326.25 651.75 330.75 627.25 350.25 627.25 c 0
 362.25 627.25 368.25 634.75 368.25 650.25 c 1x24
EndSplineSet
Substitution2: "'c2sc' Capitals to Small Capitals in Latin lookup 2 subtable" Otilde.sc
Substitution2: "'aalt' Access All Alternates in Latin lookup 0 subtable" Otilde.sc
EndChar

StartChar: Omacron
Encoding: 332 332 156
Width: 487
VWidth: 709
Flags: HMW
HStem: 209.75 47<250.25 364.75 284.25 364.75 364.75 371.25> 505.25 46.5<277.75 284.25 284.25 364.75> 592.75 36.5<251.75 397.75 251.75 397.75>
VStem: 195.75 50.5<282.75 292.25 292.25 469.75> 251.75 146<592.75 629.25 592.75 629.25> 402.75 50.5<292.25 469.75 469.75 478.75>
LayerCount: 2
Fore
SplineSet
371.25 209.75 m 2
 277.75 209.75 l 2
 222.75 209.75 195.75 231.25 195.75 282.75 c 2
 195.75 478.75 l 2
 195.75 530.25 222.75 551.75 277.75 551.75 c 2
 371.25 551.75 l 2
 426.25 551.75 453.25 530.25 453.25 478.75 c 2
 453.25 282.75 l 2
 453.25 231.25 426.25 209.75 371.25 209.75 c 2
284.25 256.75 m 2
 364.75 256.75 l 2
 394.75 256.75 402.75 267.25 402.75 292.25 c 2
 402.75 469.75 l 2
 402.75 494.75 394.75 505.25 364.75 505.25 c 2
 284.25 505.25 l 2
 254.25 505.25 246.25 494.75 246.25 469.75 c 2
 246.25 292.25 l 2
 246.25 267.25 254.25 256.75 284.25 256.75 c 2
397.75 592.75 m 1x28
 251.75 592.75 l 1
 251.75 629.25 l 1
 397.75 629.25 l 1
 397.75 592.75 l 1x28
EndSplineSet
Substitution2: "'c2sc' Capitals to Small Capitals in Latin lookup 2 subtable" Omacron.sc
Substitution2: "'aalt' Access All Alternates in Latin lookup 0 subtable" Omacron.sc
EndChar

StartChar: Udieresis
Encoding: 220 220 157
Width: 487
VWidth: 712
Flags: HMW
HStem: 212 47<255.25 359.75 290.25 359.75 359.75 366.25> 544 10G<200.75 251.25 251.25 251.25 397.75 448.25 448.25 448.25> 593.5 42.5<254.25 303.25 254.25 303.25 346.25 394.75>
VStem: 200.75 50.5<285 294.5 294.5 554> 254.25 49<593.5 636 593.5 636> 346.25 48.5<593.5 636 593.5 636> 397.75 50.5<294.5 554>
LayerCount: 2
Fore
SplineSet
448.25 554 m 1
 448.25 285 l 2
 448.25 233.5 421.25 212 366.25 212 c 2
 282.75 212 l 2
 227.75 212 200.75 233.5 200.75 285 c 2
 200.75 554 l 1
 251.25 554 l 1
 251.25 294.5 l 2
 251.25 269.5 259.25 259 290.25 259 c 2
 359.75 259 l 2
 389.75 259 397.75 269.5 397.75 294.5 c 2
 397.75 554 l 1
 448.25 554 l 1
303.25 593.5 m 1x2c
 254.25 593.5 l 1
 254.25 636 l 1
 303.25 636 l 1
 303.25 593.5 l 1x2c
394.75 593.5 m 1
 346.25 593.5 l 1
 346.25 636 l 1
 394.75 636 l 1
 394.75 593.5 l 1
EndSplineSet
Substitution2: "'c2sc' Capitals to Small Capitals in Latin lookup 2 subtable" Udieresis.sc
Substitution2: "'aalt' Access All Alternates in Latin lookup 0 subtable" Udieresis.sc
EndChar

StartChar: Uacute
Encoding: 218 218 158
Width: 487
VWidth: 716
Flags: HMW
HStem: 216.25 47<255.25 359.75 290.25 359.75 359.75 366.25> 548.25 10G<200.75 251.25 251.25 251.25 397.75 448.25 448.25 448.25> 587.75 10.5G<290.75 340.25 290.75 290.75> 638.75 10G<339.25 388.25 388.25 388.25>
VStem: 200.75 50.5<289.25 298.75 298.75 558.25> 290.75 97.5<587.75 648.75> 397.75 50.5<298.75 558.25>
LayerCount: 2
Fore
SplineSet
448.25 558.25 m 1
 448.25 289.25 l 2
 448.25 237.75 421.25 216.25 366.25 216.25 c 2
 282.75 216.25 l 2
 227.75 216.25 200.75 237.75 200.75 289.25 c 2
 200.75 558.25 l 1
 251.25 558.25 l 1
 251.25 298.75 l 2
 251.25 273.75 259.25 263.25 290.25 263.25 c 2
 359.75 263.25 l 2
 389.75 263.25 397.75 273.75 397.75 298.75 c 2
 397.75 558.25 l 1
 448.25 558.25 l 1
388.25 648.75 m 1x34
 340.25 587.75 l 1
 290.75 587.75 l 1
 339.25 648.75 l 1
 388.25 648.75 l 1x34
EndSplineSet
Substitution2: "'c2sc' Capitals to Small Capitals in Latin lookup 2 subtable" Uacute.sc
Substitution2: "'aalt' Access All Alternates in Latin lookup 0 subtable" Uacute.sc
EndChar

StartChar: Ugrave
Encoding: 217 217 159
Width: 487
VWidth: 716
Flags: HMW
HStem: 216.25 47<255.25 359.75 290.25 359.75 359.75 366.25> 548.25 10G<200.75 251.25 251.25 251.25 397.75 448.25 448.25 448.25> 586.75 10.5G 642.25 10G
VStem: 200.75 50.5<289.25 298.75 298.75 558.25> 264.25 104.5 397.75 50.5<298.75 558.25>
LayerCount: 2
Fore
SplineSet
448.25 558.25 m 1
 448.25 289.25 l 2
 448.25 237.75 421.25 216.25 366.25 216.25 c 2
 282.75 216.25 l 2
 227.75 216.25 200.75 237.75 200.75 289.25 c 2
 200.75 558.25 l 1
 251.25 558.25 l 1
 251.25 298.75 l 2
 251.25 273.75 259.25 263.25 290.25 263.25 c 2
 359.75 263.25 l 2
 389.75 263.25 397.75 273.75 397.75 298.75 c 2
 397.75 558.25 l 1
 448.25 558.25 l 1
308.75 587.75 m 1
 260.75 648.75 l 1xc2
 309.75 648.75 l 1
 358.25 587.75 l 1
 308.75 587.75 l 1
EndSplineSet
Substitution2: "'c2sc' Capitals to Small Capitals in Latin lookup 2 subtable" Ugrave.sc
Substitution2: "'aalt' Access All Alternates in Latin lookup 0 subtable" Ugrave.sc
EndChar

StartChar: Ucircumflex
Encoding: 219 219 160
Width: 487
VWidth: 716
Flags: HMW
HStem: 216.75 47<255.25 359.75 290.25 359.75 359.75 366.25> 548.75 10G<200.75 251.25 251.25 251.25 397.75 448.25 448.25 448.25> 587.25 10.5G<252.75 252.75 252.75 298.75 350.75 350.75 350.75 396.75> 640.25 10G<304.25 344.75 344.75 344.75>
VStem: 200.75 50.5<289.75 299.25 299.25 558.75> 252.75 144<587.25 587.25> 397.75 50.5<299.25 558.75>
LayerCount: 2
Fore
SplineSet
448.25 558.75 m 1
 448.25 289.75 l 2
 448.25 238.25 421.25 216.75 366.25 216.75 c 2
 282.75 216.75 l 2
 227.75 216.75 200.75 238.25 200.75 289.75 c 2
 200.75 558.75 l 1
 251.25 558.75 l 1
 251.25 299.25 l 2
 251.25 274.25 259.25 263.75 290.25 263.75 c 2
 359.75 263.75 l 2
 389.75 263.75 397.75 274.25 397.75 299.25 c 2
 397.75 558.75 l 1
 448.25 558.75 l 1
252.75 587.25 m 1
 304.25 650.25 l 1x34
 344.75 650.25 l 1
 396.75 587.25 l 1
 350.75 587.25 l 1
 326.25 619.75 l 1
 322.75 619.75 l 1
 298.75 587.25 l 1
 252.75 587.25 l 1
EndSplineSet
Substitution2: "'c2sc' Capitals to Small Capitals in Latin lookup 2 subtable" Ucircumflex.sc
Substitution2: "'aalt' Access All Alternates in Latin lookup 0 subtable" Ucircumflex.sc
EndChar

StartChar: Utilde
Encoding: 360 360 161
Width: 487
VWidth: 717
Flags: HMW
HStem: 217.25 47<255.25 359.75 290.25 359.75 359.75 366.25> 549.25 10G<200.75 251.25 251.25 251.25 397.75 448.25 448.25 448.25> 590.75 36.5<340.5 356.25 340.5 371.75> 615.25 36.5<292.75 308.5>
VStem: 200.75 50.5<290.25 299.75 299.75 559.25> 243.25 162.5<592.25 650.25> 397.75 50.5<299.75 559.25>
LayerCount: 2
Fore
SplineSet
448.25 559.25 m 1xca
 448.25 290.25 l 2
 448.25 238.75 421.25 217.25 366.25 217.25 c 2
 282.75 217.25 l 2
 227.75 217.25 200.75 238.75 200.75 290.25 c 2
 200.75 559.25 l 1
 251.25 559.25 l 1
 251.25 299.75 l 2
 251.25 274.75 259.25 264.25 290.25 264.25 c 2
 359.75 264.25 l 2
 389.75 264.25 397.75 274.75 397.75 299.75 c 2
 397.75 559.25 l 1
 448.25 559.25 l 1xca
368.25 650.25 m 1x24
 405.75 650.25 l 1
 405.75 618.25 389.75 590.75 353.75 590.75 c 0x24
 322.75 590.75 318.25 615.25 298.75 615.25 c 0
 286.75 615.25 280.75 607.75 280.75 592.25 c 1
 243.25 592.25 l 1
 243.25 624.25 259.25 651.75 295.25 651.75 c 0x14
 326.25 651.75 330.75 627.25 350.25 627.25 c 0
 362.25 627.25 368.25 634.75 368.25 650.25 c 1x24
EndSplineSet
Substitution2: "'c2sc' Capitals to Small Capitals in Latin lookup 2 subtable" Utilde.sc
Substitution2: "'aalt' Access All Alternates in Latin lookup 0 subtable" Utilde.sc
EndChar

StartChar: Umacron
Encoding: 362 362 162
Width: 487
VWidth: 709
Flags: HMW
HStem: 209.75 47<255.25 359.75 290.25 359.75 359.75 366.25> 541.75 10G<200.75 251.25 251.25 251.25 397.75 448.25 448.25 448.25> 592.75 36.5<251.75 397.75 251.75 397.75>
VStem: 200.75 50.5<282.75 292.25 292.25 551.75> 251.75 146<592.75 629.25 292.25 629.25> 397.75 50.5<292.25 551.75>
LayerCount: 2
Fore
SplineSet
448.25 551.75 m 1xd4
 448.25 282.75 l 2
 448.25 231.25 421.25 209.75 366.25 209.75 c 2
 282.75 209.75 l 2
 227.75 209.75 200.75 231.25 200.75 282.75 c 2
 200.75 551.75 l 1
 251.25 551.75 l 1
 251.25 292.25 l 2
 251.25 267.25 259.25 256.75 290.25 256.75 c 2
 359.75 256.75 l 2
 389.75 256.75 397.75 267.25 397.75 292.25 c 2
 397.75 551.75 l 1
 448.25 551.75 l 1xd4
397.75 592.75 m 1x28
 251.75 592.75 l 1
 251.75 629.25 l 1
 397.75 629.25 l 1
 397.75 592.75 l 1x28
EndSplineSet
Substitution2: "'c2sc' Capitals to Small Capitals in Latin lookup 2 subtable" Umacron.sc
Substitution2: "'aalt' Access All Alternates in Latin lookup 0 subtable" Umacron.sc
EndChar

StartChar: Ydieresis
Encoding: 376 376 163
Width: 487
VWidth: 712
Flags: HMW
HStem: 212 10.5G<300 350.5 300 300> 544 10G<193.5 244 244 244 406 456.5 456.5 456.5> 593.5 42.5<254.5 303.5 254.5 303.5 346.5 395>
VStem: 193.5 50.5<479.5 554 479.5 554 479.5 554> 254.5 49<593.5 636 593.5 636> 300 50.5<212 361 212 361> 346.5 48.5<593.5 636 593.5 636> 406 50.5<479.5 554>
LayerCount: 2
Fore
SplineSet
456.5 460.5 m 1xd5
 350.5 361 l 1
 350.5 212 l 1
 300 212 l 1
 300 361 l 1
 193.5 460.5 l 1
 193.5 554 l 1
 244 554 l 1
 244 479.5 l 1
 325 401.5 l 1
 406 479.5 l 1
 406 554 l 1
 456.5 554 l 1
 456.5 460.5 l 1xd5
303.5 593.5 m 1x2a
 254.5 593.5 l 1
 254.5 636 l 1
 303.5 636 l 1
 303.5 593.5 l 1x2a
395 593.5 m 1
 346.5 593.5 l 1
 346.5 636 l 1
 395 636 l 1
 395 593.5 l 1
EndSplineSet
Substitution2: "'ss01' Style Set 1 in Latin lookup 5 subtable" Aring.alt1
Substitution2: "'salt' Stylistic Alternatives in Latin lookup 4 subtable" Aring.alt1
Substitution2: "'c2sc' Capitals to Small Capitals in Latin lookup 2 subtable" Ydieresis.sc
AlternateSubs2: "'aalt' Access All Alternates in Latin lookup 1 subtable" Ydieresis.sc Aring.alt1
EndChar

StartChar: Yacute
Encoding: 221 221 164
Width: 487
VWidth: 716
Flags: HMW
HStem: 216.25 10.5G<299 349.5 299 299> 548.25 10G<192.5 243 243 243 405 455.5 455.5 455.5> 587.75 10.5G<290.5 340 290.5 290.5> 638.75 10G<339 388 388 388>
VStem: 192.5 50.5<483.75 558.25 483.75 558.25 483.75 558.25> 290.5 97.5<587.75 648.75> 299 50.5<216.25 365.25 216.25 365.25> 405 50.5<483.75 558.25>
LayerCount: 2
Fore
SplineSet
455.5 464.75 m 1xcb
 349.5 365.25 l 1
 349.5 216.25 l 1
 299 216.25 l 1
 299 365.25 l 1
 192.5 464.75 l 1
 192.5 558.25 l 1
 243 558.25 l 1
 243 483.75 l 1
 324 405.75 l 1
 405 483.75 l 1
 405 558.25 l 1
 455.5 558.25 l 1
 455.5 464.75 l 1xcb
388 648.75 m 1x34
 340 587.75 l 1
 290.5 587.75 l 1
 339 648.75 l 1
 388 648.75 l 1x34
EndSplineSet
Substitution2: "'ss01' Style Set 1 in Latin lookup 5 subtable" Ydieresis.alt1
Substitution2: "'salt' Stylistic Alternatives in Latin lookup 4 subtable" Ydieresis.alt1
Substitution2: "'c2sc' Capitals to Small Capitals in Latin lookup 2 subtable" Yacute.sc
AlternateSubs2: "'aalt' Access All Alternates in Latin lookup 1 subtable" Yacute.sc Ydieresis.alt1
EndChar

StartChar: Scaron
Encoding: 352 352 165
Width: 487
VWidth: 716
Flags: HMW
HStem: 216.75 47<257.75 357.25 291.75 357.25 357.25 361.25> 367.75 45.5<255.25 366.25 291.75 357.25> 512.25 46.5<287.75 291.75 291.75 357.25> 587.25 10.5G<304.25 304.25 304.25 344.75> 642.75 10G
VStem: 203.25 50.5<289.75 298.75 298.75 298.75 442.25 448.75 448.75 476.75> 240.75 167.5 395.25 50.5<299.25 332.25 332.25 339.25 265.25 344.75 477.75 485.75>
CounterMasks: 1 07
LayerCount: 2
Fore
SplineSet
253.75 312.25 m 1
 253.75 299.25 l 2
 253.75 274.25 261.75 263.75 291.75 263.75 c 2
 357.25 263.75 l 2
 387.25 263.75 395.25 274.25 395.25 299.25 c 2
 395.25 332.25 l 2
 395.25 357.25 387.25 367.75 357.25 367.75 c 2
 282.75 367.75 l 2
 227.75 367.75 203.25 391.25 203.25 442.25 c 2
 203.25 484.25 l 2
 203.25 535.75 232.75 558.75 287.75 558.75 c 2
 363.75 558.75 l 2
 418.75 558.75 445.75 536.75 445.75 485.75 c 2
 445.75 477.75 l 1
 395.25 464.25 l 1
 395.25 476.75 l 2
 395.25 501.75 387.25 512.25 357.25 512.25 c 2
 291.75 512.25 l 2
 261.75 512.25 253.75 501.75 253.75 476.75 c 2
 253.75 448.75 l 2
 253.75 423.75 261.75 413.25 291.75 413.25 c 2
 366.25 413.25 l 2
 421.25 413.25 445.75 390.75 445.75 339.25 c 2
 445.75 290.75 l 2
 445.75 239.75 416.25 216.75 361.25 216.75 c 2
 285.25 216.75 l 2
 230.25 216.75 203.25 238.25 203.25 289.75 c 2
 203.25 298.75 l 1
 253.75 312.25 l 1
304.25 587.25 m 1
 252.75 650.25 l 1
 298.75 650.25 l 1
 323.25 617.75 l 1
 326.25 617.75 l 1
 350.75 650.25 l 1
 396.75 650.25 l 1
 344.75 587.25 l 1
 304.25 587.25 l 1
EndSplineSet
Substitution2: "'c2sc' Capitals to Small Capitals in Latin lookup 2 subtable" Scaron.sc
Substitution2: "'aalt' Access All Alternates in Latin lookup 0 subtable" Scaron.sc
EndChar

StartChar: Zcaron
Encoding: 381 381 166
Width: 487
VWidth: 716
Flags: HMW
HStem: 216.75 47<261.5 450 261.5 450> 512.25 46.5<206.5 381 206.5 444> 587.25 10.5G<304 304 304 344.5> 642.75 10G
VStem: 240.5 167.5
LayerCount: 2
Fore
SplineSet
450 216.75 m 1
 198 216.75 l 1
 198 260.75 l 1
 381 512.25 l 1
 206.5 512.25 l 1
 206.5 558.75 l 1
 444 558.75 l 1
 444 514.25 l 1
 261.5 263.75 l 1
 450 263.75 l 1
 450 216.75 l 1
304 587.25 m 1xc8
 252.5 650.25 l 1
 298.5 650.25 l 1
 323 617.75 l 1
 326 617.75 l 1
 350.5 650.25 l 1
 396.5 650.25 l 1
 344.5 587.25 l 1
 304 587.25 l 1xc8
EndSplineSet
Substitution2: "'c2sc' Capitals to Small Capitals in Latin lookup 2 subtable" Zcaron.sc
Substitution2: "'aalt' Access All Alternates in Latin lookup 0 subtable" Zcaron.sc
EndChar

StartChar: Ntilde
Encoding: 209 209 167
Width: 487
VWidth: 717
Flags: HMW
HStem: 217.25 10.5G<196.75 247.25 196.75 196.75 403.25 452.25 403.25 403.25> 549.25 10G<196.75 245.25 245.25 245.25 401.75 452.25 452.25 452.25> 590.75 36.5<340.5 356.25 340.5 371.75> 615.25 36.5<292.75 308.5>
VStem: 196.75 50.5<217.25 462.25 217.25 559.25> 243.25 162.5<592.25 650.25> 401.75 50.5<310.75 559.25>
LayerCount: 2
Fore
SplineSet
452.25 217.25 m 1xca
 403.25 217.25 l 1
 249.75 462.25 l 1
 247.25 462.25 l 1
 247.25 217.25 l 1
 196.75 217.25 l 1
 196.75 559.25 l 1
 245.25 559.25 l 1
 399.25 310.75 l 1
 401.75 310.75 l 1
 401.75 559.25 l 1
 452.25 559.25 l 1
 452.25 217.25 l 1xca
368.25 650.25 m 1x24
 405.75 650.25 l 1
 405.75 618.25 389.75 590.75 353.75 590.75 c 0x24
 322.75 590.75 318.25 615.25 298.75 615.25 c 0
 286.75 615.25 280.75 607.75 280.75 592.25 c 1
 243.25 592.25 l 1
 243.25 624.25 259.25 651.75 295.25 651.75 c 0x14
 326.25 651.75 330.75 627.25 350.25 627.25 c 0
 362.25 627.25 368.25 634.75 368.25 650.25 c 1x24
EndSplineSet
Substitution2: "'c2sc' Capitals to Small Capitals in Latin lookup 2 subtable" Ntilde.sc
Substitution2: "'aalt' Access All Alternates in Latin lookup 0 subtable" Ntilde.sc
EndChar

StartChar: Ccedilla
Encoding: 199 199 168
Width: 487
VWidth: 628
Flags: HMW
HStem: 43.5 33<262.25 292.75 262.25 301.75 262.25 323.75> 101 10G<318.75 359.25 318.75 318.75> 128.5 47<256.75 360.25 291.25 360.25 360.25 366.75> 424 46.5<284.25 291.25 291.25 360.25>
VStem: 202.25 50.5<201.5 211 211 388.5> 318.75 40.5<96 102 102 111> 398.25 50.5<211 224 175.75 239 175.75 239 377 388.5 388.5 397.5>
LayerCount: 2
Fore
SplineSet
359.25 111 m 1
 318.75 111 l 1
 318.75 102 l 2
 318.75 83.5 313.75 76.5 292.75 76.5 c 2
 262.25 76.5 l 1
 248.25 43.5 l 1
 301.75 43.5 l 2
 345.75 43.5 359.25 61 359.25 96 c 2
 359.25 111 l 1
448.75 224 m 1x3a
 448.75 201.5 l 2
 448.75 150 421.75 128.5 366.75 128.5 c 2
 284.25 128.5 l 2
 229.25 128.5 202.25 150 202.25 201.5 c 2
 202.25 397.5 l 2
 202.25 448.5 229.25 470.5 284.25 470.5 c 2
 366.75 470.5 l 2
 421.75 470.5 448.75 448.5 448.75 397.5 c 2
 448.75 377 l 1
 398.25 363.5 l 1
 398.25 388.5 l 2
 398.25 413.5 390.25 424 360.25 424 c 2
 291.25 424 l 2
 261.25 424 252.75 413.5 252.75 388.5 c 2
 252.75 211 l 2
 252.75 186 261.25 175.5 291.25 175.5 c 2
 360.25 175.5 l 2
 390.25 175.5 398.25 186 398.25 211 c 2
 398.25 239 l 1
 448.75 224 l 1x3a
EndSplineSet
Substitution2: "'c2sc' Capitals to Small Capitals in Latin lookup 2 subtable" Ccedilla.sc
Substitution2: "'aalt' Access All Alternates in Latin lookup 0 subtable" Ccedilla.sc
EndChar

StartChar: Aring
Encoding: 197 197 169
Width: 487
VWidth: 726
Flags: HMW
HStem: 226.75 10.5G<186 236.5 186 186 413.5 464 413.5 413.5> 332.75 45<265.5 384 265.5 400 249.5 384> 558.75 10G<299 351 351 351> 586.75 25.5<318.5 331 318.5 338.25> 654.75 25.5<318.5 331>
VStem: 186 63.5<226.75 332.75 312.75 332.75> 276.5 27<627.25 639.75 627.25 647> 346 26.5<627.25 639.75> 413.5 50.5<226.75 304.25 304.25 304.25>
LayerCount: 2
Fore
SplineSet
351 568.75 m 1
 464 312.75 l 1
 464 226.75 l 1
 413.5 226.75 l 1
 413.5 304.25 l 1
 400 332.75 l 1
 249.5 332.75 l 1
 236.5 304.25 l 1
 236.5 226.75 l 1
 186 226.75 l 1
 186 312.75 l 1
 299 568.75 l 1
 351 568.75 l 1
324 510.75 m 1
 265.5 377.75 l 1
 384 377.75 l 1
 326 510.75 l 1
 324 510.75 l 1
303.5 633.25 m 0x1b
 303.5 621.25 312.5 612.25 324.5 612.25 c 0
 337.5 612.25 346 621.25 346 633.25 c 0
 346 646.25 337.5 654.75 324.5 654.75 c 0
 312.5 654.75 303.5 646.25 303.5 633.25 c 0x1b
276.5 633.25 m 0
 276.5 660.75 297 680.25 324.5 680.25 c 0
 352 680.25 372.5 660.75 372.5 633.25 c 0
 372.5 606.25 352 586.75 324.5 586.75 c 0
 297 586.75 276.5 606.25 276.5 633.25 c 0
EndSplineSet
Substitution2: "'ss01' Style Set 1 in Latin lookup 5 subtable" Yacute.alt1
Substitution2: "'salt' Stylistic Alternatives in Latin lookup 4 subtable" Yacute.alt1
Substitution2: "'c2sc' Capitals to Small Capitals in Latin lookup 2 subtable" Aring.sc
AlternateSubs2: "'aalt' Access All Alternates in Latin lookup 1 subtable" Aring.sc Yacute.alt1
EndChar

StartChar: Adieresis.alt1
Encoding: 65570 -1 170
Width: 487
VWidth: 712
Flags: HMW
HStem: 212 10.5G<174 230.5 174 174 419.5 476 419.5 419.5> 287 45<268.5 381.5 268.5 393 257 381.5> 544 10G<298.5 351 351 351> 593.5 42.5<254.5 303.5 254.5 303.5 346.5 395>
VStem: 254.5 49<593.5 636 593.5 636> 346.5 48.5<593.5 636 593.5 636>
LayerCount: 2
Fore
SplineSet
351 554 m 1
 476 212 l 1
 419.5 212 l 1
 393 287 l 1
 257 287 l 1
 230.5 212 l 1
 174 212 l 1
 298.5 554 l 1
 351 554 l 1
324 488.5 m 1
 268.5 332 l 1
 381.5 332 l 1
 326 488.5 l 1
 324 488.5 l 1
303.5 593.5 m 1x1c
 254.5 593.5 l 1
 254.5 636 l 1
 303.5 636 l 1
 303.5 593.5 l 1x1c
395 593.5 m 1
 346.5 593.5 l 1
 346.5 636 l 1
 395 636 l 1
 395 593.5 l 1
EndSplineSet
EndChar

StartChar: Aacute.alt1
Encoding: 65571 -1 171
Width: 487
VWidth: 716
Flags: HMW
HStem: 216.25 10.5G<174 230.5 174 174 419.5 476 419.5 419.5> 291.25 45<268.5 381.5 268.5 393 257 381.5> 548.25 10G<298.5 351 351 351> 587.75 10.5G<291 340.5 291 291> 638.75 10G<339.5 388.5 388.5 388.5>
VStem: 291 97.5<587.75 648.75>
LayerCount: 2
Fore
SplineSet
351 558.25 m 1
 476 216.25 l 1
 419.5 216.25 l 1
 393 291.25 l 1
 257 291.25 l 1
 230.5 216.25 l 1
 174 216.25 l 1
 298.5 558.25 l 1
 351 558.25 l 1
324 492.75 m 1
 268.5 336.25 l 1
 381.5 336.25 l 1
 326 492.75 l 1
 324 492.75 l 1
388.5 648.75 m 1x1c
 340.5 587.75 l 1
 291 587.75 l 1
 339.5 648.75 l 1
 388.5 648.75 l 1x1c
EndSplineSet
EndChar

StartChar: Agrave.alt1
Encoding: 65572 -1 172
Width: 487
VWidth: 716
Flags: HMW
HStem: 216.25 10.5G<174 230.5 174 174 419.5 476 419.5 419.5> 291.25 45<268.5 381.5 268.5 393 257 381.5> 548.25 10G<298.5 351 351 351> 586.75 10.5G 642.25 10G
VStem: 264.5 104.5
LayerCount: 2
Fore
SplineSet
351 558.25 m 1
 476 216.25 l 1
 419.5 216.25 l 1
 393 291.25 l 1
 257 291.25 l 1
 230.5 216.25 l 1
 174 216.25 l 1
 298.5 558.25 l 1
 351 558.25 l 1
324 492.75 m 1
 268.5 336.25 l 1
 381.5 336.25 l 1
 326 492.75 l 1
 324 492.75 l 1
309 587.75 m 1
 261 648.75 l 1xa4
 310 648.75 l 1
 358.5 587.75 l 1
 309 587.75 l 1
EndSplineSet
EndChar

StartChar: Acircumflex.alt1
Encoding: 65573 -1 173
Width: 487
VWidth: 716
Flags: HMW
HStem: 216.75 10.5G<174 230.5 174 174 419.5 476 419.5 419.5> 291.75 45<268.5 381.5 268.5 393 257 381.5> 548.75 10G<298.5 351 351 351> 587.25 10.5G<253 253 253 299 351 351 351 397> 640.25 10G<304.5 345 345 345>
VStem: 253 144<587.25 587.25>
LayerCount: 2
Fore
SplineSet
351 558.75 m 1
 476 216.75 l 1
 419.5 216.75 l 1
 393 291.75 l 1
 257 291.75 l 1
 230.5 216.75 l 1
 174 216.75 l 1
 298.5 558.75 l 1
 351 558.75 l 1
324 493.25 m 1
 268.5 336.75 l 1
 381.5 336.75 l 1
 326 493.25 l 1
 324 493.25 l 1
253 587.25 m 1
 304.5 650.25 l 1x1c
 345 650.25 l 1
 397 587.25 l 1
 351 587.25 l 1
 326.5 619.75 l 1
 323 619.75 l 1
 299 587.25 l 1
 253 587.25 l 1
EndSplineSet
EndChar

StartChar: Atilde.alt1
Encoding: 65574 -1 174
Width: 487
VWidth: 717
Flags: HMW
HStem: 217.25 10.5G<174 230.5 174 174 419.5 476 419.5 419.5> 292.25 45<268.5 381.5 268.5 393 257 381.5> 549.25 10G<298.5 351 351 351> 590.75 36.5<340.75 356.5 340.75 372> 615.25 36.5<293 308.75>
VStem: 243.5 162.5<592.25 650.25>
LayerCount: 2
Fore
SplineSet
351 559.25 m 1xe0
 476 217.25 l 1
 419.5 217.25 l 1
 393 292.25 l 1
 257 292.25 l 1
 230.5 217.25 l 1
 174 217.25 l 1
 298.5 559.25 l 1
 351 559.25 l 1xe0
324 493.75 m 1
 268.5 337.25 l 1
 381.5 337.25 l 1
 326 493.75 l 1
 324 493.75 l 1
368.5 650.25 m 1x14
 406 650.25 l 1
 406 618.25 390 590.75 354 590.75 c 0x14
 323 590.75 318.5 615.25 299 615.25 c 0
 287 615.25 281 607.75 281 592.25 c 1
 243.5 592.25 l 1
 243.5 624.25 259.5 651.75 295.5 651.75 c 0x0c
 326.5 651.75 331 627.25 350.5 627.25 c 0
 362.5 627.25 368.5 634.75 368.5 650.25 c 1x14
EndSplineSet
EndChar

StartChar: Amacron.alt1
Encoding: 65575 -1 175
Width: 487
VWidth: 709
Flags: HMW
HStem: 209.75 10.5G<174 230.5 174 174 419.5 476 419.5 419.5> 284.75 45<268.5 381.5 268.5 393 257 381.5> 541.75 10G<298.5 351 351 351> 592.75 36.5<252 398 252 398>
VStem: 252 146<592.75 629.25 592.75 629.25>
LayerCount: 2
Fore
SplineSet
351 551.75 m 1
 476 209.75 l 1
 419.5 209.75 l 1
 393 284.75 l 1
 257 284.75 l 1
 230.5 209.75 l 1
 174 209.75 l 1
 298.5 551.75 l 1
 351 551.75 l 1
324 486.25 m 1
 268.5 329.75 l 1
 381.5 329.75 l 1
 326 486.25 l 1
 324 486.25 l 1
398 592.75 m 1x18
 252 592.75 l 1
 252 629.25 l 1
 398 629.25 l 1
 398 592.75 l 1x18
EndSplineSet
EndChar

StartChar: Ydieresis.alt1
Encoding: 65576 -1 176
Width: 487
VWidth: 712
Flags: HMW
HStem: 212 10.5G<299.25 349.75 299.25 299.25> 544 10G<177.25 235.75 235.75 235.75 413.25 471.75 471.75 471.75> 593.5 42.5<254.25 303.25 254.25 303.25 346.25 394.75>
VStem: 254.25 49<593.5 636 593.5 636> 299.25 50.5<212 363.5 212 363.5> 346.25 48.5<593.5 636 593.5 636>
LayerCount: 2
Fore
SplineSet
303.25 593.5 m 1x34
 254.25 593.5 l 1
 254.25 636 l 1
 303.25 636 l 1
 303.25 593.5 l 1x34
394.75 593.5 m 1
 346.25 593.5 l 1
 346.25 636 l 1
 394.75 636 l 1
 394.75 593.5 l 1
471.75 554 m 1xc8
 349.75 363.5 l 1
 349.75 212 l 1
 299.25 212 l 1
 299.25 363.5 l 1
 177.25 554 l 1
 235.75 554 l 1
 324.75 412 l 1
 413.25 554 l 1
 471.75 554 l 1xc8
EndSplineSet
EndChar

StartChar: Yacute.alt1
Encoding: 65577 -1 177
Width: 487
VWidth: 716
Flags: HMW
HStem: 216.25 10.5G<299.25 349.75 299.25 299.25> 548.25 10G<177.25 235.75 235.75 235.75 413.25 471.75 471.75 471.75> 587.75 10.5G<290.75 340.25 290.75 290.75> 638.75 10G<339.25 388.25 388.25 388.25>
VStem: 290.75 97.5<587.75 648.75> 299.25 50.5<216.25 367.75 216.25 367.75>
LayerCount: 2
Fore
SplineSet
388.25 648.75 m 1x38
 340.25 587.75 l 1
 290.75 587.75 l 1
 339.25 648.75 l 1
 388.25 648.75 l 1x38
471.75 558.25 m 1xc4
 349.75 367.75 l 1
 349.75 216.25 l 1
 299.25 216.25 l 1
 299.25 367.75 l 1
 177.25 558.25 l 1
 235.75 558.25 l 1
 324.75 416.25 l 1
 413.25 558.25 l 1
 471.75 558.25 l 1xc4
EndSplineSet
EndChar

StartChar: Aring.alt1
Encoding: 65578 -1 178
Width: 487
VWidth: 726
Flags: HMW
HStem: 226.75 10.5G<174 230.5 174 174 419.5 476 419.5 419.5> 301.75 45<268.5 381.5 268.5 393 257 381.5> 558.75 10G<298.5 351 351 351> 586.75 25.5<318.5 331 318.5 338.25> 654.75 25.5<318.5 331>
VStem: 276.5 27<627.25 639.75 627.25 647> 346 26.5<627.25 639.75>
LayerCount: 2
Fore
SplineSet
351 568.75 m 1
 476 226.75 l 1
 419.5 226.75 l 1
 393 301.75 l 1
 257 301.75 l 1
 230.5 226.75 l 1
 174 226.75 l 1
 298.5 568.75 l 1
 351 568.75 l 1
324 503.25 m 1
 268.5 346.75 l 1
 381.5 346.75 l 1
 326 503.25 l 1
 324 503.25 l 1
303.5 633.25 m 0x1e
 303.5 621.25 312.5 612.25 324.5 612.25 c 0
 337.5 612.25 346 621.25 346 633.25 c 0
 346 646.25 337.5 654.75 324.5 654.75 c 0
 312.5 654.75 303.5 646.25 303.5 633.25 c 0x1e
276.5 633.25 m 0
 276.5 660.75 297 680.25 324.5 680.25 c 0
 352 680.25 372.5 660.75 372.5 633.25 c 0
 372.5 606.25 352 586.75 324.5 586.75 c 0
 297 586.75 276.5 606.25 276.5 633.25 c 0
EndSplineSet
EndChar

StartChar: Adieresis.sc
Encoding: 63460 63460 179
Width: 487
VWidth: 675
Flags: HMW
HStem: 175.75 10.5G<193.5 242.5 242.5 242.5 407 456.5 456.5 456.5> 245.25 42.5<272 272 272 378> 429.75 10G<302.5 347.5 302.5 302.5> 484.75 42.5<254.5 303.5 254.5 303.5 346.5 395>
VStem: 193.5 49<175.75 219.25 175.75 235.75 175.75 219.25> 254.5 49<484.75 527.25 484.75 527.25> 346.5 48.5<484.75 527.25 484.75 527.25> 407 49.5<175.75 219.25 175.75 235.75>
LayerCount: 2
Fore
SplineSet
456.5 235.75 m 1
 347.5 439.75 l 1
 302.5 439.75 l 1
 193.5 235.75 l 1
 193.5 175.75 l 1
 242.5 175.75 l 1
 242.5 219.25 l 1
 255.5 245.25 l 1
 394 245.25 l 1
 407 219.25 l 1
 407 175.75 l 1
 456.5 175.75 l 1
 456.5 235.75 l 1
272 287.75 m 1
 324.5 386.75 l 1
 325.5 386.75 l 1
 378 287.75 l 1
 272 287.75 l 1
303.5 484.75 m 1x16
 254.5 484.75 l 1
 254.5 527.25 l 1
 303.5 527.25 l 1
 303.5 484.75 l 1x16
395 484.75 m 1
 346.5 484.75 l 1
 346.5 527.25 l 1
 395 527.25 l 1
 395 484.75 l 1
EndSplineSet
Substitution2: "'ss01' Style Set 1 in Latin lookup 5 subtable" Adieresis.scalt1
Substitution2: "'salt' Stylistic Alternatives in Latin lookup 4 subtable" Adieresis.scalt1
Substitution2: "'aalt' Access All Alternates in Latin lookup 0 subtable" Adieresis.scalt1
EndChar

StartChar: Aacute.sc
Encoding: 63457 63457 180
Width: 487
VWidth: 680
Flags: HMW
HStem: 180.25 10.5G<193.5 242.5 242.5 242.5 407 456.5 456.5 456.5> 249.75 42.5<272 272 272 378> 434.25 10G<302.5 347.5 302.5 302.5> 479.75 10.5G<291 340.5 291 291> 530.75 10G<339.5 388.5 388.5 388.5>
VStem: 193.5 49<180.25 223.75 180.25 240.25 180.25 223.75> 291 97.5<479.75 540.75> 407 49.5<180.25 223.75 180.25 240.25>
LayerCount: 2
Fore
SplineSet
456.5 240.25 m 1
 347.5 444.25 l 1
 302.5 444.25 l 1
 193.5 240.25 l 1
 193.5 180.25 l 1
 242.5 180.25 l 1
 242.5 223.75 l 1
 255.5 249.75 l 1
 394 249.75 l 1
 407 223.75 l 1
 407 180.25 l 1
 456.5 180.25 l 1
 456.5 240.25 l 1
272 292.25 m 1
 324.5 391.25 l 1
 325.5 391.25 l 1
 378 292.25 l 1
 272 292.25 l 1
388.5 540.75 m 1x1a
 340.5 479.75 l 1
 291 479.75 l 1
 339.5 540.75 l 1
 388.5 540.75 l 1x1a
EndSplineSet
Substitution2: "'ss01' Style Set 1 in Latin lookup 5 subtable" Aacute.scalt1
Substitution2: "'salt' Stylistic Alternatives in Latin lookup 4 subtable" Aacute.scalt1
Substitution2: "'aalt' Access All Alternates in Latin lookup 0 subtable" Aacute.scalt1
EndChar

StartChar: Agrave.sc
Encoding: 63456 63456 181
Width: 487
VWidth: 680
Flags: HMW
HStem: 180.25 10.5G<193.5 242.5 193.5 193.5 407 456.5 407 407> 249.75 42.5<272 378 272 394 255.5 378> 434.25 10G<302.5 347.5 347.5 347.5> 478.75 10.5G 534.25 10G
VStem: 193.5 49<180.25 223.75 180.25 240.25 180.25 240.25> 264.5 104.5 407 49.5<180.25 223.75 223.75 223.75>
LayerCount: 2
Fore
SplineSet
347.5 444.25 m 1
 456.5 240.25 l 1
 456.5 180.25 l 1
 407 180.25 l 1
 407 223.75 l 1
 394 249.75 l 1
 255.5 249.75 l 1
 242.5 223.75 l 1
 242.5 180.25 l 1
 193.5 180.25 l 1
 193.5 240.25 l 1
 302.5 444.25 l 1
 347.5 444.25 l 1
324.5 391.25 m 1
 272 292.25 l 1
 378 292.25 l 1
 325.5 391.25 l 1
 324.5 391.25 l 1
309 479.75 m 1
 261 540.75 l 1xa1
 310 540.75 l 1
 358.5 479.75 l 1
 309 479.75 l 1
EndSplineSet
Substitution2: "'ss01' Style Set 1 in Latin lookup 5 subtable" Agrave.scalt1
Substitution2: "'salt' Stylistic Alternatives in Latin lookup 4 subtable" Agrave.scalt1
Substitution2: "'aalt' Access All Alternates in Latin lookup 0 subtable" Agrave.scalt1
EndChar

StartChar: Acircumflex.sc
Encoding: 63458 63458 182
Width: 487
VWidth: 680
Flags: HMW
HStem: 180.75 10.5G<193.5 242.5 193.5 193.5 407 456.5 407 407> 250.25 42.5<272 378 272 394 255.5 378> 434.75 10G<302.5 347.5 347.5 347.5> 479.25 10.5G<253 253 253 299 351 351 351 397> 532.25 10G<304.5 345 345 345>
VStem: 193.5 49<180.75 224.25 180.75 240.75 180.75 240.75> 253 144<479.25 479.25> 407 49.5<180.75 224.25 224.25 224.25>
LayerCount: 2
Fore
SplineSet
347.5 444.75 m 1
 456.5 240.75 l 1
 456.5 180.75 l 1
 407 180.75 l 1
 407 224.25 l 1
 394 250.25 l 1
 255.5 250.25 l 1
 242.5 224.25 l 1
 242.5 180.75 l 1
 193.5 180.75 l 1
 193.5 240.75 l 1
 302.5 444.75 l 1
 347.5 444.75 l 1
324.5 391.75 m 1
 272 292.75 l 1
 378 292.75 l 1
 325.5 391.75 l 1
 324.5 391.75 l 1
253 479.25 m 1
 304.5 542.25 l 1x1a
 345 542.25 l 1
 397 479.25 l 1
 351 479.25 l 1
 326.5 511.75 l 1
 323 511.75 l 1
 299 479.25 l 1
 253 479.25 l 1
EndSplineSet
Substitution2: "'ss01' Style Set 1 in Latin lookup 5 subtable" Acircumflex.scalt1
Substitution2: "'salt' Stylistic Alternatives in Latin lookup 4 subtable" Acircumflex.scalt1
Substitution2: "'aalt' Access All Alternates in Latin lookup 0 subtable" Acircumflex.scalt1
EndChar

StartChar: Atilde.sc
Encoding: 63459 63459 183
Width: 487
VWidth: 680
Flags: HMW
HStem: 180.25 10.5G<193.5 242.5 242.5 242.5 407 456.5 456.5 456.5> 249.75 42.5<272 272 272 378> 434.25 10G<302.5 347.5 302.5 302.5> 479.75 36.5<340.75 356.5 340.75 372> 504.25 36.5<293 308.75>
VStem: 193.5 49<180.25 223.75 180.25 240.25 180.25 223.75> 243.5 162.5<481.25 539.25> 407 49.5<180.25 223.75 180.25 240.25>
LayerCount: 2
Fore
SplineSet
456.5 240.25 m 1xe5
 347.5 444.25 l 1
 302.5 444.25 l 1
 193.5 240.25 l 1
 193.5 180.25 l 1
 242.5 180.25 l 1
 242.5 223.75 l 1
 255.5 249.75 l 1
 394 249.75 l 1
 407 223.75 l 1
 407 180.25 l 1
 456.5 180.25 l 1
 456.5 240.25 l 1xe5
272 292.25 m 1
 324.5 391.25 l 1
 325.5 391.25 l 1
 378 292.25 l 1
 272 292.25 l 1
368.5 539.25 m 1x12
 406 539.25 l 1
 406 507.25 390 479.75 354 479.75 c 0x12
 323 479.75 318.5 504.25 299 504.25 c 0
 287 504.25 281 496.75 281 481.25 c 1
 243.5 481.25 l 1
 243.5 513.25 259.5 540.75 295.5 540.75 c 0x0a
 326.5 540.75 331 516.25 350.5 516.25 c 0
 362.5 516.25 368.5 523.75 368.5 539.25 c 1x12
EndSplineSet
Substitution2: "'ss01' Style Set 1 in Latin lookup 5 subtable" Atilde.scalt1
Substitution2: "'salt' Stylistic Alternatives in Latin lookup 4 subtable" Atilde.scalt1
Substitution2: "'aalt' Access All Alternates in Latin lookup 0 subtable" Atilde.scalt1
EndChar

StartChar: Amacron.sc
Encoding: 63086 63086 184
Width: 487
VWidth: 674
Flags: HMW
HStem: 174.25 10.5G<193.5 242.5 242.5 242.5 407 456.5 456.5 456.5> 243.75 42.5<272 272 272 378> 428.25 10G<302.5 347.5 302.5 302.5> 486.25 36.5<252 398 252 398>
VStem: 193.5 49<174.25 217.75 174.25 234.25 174.25 217.75> 252 146<486.25 522.75 486.25 522.75> 407 49.5<174.25 217.75 174.25 234.25>
LayerCount: 2
Fore
SplineSet
456.5 234.25 m 1
 347.5 438.25 l 1
 302.5 438.25 l 1
 193.5 234.25 l 1
 193.5 174.25 l 1
 242.5 174.25 l 1
 242.5 217.75 l 1
 255.5 243.75 l 1
 394 243.75 l 1
 407 217.75 l 1
 407 174.25 l 1
 456.5 174.25 l 1
 456.5 234.25 l 1
272 286.25 m 1
 324.5 385.25 l 1
 325.5 385.25 l 1
 378 286.25 l 1
 272 286.25 l 1
398 486.25 m 1x14
 252 486.25 l 1
 252 522.75 l 1
 398 522.75 l 1
 398 486.25 l 1x14
EndSplineSet
Substitution2: "'ss01' Style Set 1 in Latin lookup 5 subtable" Amacron.scalt1
Substitution2: "'salt' Stylistic Alternatives in Latin lookup 4 subtable" Amacron.scalt1
Substitution2: "'aalt' Access All Alternates in Latin lookup 0 subtable" Amacron.scalt1
EndChar

StartChar: Edieresis.sc
Encoding: 63467 63467 185
Width: 487
VWidth: 675
Flags: HMW
HStem: 175.75 43.5<266.5 432.5 266.5 432.5> 291.25 40<266.5 403 266.5 403> 397.25 42.5<266.5 432.5 266.5 266.5> 484.75 42.5<254.5 303.5 254.5 303.5 346.5 395>
VStem: 217.5 49<219.25 291.25 331.25 397.25> 254.5 49<484.75 527.25 484.75 527.25> 346.5 48.5<484.75 527.25 484.75 527.25>
LayerCount: 2
Fore
SplineSet
432.5 175.75 m 1xe8
 217.5 175.75 l 1
 217.5 439.75 l 1
 432.5 439.75 l 1
 432.5 397.25 l 1
 266.5 397.25 l 1
 266.5 331.25 l 1
 403 331.25 l 1
 403 291.25 l 1
 266.5 291.25 l 1
 266.5 219.25 l 1
 432.5 219.25 l 1
 432.5 175.75 l 1xe8
303.5 484.75 m 1x16
 254.5 484.75 l 1
 254.5 527.25 l 1
 303.5 527.25 l 1
 303.5 484.75 l 1x16
395 484.75 m 1
 346.5 484.75 l 1
 346.5 527.25 l 1
 395 527.25 l 1
 395 484.75 l 1
EndSplineSet
EndChar

StartChar: Eacute.sc
Encoding: 63465 63465 186
Width: 487
VWidth: 680
Flags: HMW
HStem: 180.25 43.5<266.5 432.5 266.5 432.5> 295.75 40<266.5 403 266.5 403> 401.75 42.5<266.5 432.5 266.5 266.5> 479.75 10.5G<291 340.5 291 291> 530.75 10G<339.5 388.5 388.5 388.5>
VStem: 217.5 49<223.75 295.75 335.75 401.75> 291 97.5<479.75 540.75>
LayerCount: 2
Fore
SplineSet
432.5 180.25 m 1
 217.5 180.25 l 1
 217.5 444.25 l 1
 432.5 444.25 l 1
 432.5 401.75 l 1
 266.5 401.75 l 1
 266.5 335.75 l 1
 403 335.75 l 1
 403 295.75 l 1
 266.5 295.75 l 1
 266.5 223.75 l 1
 432.5 223.75 l 1
 432.5 180.25 l 1
388.5 540.75 m 1x1a
 340.5 479.75 l 1
 291 479.75 l 1
 339.5 540.75 l 1
 388.5 540.75 l 1x1a
EndSplineSet
EndChar

StartChar: Egrave.sc
Encoding: 63464 63464 187
Width: 487
VWidth: 680
Flags: HMW
HStem: 180.25 43.5<266.5 432.5 266.5 432.5> 295.75 40<266.5 403 266.5 403> 401.75 42.5<266.5 432.5 266.5 266.5> 478.75 10.5G 534.25 10G
VStem: 217.5 49<223.75 295.75 335.75 401.75> 264.5 104.5
LayerCount: 2
Fore
SplineSet
432.5 180.25 m 1x9a
 217.5 180.25 l 1
 217.5 444.25 l 1
 432.5 444.25 l 1
 432.5 401.75 l 1
 266.5 401.75 l 1
 266.5 335.75 l 1
 403 335.75 l 1
 403 295.75 l 1
 266.5 295.75 l 1
 266.5 223.75 l 1
 432.5 223.75 l 1
 432.5 180.25 l 1x9a
309 479.75 m 1
 261 540.75 l 1x64
 310 540.75 l 1
 358.5 479.75 l 1
 309 479.75 l 1
EndSplineSet
EndChar

StartChar: Ecircumflex.sc
Encoding: 63466 63466 188
Width: 487
VWidth: 680
Flags: HMW
HStem: 180.75 43.5<266.5 432.5 266.5 432.5> 296.25 40<266.5 403 266.5 403> 402.25 42.5<266.5 432.5 266.5 266.5> 479.25 10.5G<253 253 253 299 351 351 351 397> 532.25 10G<304.5 345 345 345>
VStem: 217.5 49<224.25 296.25 336.25 402.25> 253 144<479.25 479.25>
LayerCount: 2
Fore
SplineSet
432.5 180.75 m 1xe4
 217.5 180.75 l 1
 217.5 444.75 l 1
 432.5 444.75 l 1
 432.5 402.25 l 1
 266.5 402.25 l 1
 266.5 336.25 l 1
 403 336.25 l 1
 403 296.25 l 1
 266.5 296.25 l 1
 266.5 224.25 l 1
 432.5 224.25 l 1
 432.5 180.75 l 1xe4
253 479.25 m 1
 304.5 542.25 l 1x1a
 345 542.25 l 1
 397 479.25 l 1
 351 479.25 l 1
 326.5 511.75 l 1
 323 511.75 l 1
 299 479.25 l 1
 253 479.25 l 1
EndSplineSet
EndChar

StartChar: Emacron.sc
Encoding: 63098 63098 189
Width: 487
VWidth: 674
Flags: HMW
HStem: 174.25 43.5<266.5 432.5 266.5 432.5> 289.75 40<266.5 403 266.5 403> 395.75 42.5<266.5 432.5 266.5 266.5> 486.25 36.5<252 398 252 398>
VStem: 217.5 49<217.75 289.75 329.75 395.75> 252 146<486.25 522.75 486.25 522.75>
LayerCount: 2
Fore
SplineSet
432.5 174.25 m 1xe8
 217.5 174.25 l 1
 217.5 438.25 l 1
 432.5 438.25 l 1
 432.5 395.75 l 1
 266.5 395.75 l 1
 266.5 329.75 l 1
 403 329.75 l 1
 403 289.75 l 1
 266.5 289.75 l 1
 266.5 217.75 l 1
 432.5 217.75 l 1
 432.5 174.25 l 1xe8
398 486.25 m 1x14
 252 486.25 l 1
 252 522.75 l 1
 398 522.75 l 1
 398 486.25 l 1x14
EndSplineSet
EndChar

StartChar: Idieresis.sc
Encoding: 63471 63471 190
Width: 487
VWidth: 675
Flags: HMW
HStem: 175.75 47<224.75 299.25 224.75 299.25 349.75 424.25> 393.25 46.5<231.75 299.25 231.75 416.75 349.75 349.75 349.75 416.75> 484.75 42.5<254.25 303.25 254.25 303.25 346.25 394.75>
VStem: 254.25 49<484.75 527.25 484.75 527.25> 299.25 50.5<222.75 393.25 222.75 393.25> 346.25 48.5<484.75 527.25 484.75 527.25>
LayerCount: 2
Fore
SplineSet
224.75 175.75 m 1xc8
 224.75 222.75 l 1
 299.25 222.75 l 1
 299.25 393.25 l 1
 231.75 393.25 l 1
 231.75 439.75 l 1
 416.75 439.75 l 1
 416.75 393.25 l 1
 349.75 393.25 l 1
 349.75 222.75 l 1
 424.25 222.75 l 1
 424.25 175.75 l 1
 224.75 175.75 l 1xc8
303.25 484.75 m 1x34
 254.25 484.75 l 1
 254.25 527.25 l 1
 303.25 527.25 l 1
 303.25 484.75 l 1x34
394.75 484.75 m 1
 346.25 484.75 l 1
 346.25 527.25 l 1
 394.75 527.25 l 1
 394.75 484.75 l 1
EndSplineSet
EndChar

StartChar: Iacute.sc
Encoding: 63469 63469 191
Width: 487
VWidth: 680
Flags: HMW
HStem: 180.25 47<224.75 299.25 224.75 299.25 349.75 424.25> 397.75 46.5<231.75 299.25 231.75 416.75 349.75 349.75 349.75 416.75> 479.75 10.5G<290.75 340.25 290.75 290.75> 530.75 10G<339.25 388.25 388.25 388.25>
VStem: 290.75 97.5<479.75 540.75> 299.25 50.5<227.25 397.75 227.25 397.75>
LayerCount: 2
Fore
SplineSet
224.75 180.25 m 1xc4
 224.75 227.25 l 1
 299.25 227.25 l 1
 299.25 397.75 l 1
 231.75 397.75 l 1
 231.75 444.25 l 1
 416.75 444.25 l 1
 416.75 397.75 l 1
 349.75 397.75 l 1
 349.75 227.25 l 1
 424.25 227.25 l 1
 424.25 180.25 l 1
 224.75 180.25 l 1xc4
388.25 540.75 m 1x38
 340.25 479.75 l 1
 290.75 479.75 l 1
 339.25 540.75 l 1
 388.25 540.75 l 1x38
EndSplineSet
EndChar

StartChar: Igrave.sc
Encoding: 63468 63468 192
Width: 487
VWidth: 680
Flags: HMW
HStem: 180.25 47<224.75 299.25 224.75 299.25 349.75 424.25> 397.75 46.5<231.75 299.25 231.75 416.75 349.75 349.75 349.75 416.75> 478.75 10.5G 534.25 10G
VStem: 264.25 104.5 299.25 50.5<227.25 397.75 227.25 397.75>
LayerCount: 2
Fore
SplineSet
224.75 180.25 m 1x38
 224.75 227.25 l 1
 299.25 227.25 l 1
 299.25 397.75 l 1
 231.75 397.75 l 1
 231.75 444.25 l 1
 416.75 444.25 l 1
 416.75 397.75 l 1
 349.75 397.75 l 1
 349.75 227.25 l 1
 424.25 227.25 l 1
 424.25 180.25 l 1
 224.75 180.25 l 1x38
308.75 479.75 m 1
 260.75 540.75 l 1xc4
 309.75 540.75 l 1
 358.25 479.75 l 1
 308.75 479.75 l 1
EndSplineSet
EndChar

StartChar: Icircumflex.sc
Encoding: 63470 63470 193
Width: 487
VWidth: 680
Flags: HMW
HStem: 180.75 47<224.75 299.25 224.75 299.25 349.75 424.25> 398.25 46.5<231.75 299.25 231.75 416.75 349.75 349.75 349.75 416.75> 479.25 10.5G<252.75 252.75 252.75 298.75 350.75 350.75 350.75 396.75> 532.25 10G<304.25 344.75 344.75 344.75>
VStem: 252.75 144<479.25 479.25> 299.25 50.5<227.75 398.25 227.75 398.25>
LayerCount: 2
Fore
SplineSet
224.75 180.75 m 1xc4
 224.75 227.75 l 1
 299.25 227.75 l 1
 299.25 398.25 l 1
 231.75 398.25 l 1
 231.75 444.75 l 1
 416.75 444.75 l 1
 416.75 398.25 l 1
 349.75 398.25 l 1
 349.75 227.75 l 1
 424.25 227.75 l 1
 424.25 180.75 l 1
 224.75 180.75 l 1xc4
252.75 479.25 m 1
 304.25 542.25 l 1x38
 344.75 542.25 l 1
 396.75 479.25 l 1
 350.75 479.25 l 1
 326.25 511.75 l 1
 322.75 511.75 l 1
 298.75 479.25 l 1
 252.75 479.25 l 1
EndSplineSet
EndChar

StartChar: Itilde.sc
Encoding: 65579 -1 194
Width: 487
VWidth: 680
Flags: HMW
HStem: 180.25 47<224.75 299.25 224.75 299.25 349.75 424.25> 397.75 46.5<231.75 299.25 231.75 416.75 349.75 349.75 349.75 416.75> 479.75 36.5<340.5 356.25 340.5 371.75> 504.25 36.5<292.75 308.5>
VStem: 243.25 162.5<481.25 539.25> 299.25 50.5<227.25 397.75 227.25 397.75>
LayerCount: 2
Fore
SplineSet
224.75 180.25 m 1xc4
 224.75 227.25 l 1
 299.25 227.25 l 1
 299.25 397.75 l 1
 231.75 397.75 l 1
 231.75 444.25 l 1
 416.75 444.25 l 1
 416.75 397.75 l 1
 349.75 397.75 l 1
 349.75 227.25 l 1
 424.25 227.25 l 1
 424.25 180.25 l 1
 224.75 180.25 l 1xc4
368.25 539.25 m 1x28
 405.75 539.25 l 1
 405.75 507.25 389.75 479.75 353.75 479.75 c 0x28
 322.75 479.75 318.25 504.25 298.75 504.25 c 0
 286.75 504.25 280.75 496.75 280.75 481.25 c 1
 243.25 481.25 l 1
 243.25 513.25 259.25 540.75 295.25 540.75 c 0x18
 326.25 540.75 330.75 516.25 350.25 516.25 c 0
 362.25 516.25 368.25 523.75 368.25 539.25 c 1x28
EndSplineSet
EndChar

StartChar: Imacron.sc
Encoding: 63109 63109 195
Width: 487
VWidth: 674
Flags: HMW
HStem: 174.25 47<224.75 299.25 224.75 299.25 349.75 424.25> 391.75 46.5<231.75 299.25 231.75 416.75 349.75 349.75 349.75 416.75> 486.25 36.5<251.75 397.75 251.75 397.75>
VStem: 251.75 146<486.25 522.75 486.25 522.75> 299.25 50.5<221.25 391.75 221.25 391.75>
LayerCount: 2
Fore
SplineSet
224.75 174.25 m 1xc8
 224.75 221.25 l 1
 299.25 221.25 l 1
 299.25 391.75 l 1
 231.75 391.75 l 1
 231.75 438.25 l 1
 416.75 438.25 l 1
 416.75 391.75 l 1
 349.75 391.75 l 1
 349.75 221.25 l 1
 424.25 221.25 l 1
 424.25 174.25 l 1
 224.75 174.25 l 1xc8
397.75 486.25 m 1x30
 251.75 486.25 l 1
 251.75 522.75 l 1
 397.75 522.75 l 1
 397.75 486.25 l 1x30
EndSplineSet
EndChar

StartChar: Odieresis.sc
Encoding: 63478 63478 196
Width: 487
VWidth: 675
Flags: HMW
HStem: 175.75 47<256 357.75 291.25 357.75 357.75 366.25> 393.25 46.5<282.75 291.25 291.25 357.75> 484.75 42.5<254.25 303.25 254.25 303.25 346.25 394.75>
VStem: 205.75 50.5<244.75 255.75 255.75 360.25> 254.25 49<484.75 527.25 484.75 527.25> 346.25 48.5<484.75 527.25 484.75 527.25> 392.75 50.5<255.75 360.25 360.25 370.25>
LayerCount: 2
Fore
SplineSet
366.25 175.75 m 2xd2
 282.75 175.75 l 2
 229.25 175.75 205.75 194.25 205.75 244.75 c 2
 205.75 370.25 l 2
 205.75 420.75 229.25 439.75 282.75 439.75 c 2
 366.25 439.75 l 2
 419.75 439.75 443.25 420.75 443.25 370.25 c 2
 443.25 244.75 l 2
 443.25 194.25 419.75 175.75 366.25 175.75 c 2xd2
291.25 222.75 m 2
 357.75 222.75 l 2
 385.75 222.75 392.75 231.75 392.75 255.75 c 2
 392.75 360.25 l 2
 392.75 384.25 385.75 393.25 357.75 393.25 c 2
 291.25 393.25 l 2
 263.25 393.25 256.25 384.25 256.25 360.25 c 2
 256.25 255.75 l 2
 256.25 231.75 263.25 222.75 291.25 222.75 c 2
303.25 484.75 m 1x2c
 254.25 484.75 l 1
 254.25 527.25 l 1
 303.25 527.25 l 1
 303.25 484.75 l 1x2c
394.75 484.75 m 1
 346.25 484.75 l 1
 346.25 527.25 l 1
 394.75 527.25 l 1
 394.75 484.75 l 1
EndSplineSet
EndChar

StartChar: Oacute.sc
Encoding: 63475 63475 197
Width: 487
VWidth: 680
Flags: HMW
HStem: 180.25 47<256 357.75 291.25 357.75 357.75 366.25> 397.75 46.5<282.75 291.25 291.25 357.75> 479.75 10.5G<290.75 340.25 290.75 290.75> 530.75 10G<339.25 388.25 388.25 388.25>
VStem: 205.75 50.5<249.25 260.25 260.25 364.75> 290.75 97.5<479.75 540.75> 392.75 50.5<260.25 364.75 364.75 374.75>
LayerCount: 2
Fore
SplineSet
366.25 180.25 m 2
 282.75 180.25 l 2
 229.25 180.25 205.75 198.75 205.75 249.25 c 2
 205.75 374.75 l 2
 205.75 425.25 229.25 444.25 282.75 444.25 c 2
 366.25 444.25 l 2
 419.75 444.25 443.25 425.25 443.25 374.75 c 2
 443.25 249.25 l 2
 443.25 198.75 419.75 180.25 366.25 180.25 c 2
291.25 227.25 m 2
 357.75 227.25 l 2
 385.75 227.25 392.75 236.25 392.75 260.25 c 2
 392.75 364.75 l 2
 392.75 388.75 385.75 397.75 357.75 397.75 c 2
 291.25 397.75 l 2
 263.25 397.75 256.25 388.75 256.25 364.75 c 2
 256.25 260.25 l 2
 256.25 236.25 263.25 227.25 291.25 227.25 c 2
388.25 540.75 m 1x34
 340.25 479.75 l 1
 290.75 479.75 l 1
 339.25 540.75 l 1
 388.25 540.75 l 1x34
EndSplineSet
EndChar

StartChar: Ograve.sc
Encoding: 63474 63474 198
Width: 487
VWidth: 680
Flags: HMW
HStem: 180.25 47<256 357.75 291.25 357.75 357.75 366.25> 397.75 46.5<282.75 291.25 291.25 357.75> 478.75 10.5G 534.25 10G
VStem: 205.75 50.5<249.25 260.25 260.25 364.75> 264.25 104.5 392.75 50.5<260.25 364.75 364.75 374.75>
LayerCount: 2
Fore
SplineSet
366.25 180.25 m 2
 282.75 180.25 l 2
 229.25 180.25 205.75 198.75 205.75 249.25 c 2
 205.75 374.75 l 2
 205.75 425.25 229.25 444.25 282.75 444.25 c 2
 366.25 444.25 l 2
 419.75 444.25 443.25 425.25 443.25 374.75 c 2
 443.25 249.25 l 2
 443.25 198.75 419.75 180.25 366.25 180.25 c 2
291.25 227.25 m 2
 357.75 227.25 l 2
 385.75 227.25 392.75 236.25 392.75 260.25 c 2
 392.75 364.75 l 2
 392.75 388.75 385.75 397.75 357.75 397.75 c 2
 291.25 397.75 l 2
 263.25 397.75 256.25 388.75 256.25 364.75 c 2
 256.25 260.25 l 2
 256.25 236.25 263.25 227.25 291.25 227.25 c 2
308.75 479.75 m 1
 260.75 540.75 l 1xc2
 309.75 540.75 l 1
 358.25 479.75 l 1
 308.75 479.75 l 1
EndSplineSet
EndChar

StartChar: Ocircumflex.sc
Encoding: 63476 63476 199
Width: 487
VWidth: 680
Flags: HMW
HStem: 180.75 47<256 357.75 291.25 357.75 357.75 366.25> 398.25 46.5<282.75 291.25 291.25 357.75> 479.25 10.5G<252.75 252.75 252.75 298.75 350.75 350.75 350.75 396.75> 532.25 10G<304.25 344.75 344.75 344.75>
VStem: 205.75 50.5<249.75 260.75 260.75 365.25> 252.75 144<479.25 479.25> 392.75 50.5<260.75 365.25 365.25 375.25>
LayerCount: 2
Fore
SplineSet
366.25 180.75 m 2xca
 282.75 180.75 l 2
 229.25 180.75 205.75 199.25 205.75 249.75 c 2
 205.75 375.25 l 2
 205.75 425.75 229.25 444.75 282.75 444.75 c 2
 366.25 444.75 l 2
 419.75 444.75 443.25 425.75 443.25 375.25 c 2
 443.25 249.75 l 2
 443.25 199.25 419.75 180.75 366.25 180.75 c 2xca
291.25 227.75 m 2
 357.75 227.75 l 2
 385.75 227.75 392.75 236.75 392.75 260.75 c 2
 392.75 365.25 l 2
 392.75 389.25 385.75 398.25 357.75 398.25 c 2
 291.25 398.25 l 2
 263.25 398.25 256.25 389.25 256.25 365.25 c 2
 256.25 260.75 l 2
 256.25 236.75 263.25 227.75 291.25 227.75 c 2
252.75 479.25 m 1
 304.25 542.25 l 1x34
 344.75 542.25 l 1
 396.75 479.25 l 1
 350.75 479.25 l 1
 326.25 511.75 l 1
 322.75 511.75 l 1
 298.75 479.25 l 1
 252.75 479.25 l 1
EndSplineSet
EndChar

StartChar: Otilde.sc
Encoding: 63477 63477 200
Width: 487
VWidth: 680
Flags: HMW
HStem: 180.25 47<256 357.75 291.25 357.75 357.75 366.25> 397.75 46.5<282.75 291.25 291.25 357.75> 479.75 36.5<340.5 356.25 340.5 371.75> 504.25 36.5<292.75 308.5>
VStem: 205.75 50.5<249.25 260.25 260.25 364.75> 243.25 162.5<481.25 539.25> 392.75 50.5<260.25 364.75 364.75 374.75>
LayerCount: 2
Fore
SplineSet
366.25 180.25 m 2xca
 282.75 180.25 l 2
 229.25 180.25 205.75 198.75 205.75 249.25 c 2
 205.75 374.75 l 2
 205.75 425.25 229.25 444.25 282.75 444.25 c 2
 366.25 444.25 l 2
 419.75 444.25 443.25 425.25 443.25 374.75 c 2
 443.25 249.25 l 2
 443.25 198.75 419.75 180.25 366.25 180.25 c 2xca
291.25 227.25 m 2
 357.75 227.25 l 2
 385.75 227.25 392.75 236.25 392.75 260.25 c 2
 392.75 364.75 l 2
 392.75 388.75 385.75 397.75 357.75 397.75 c 2
 291.25 397.75 l 2
 263.25 397.75 256.25 388.75 256.25 364.75 c 2
 256.25 260.25 l 2
 256.25 236.25 263.25 227.25 291.25 227.25 c 2
368.25 539.25 m 1x24
 405.75 539.25 l 1
 405.75 507.25 389.75 479.75 353.75 479.75 c 0x24
 322.75 479.75 318.25 504.25 298.75 504.25 c 0
 286.75 504.25 280.75 496.75 280.75 481.25 c 1
 243.25 481.25 l 1
 243.25 513.25 259.25 540.75 295.25 540.75 c 0x14
 326.25 540.75 330.75 516.25 350.25 516.25 c 0
 362.25 516.25 368.25 523.75 368.25 539.25 c 1x24
EndSplineSet
EndChar

StartChar: Omacron.sc
Encoding: 63123 63123 201
Width: 487
VWidth: 674
Flags: HMW
HStem: 174.25 47<256 357.75 291.25 357.75 357.75 366.25> 391.75 46.5<282.75 291.25 291.25 357.75> 486.25 36.5<251.75 397.75 251.75 397.75>
VStem: 205.75 50.5<243.25 254.25 254.25 358.75> 251.75 146<486.25 522.75 486.25 522.75> 392.75 50.5<254.25 358.75 358.75 368.75>
LayerCount: 2
Fore
SplineSet
366.25 174.25 m 2xd4
 282.75 174.25 l 2
 229.25 174.25 205.75 192.75 205.75 243.25 c 2
 205.75 368.75 l 2
 205.75 419.25 229.25 438.25 282.75 438.25 c 2
 366.25 438.25 l 2
 419.75 438.25 443.25 419.25 443.25 368.75 c 2
 443.25 243.25 l 2
 443.25 192.75 419.75 174.25 366.25 174.25 c 2xd4
291.25 221.25 m 2
 357.75 221.25 l 2
 385.75 221.25 392.75 230.25 392.75 254.25 c 2
 392.75 358.75 l 2
 392.75 382.75 385.75 391.75 357.75 391.75 c 2
 291.25 391.75 l 2
 263.25 391.75 256.25 382.75 256.25 358.75 c 2
 256.25 254.25 l 2
 256.25 230.25 263.25 221.25 291.25 221.25 c 2
397.75 486.25 m 1x28
 251.75 486.25 l 1
 251.75 522.75 l 1
 397.75 522.75 l 1
 397.75 486.25 l 1x28
EndSplineSet
EndChar

StartChar: Udieresis.sc
Encoding: 63484 63484 202
Width: 487
VWidth: 675
Flags: HMW
HStem: 175.75 47<257 356.25 293.25 356.25 356.25 365.25> 429.75 10G<206.75 257.25 257.25 257.25 391.75 442.25 442.25 442.25> 484.75 42.5<254.25 303.25 254.25 303.25 346.25 394.75>
VStem: 206.75 50.5<244.75 255.75 255.75 439.75> 254.25 49<484.75 527.25 484.75 527.25> 346.25 48.5<484.75 527.25 484.75 527.25> 391.75 50.5<255.75 439.75>
LayerCount: 2
Fore
SplineSet
442.25 439.75 m 1xd2
 442.25 244.75 l 2
 442.25 194.25 418.75 175.75 365.25 175.75 c 2
 283.75 175.75 l 2
 230.25 175.75 206.75 194.25 206.75 244.75 c 2
 206.75 439.75 l 1
 257.25 439.75 l 1
 257.25 255.75 l 2
 257.25 231.75 264.75 222.75 293.25 222.75 c 2
 356.25 222.75 l 2
 384.25 222.75 391.75 231.75 391.75 255.75 c 2
 391.75 439.75 l 1
 442.25 439.75 l 1xd2
303.25 484.75 m 1x2c
 254.25 484.75 l 1
 254.25 527.25 l 1
 303.25 527.25 l 1
 303.25 484.75 l 1x2c
394.75 484.75 m 1
 346.25 484.75 l 1
 346.25 527.25 l 1
 394.75 527.25 l 1
 394.75 484.75 l 1
EndSplineSet
EndChar

StartChar: Uacute.sc
Encoding: 63482 63482 203
Width: 487
VWidth: 680
Flags: HMW
HStem: 180.25 47<257 356.25 293.25 356.25 356.25 365.25> 434.25 10G<206.75 257.25 257.25 257.25 391.75 442.25 442.25 442.25> 479.75 10.5G<290.75 340.25 290.75 290.75> 530.75 10G<339.25 388.25 388.25 388.25>
VStem: 206.75 50.5<249.25 260.25 260.25 444.25> 290.75 97.5<479.75 540.75> 391.75 50.5<260.25 444.25>
LayerCount: 2
Fore
SplineSet
442.25 444.25 m 1
 442.25 249.25 l 2
 442.25 198.75 418.75 180.25 365.25 180.25 c 2
 283.75 180.25 l 2
 230.25 180.25 206.75 198.75 206.75 249.25 c 2
 206.75 444.25 l 1
 257.25 444.25 l 1
 257.25 260.25 l 2
 257.25 236.25 264.75 227.25 293.25 227.25 c 2
 356.25 227.25 l 2
 384.25 227.25 391.75 236.25 391.75 260.25 c 2
 391.75 444.25 l 1
 442.25 444.25 l 1
388.25 540.75 m 1x34
 340.25 479.75 l 1
 290.75 479.75 l 1
 339.25 540.75 l 1
 388.25 540.75 l 1x34
EndSplineSet
EndChar

StartChar: Ugrave.sc
Encoding: 63481 63481 204
Width: 487
VWidth: 680
Flags: HMW
HStem: 180.25 47<257 356.25 293.25 356.25 356.25 365.25> 434.25 10G<206.75 257.25 257.25 257.25 391.75 442.25 442.25 442.25> 478.75 10.5G 534.25 10G
VStem: 206.75 50.5<249.25 260.25 260.25 444.25> 264.25 104.5 391.75 50.5<260.25 444.25>
LayerCount: 2
Fore
SplineSet
442.25 444.25 m 1
 442.25 249.25 l 2
 442.25 198.75 418.75 180.25 365.25 180.25 c 2
 283.75 180.25 l 2
 230.25 180.25 206.75 198.75 206.75 249.25 c 2
 206.75 444.25 l 1
 257.25 444.25 l 1
 257.25 260.25 l 2
 257.25 236.25 264.75 227.25 293.25 227.25 c 2
 356.25 227.25 l 2
 384.25 227.25 391.75 236.25 391.75 260.25 c 2
 391.75 444.25 l 1
 442.25 444.25 l 1
308.75 479.75 m 1
 260.75 540.75 l 1xc2
 309.75 540.75 l 1
 358.25 479.75 l 1
 308.75 479.75 l 1
EndSplineSet
EndChar

StartChar: Ucircumflex.sc
Encoding: 63483 63483 205
Width: 487
VWidth: 680
Flags: HMW
HStem: 180.75 47<257 356.25 293.25 356.25 356.25 365.25> 434.75 10G<206.75 257.25 257.25 257.25 391.75 442.25 442.25 442.25> 479.25 10.5G<252.75 252.75 252.75 298.75 350.75 350.75 350.75 396.75> 532.25 10G<304.25 344.75 344.75 344.75>
VStem: 206.75 50.5<249.75 260.75 260.75 444.75> 252.75 144<479.25 479.25> 391.75 50.5<260.75 444.75>
LayerCount: 2
Fore
SplineSet
442.25 444.75 m 1xca
 442.25 249.75 l 2
 442.25 199.25 418.75 180.75 365.25 180.75 c 2
 283.75 180.75 l 2
 230.25 180.75 206.75 199.25 206.75 249.75 c 2
 206.75 444.75 l 1
 257.25 444.75 l 1
 257.25 260.75 l 2
 257.25 236.75 264.75 227.75 293.25 227.75 c 2
 356.25 227.75 l 2
 384.25 227.75 391.75 236.75 391.75 260.75 c 2
 391.75 444.75 l 1
 442.25 444.75 l 1xca
252.75 479.25 m 1
 304.25 542.25 l 1x34
 344.75 542.25 l 1
 396.75 479.25 l 1
 350.75 479.25 l 1
 326.25 511.75 l 1
 322.75 511.75 l 1
 298.75 479.25 l 1
 252.75 479.25 l 1
EndSplineSet
EndChar

StartChar: Utilde.sc
Encoding: 65580 -1 206
Width: 487
VWidth: 680
Flags: HMW
HStem: 180.25 47<257 356.25 293.25 356.25 356.25 365.25> 434.25 10G<206.75 257.25 257.25 257.25 391.75 442.25 442.25 442.25> 479.75 36.5<340.5 356.25 340.5 371.75> 504.25 36.5<292.75 308.5>
VStem: 206.75 50.5<249.25 260.25 260.25 444.25> 243.25 162.5<481.25 539.25> 391.75 50.5<260.25 444.25>
LayerCount: 2
Fore
SplineSet
442.25 444.25 m 1xca
 442.25 249.25 l 2
 442.25 198.75 418.75 180.25 365.25 180.25 c 2
 283.75 180.25 l 2
 230.25 180.25 206.75 198.75 206.75 249.25 c 2
 206.75 444.25 l 1
 257.25 444.25 l 1
 257.25 260.25 l 2
 257.25 236.25 264.75 227.25 293.25 227.25 c 2
 356.25 227.25 l 2
 384.25 227.25 391.75 236.25 391.75 260.25 c 2
 391.75 444.25 l 1
 442.25 444.25 l 1xca
368.25 539.25 m 1x24
 405.75 539.25 l 1
 405.75 507.25 389.75 479.75 353.75 479.75 c 0x24
 322.75 479.75 318.25 504.25 298.75 504.25 c 0
 286.75 504.25 280.75 496.75 280.75 481.25 c 1
 243.25 481.25 l 1
 243.25 513.25 259.25 540.75 295.25 540.75 c 0x14
 326.25 540.75 330.75 516.25 350.25 516.25 c 0
 362.25 516.25 368.25 523.75 368.25 539.25 c 1x24
EndSplineSet
EndChar

StartChar: Umacron.sc
Encoding: 63137 63137 207
Width: 487
VWidth: 674
Flags: HMW
HStem: 174.25 47<257 356.25 293.25 356.25 356.25 365.25> 428.25 10G<206.75 257.25 257.25 257.25 391.75 442.25 442.25 442.25> 486.25 36.5<251.75 397.75 251.75 397.75>
VStem: 206.75 50.5<243.25 254.25 254.25 438.25> 251.75 146<486.25 522.75 486.25 522.75> 391.75 50.5<254.25 438.25>
LayerCount: 2
Fore
SplineSet
442.25 438.25 m 1xd4
 442.25 243.25 l 2
 442.25 192.75 418.75 174.25 365.25 174.25 c 2
 283.75 174.25 l 2
 230.25 174.25 206.75 192.75 206.75 243.25 c 2
 206.75 438.25 l 1
 257.25 438.25 l 1
 257.25 254.25 l 2
 257.25 230.25 264.75 221.25 293.25 221.25 c 2
 356.25 221.25 l 2
 384.25 221.25 391.75 230.25 391.75 254.25 c 2
 391.75 438.25 l 1
 442.25 438.25 l 1xd4
397.75 486.25 m 1x28
 251.75 486.25 l 1
 251.75 522.75 l 1
 397.75 522.75 l 1
 397.75 486.25 l 1x28
EndSplineSet
EndChar

StartChar: Ydieresis.sc
Encoding: 63487 63487 208
Width: 487
VWidth: 675
Flags: HMW
HStem: 175.75 10.5G<299.25 349.75 299.25 299.25> 429.75 10G<203.25 253.75 253.75 253.75 395.25 445.75 445.75 445.75> 484.75 42.5<254.25 303.25 254.25 303.25 346.25 394.75>
VStem: 203.25 50.5<373.75 439.75 373.75 439.75 373.75 439.75> 254.25 49<484.75 527.25 484.75 527.25> 299.25 50.5<175.75 269.75 175.75 269.75> 346.25 48.5<484.75 527.25 484.75 527.25> 395.25 50.5<373.75 439.75>
LayerCount: 2
Fore
SplineSet
445.75 356.75 m 1xd1
 349.75 269.75 l 1
 349.75 175.75 l 1
 299.25 175.75 l 1
 299.25 269.75 l 1xc4
 203.25 356.75 l 1
 203.25 439.75 l 1
 253.75 439.75 l 1
 253.75 373.75 l 1
 324.75 308.75 l 1
 395.25 373.75 l 1
 395.25 439.75 l 1
 445.75 439.75 l 1
 445.75 356.75 l 1xd1
303.25 484.75 m 1x2a
 254.25 484.75 l 1
 254.25 527.25 l 1
 303.25 527.25 l 1
 303.25 484.75 l 1x2a
394.75 484.75 m 1
 346.25 484.75 l 1
 346.25 527.25 l 1
 394.75 527.25 l 1
 394.75 484.75 l 1
EndSplineSet
Substitution2: "'ss01' Style Set 1 in Latin lookup 5 subtable" Ydieresis.scalt1
Substitution2: "'salt' Stylistic Alternatives in Latin lookup 4 subtable" Ydieresis.scalt1
Substitution2: "'aalt' Access All Alternates in Latin lookup 0 subtable" Ydieresis.scalt1
EndChar

StartChar: Yacute.sc
Encoding: 63485 63485 209
Width: 487
VWidth: 680
Flags: HMW
HStem: 180.25 10.5G<299.25 349.75 299.25 299.25> 434.25 10G<203.25 253.75 253.75 253.75 395.25 445.75 445.75 445.75> 479.75 10.5G<290.75 340.25 290.75 290.75> 530.75 10G<339.25 388.25 388.25 388.25>
VStem: 203.25 50.5<378.25 444.25 378.25 444.25 378.25 444.25> 290.75 97.5<479.75 540.75> 299.25 50.5<180.25 274.25 180.25 274.25> 395.25 50.5<378.25 444.25>
LayerCount: 2
Fore
SplineSet
445.75 361.25 m 1xc9
 349.75 274.25 l 1
 349.75 180.25 l 1
 299.25 180.25 l 1
 299.25 274.25 l 1xc2
 203.25 361.25 l 1
 203.25 444.25 l 1
 253.75 444.25 l 1
 253.75 378.25 l 1
 324.75 313.25 l 1
 395.25 378.25 l 1
 395.25 444.25 l 1
 445.75 444.25 l 1
 445.75 361.25 l 1xc9
388.25 540.75 m 1x34
 340.25 479.75 l 1
 290.75 479.75 l 1
 339.25 540.75 l 1
 388.25 540.75 l 1x34
EndSplineSet
Substitution2: "'ss01' Style Set 1 in Latin lookup 5 subtable" Yacute.scalt1
Substitution2: "'salt' Stylistic Alternatives in Latin lookup 4 subtable" Yacute.scalt1
Substitution2: "'aalt' Access All Alternates in Latin lookup 0 subtable" Yacute.scalt1
EndChar

StartChar: Scaron.sc
Encoding: 63229 63229 210
Width: 487
VWidth: 680
Flags: HMW
HStem: 180.75 42<262.5 348.25 299.75 348.25 348.25 350.75> 296.25 40<264.75 352.75 304.25 344.75> 403.25 41.5<298.25 300.75 300.75 349.25> 479.25 10.5G<304.25 304.25 304.25 344.75> 534.75 10G
VStem: 214.25 48<244.25 253.75 253.75 253.75 363.75 367.25 367.25 373.25> 240.75 167.5 386.75 48<253.75 264.25 264.25 265.75 224 275.75 378.25 382.25>
CounterMasks: 1 07
LayerCount: 2
Fore
SplineSet
262.25 265.75 m 1
 262.25 254.25 l 2
 262.25 232.25 268.25 222.75 299.75 222.75 c 2
 348.25 222.75 l 2
 377.75 222.75 386.75 230.75 386.75 253.75 c 2
 386.75 264.25 l 2
 386.75 287.25 377.75 296.25 344.75 296.25 c 2
 293.75 296.25 l 2
 235.75 296.25 214.25 314.75 214.25 363.75 c 2
 214.25 375.75 l 2
 214.25 426.75 245.25 444.75 298.25 444.75 c 2
 356.25 444.75 l 2
 416.75 444.75 434.75 422.25 434.75 382.25 c 2
 434.75 378.25 l 1
 386.75 364.25 l 1
 386.75 372.75 l 2
 386.75 394.75 380.75 403.25 349.25 403.25 c 2
 300.75 403.25 l 2
 272.25 403.25 262.25 395.75 262.25 373.25 c 2
 262.25 367.25 l 2
 262.25 344.25 271.25 336.25 304.25 336.25 c 2
 352.75 336.25 l 2
 410.75 336.25 434.75 314.25 434.75 265.75 c 2
 434.75 249.25 l 2
 434.75 198.75 403.75 180.75 350.75 180.75 c 2
 292.75 180.75 l 2
 232.25 180.75 214.25 204.25 214.25 244.25 c 2
 214.25 253.75 l 1
 262.25 265.75 l 1
304.25 479.25 m 1
 252.75 542.25 l 1
 298.75 542.25 l 1
 323.25 509.75 l 1
 326.25 509.75 l 1
 350.75 542.25 l 1
 396.75 542.25 l 1
 344.75 479.25 l 1
 304.25 479.25 l 1
EndSplineSet
EndChar

StartChar: Zcaron.sc
Encoding: 63231 63231 211
Width: 487
VWidth: 680
Flags: HMW
HStem: 180.75 47<274.75 439.75 274.75 439.75> 398.25 46.5<218.75 368.75 218.75 433.75> 479.25 10.5G<304.25 304.25 304.25 344.75> 534.75 10G
VStem: 240.75 167.5
LayerCount: 2
Fore
SplineSet
439.75 180.75 m 1
 209.25 180.75 l 1
 209.25 222.75 l 1
 368.75 397.75 l 1
 368.75 398.25 l 1
 218.75 398.25 l 1
 218.75 444.75 l 1
 433.75 444.75 l 1
 433.75 402.25 l 1
 274.75 228.25 l 1
 274.75 227.75 l 1
 439.75 227.75 l 1
 439.75 180.75 l 1
304.25 479.25 m 1xc8
 252.75 542.25 l 1
 298.75 542.25 l 1
 323.25 509.75 l 1
 326.25 509.75 l 1
 350.75 542.25 l 1
 396.75 542.25 l 1
 344.75 479.25 l 1
 304.25 479.25 l 1xc8
EndSplineSet
EndChar

StartChar: Ntilde.sc
Encoding: 63473 63473 212
Width: 487
VWidth: 680
Flags: HMW
HStem: 180.25 10.5G<206.25 256.75 206.25 206.25 393.25 442.75 393.25 393.25> 434.25 10G<206.25 257.25 257.25 257.25 392.25 442.75 442.75 442.75> 479.75 36.5<340.5 356.25 340.5 371.75> 504.25 36.5<292.75 308.5>
VStem: 206.25 50.5<180.25 365.25 180.25 444.25> 243.25 162.5<481.25 539.25> 392.25 50.5<259.25 444.25>
LayerCount: 2
Fore
SplineSet
442.75 180.25 m 1xca
 393.25 180.25 l 1
 258.75 365.25 l 1
 256.75 365.25 l 1
 256.75 180.25 l 1
 206.25 180.25 l 1
 206.25 444.25 l 1
 257.25 444.25 l 1
 390.25 259.25 l 1
 392.25 259.25 l 1
 392.25 444.25 l 1
 442.75 444.25 l 1
 442.75 180.25 l 1xca
368.25 539.25 m 1x24
 405.75 539.25 l 1
 405.75 507.25 389.75 479.75 353.75 479.75 c 0x24
 322.75 479.75 318.25 504.25 298.75 504.25 c 0
 286.75 504.25 280.75 496.75 280.75 481.25 c 1
 243.25 481.25 l 1
 243.25 513.25 259.25 540.75 295.25 540.75 c 0x14
 326.25 540.75 330.75 516.25 350.25 516.25 c 0
 362.25 516.25 368.25 523.75 368.25 539.25 c 1x24
EndSplineSet
EndChar

StartChar: Ccedilla.sc
Encoding: 63463 63463 213
Width: 487
VWidth: 589
Flags: HMW
HStem: 4.5 33<261.75 292.25 261.75 301.25 261.75 323.25> 62 10G<318.25 358.75 318.25 318.25> 89.5 47<257 356.25 292.75 356.25 356.25 365.25> 307 46.5<283.75 292.75 292.75 356.25>
VStem: 206.75 50.5<158.5 169.5 169.5 274> 318.25 40.5<57 63 63 72> 391.75 50.5<169.5 174 133.25 190 133.25 190 271.5 274 274 284>
LayerCount: 2
Fore
SplineSet
358.75 72 m 1
 318.25 72 l 1
 318.25 63 l 2
 318.25 44.5 313.25 37.5 292.25 37.5 c 2
 261.75 37.5 l 1
 247.75 4.5 l 1
 301.25 4.5 l 2
 345.25 4.5 358.75 22 358.75 57 c 2
 358.75 72 l 1
442.25 174 m 1x3a
 442.25 158.5 l 2
 442.25 108 418.75 89.5 365.25 89.5 c 2
 283.75 89.5 l 2
 230.25 89.5 206.75 108 206.75 158.5 c 2
 206.75 284 l 2
 206.75 334.5 230.25 353.5 283.75 353.5 c 2
 365.25 353.5 l 2
 418.75 353.5 442.25 334.5 442.25 284 c 2
 442.25 271.5 l 1
 391.75 256.5 l 1
 391.75 274 l 2
 391.75 298 384.25 307 356.25 307 c 2
 292.75 307 l 2
 264.75 307 257.25 298 257.25 274 c 2
 257.25 169.5 l 2
 257.25 145.5 264.75 136.5 292.75 136.5 c 2
 356.25 136.5 l 2
 384.25 136.5 391.75 145.5 391.75 169.5 c 2
 391.75 190 l 1
 442.25 174 l 1x3a
EndSplineSet
EndChar

StartChar: Aring.sc
Encoding: 63461 63461 214
Width: 487
VWidth: 692
Flags: HMW
HStem: 192.25 10.5G<193.5 242.5 242.5 242.5 407 456.5 456.5 456.5> 261.75 42.5<272 272 272 378> 446.25 10G<302.5 347.5 302.5 302.5> 483.25 25.5<318.5 331 318.5 338.25> 551.25 25.5<318.5 331>
VStem: 193.5 49<192.25 235.75 192.25 252.25 192.25 235.75> 276.5 27<523.75 536.25 523.75 543.5> 346 26.5<523.75 536.25> 407 49.5<192.25 235.75 192.25 252.25>
LayerCount: 2
Fore
SplineSet
456.5 252.25 m 1
 347.5 456.25 l 1
 302.5 456.25 l 1
 193.5 252.25 l 1
 193.5 192.25 l 1
 242.5 192.25 l 1
 242.5 235.75 l 1
 255.5 261.75 l 1
 394 261.75 l 1
 407 235.75 l 1
 407 192.25 l 1
 456.5 192.25 l 1
 456.5 252.25 l 1
272 304.25 m 1
 324.5 403.25 l 1
 325.5 403.25 l 1
 378 304.25 l 1
 272 304.25 l 1
303.5 529.75 m 0x1b
 303.5 517.75 312.5 508.75 324.5 508.75 c 0
 337.5 508.75 346 517.75 346 529.75 c 0
 346 542.75 337.5 551.25 324.5 551.25 c 0
 312.5 551.25 303.5 542.75 303.5 529.75 c 0x1b
276.5 529.75 m 0
 276.5 557.25 297 576.75 324.5 576.75 c 0
 352 576.75 372.5 557.25 372.5 529.75 c 0
 372.5 502.75 352 483.25 324.5 483.25 c 0
 297 483.25 276.5 502.75 276.5 529.75 c 0
EndSplineSet
Substitution2: "'ss01' Style Set 1 in Latin lookup 5 subtable" Aring.scalt1
Substitution2: "'salt' Stylistic Alternatives in Latin lookup 4 subtable" Aring.scalt1
Substitution2: "'aalt' Access All Alternates in Latin lookup 0 subtable" Aring.scalt1
EndChar

StartChar: Adieresis.scalt1
Encoding: 65581 -1 215
Width: 487
VWidth: 675
Flags: HMW
HStem: 175.75 10.5G<183.25 239.25 183.25 183.25 410.25 465.75 410.25 410.25> 237.25 40<277.25 372.25 277.25 384.25 265.25 372.25> 429.75 10G<296.25 353.25 353.25 353.25> 484.75 42.5<254.25 303.25 254.25 303.25 346.25 394.75>
VStem: 254.25 49<484.75 527.25 484.75 527.25> 346.25 48.5<484.75 527.25 484.75 527.25>
LayerCount: 2
Fore
SplineSet
353.25 439.75 m 1
 465.75 175.75 l 1
 410.25 175.75 l 1
 384.25 237.25 l 1
 265.25 237.25 l 1
 239.25 175.75 l 1
 183.25 175.75 l 1
 296.25 439.75 l 1
 353.25 439.75 l 1
323.75 387.75 m 1
 277.25 277.25 l 1
 372.25 277.25 l 1
 325.75 387.75 l 1
 323.75 387.75 l 1
303.25 484.75 m 1x1c
 254.25 484.75 l 1
 254.25 527.25 l 1
 303.25 527.25 l 1
 303.25 484.75 l 1x1c
394.75 484.75 m 1
 346.25 484.75 l 1
 346.25 527.25 l 1
 394.75 527.25 l 1
 394.75 484.75 l 1
EndSplineSet
EndChar

StartChar: Aacute.scalt1
Encoding: 65582 -1 216
Width: 487
VWidth: 680
Flags: HMW
HStem: 180.25 10.5G<183.25 239.25 183.25 183.25 410.25 465.75 410.25 410.25> 241.75 40<277.25 372.25 277.25 384.25 265.25 372.25> 434.25 10G<296.25 353.25 353.25 353.25> 479.75 10.5G<290.75 340.25 290.75 290.75> 530.75 10G<339.25 388.25 388.25 388.25>
VStem: 290.75 97.5<479.75 540.75>
LayerCount: 2
Fore
SplineSet
353.25 444.25 m 1
 465.75 180.25 l 1
 410.25 180.25 l 1
 384.25 241.75 l 1
 265.25 241.75 l 1
 239.25 180.25 l 1
 183.25 180.25 l 1
 296.25 444.25 l 1
 353.25 444.25 l 1
323.75 392.25 m 1
 277.25 281.75 l 1
 372.25 281.75 l 1
 325.75 392.25 l 1
 323.75 392.25 l 1
388.25 540.75 m 1x1c
 340.25 479.75 l 1
 290.75 479.75 l 1
 339.25 540.75 l 1
 388.25 540.75 l 1x1c
EndSplineSet
EndChar

StartChar: Agrave.scalt1
Encoding: 65583 -1 217
Width: 487
VWidth: 680
Flags: HMW
HStem: 180.25 10.5G<183.25 239.25 183.25 183.25 410.25 465.75 410.25 410.25> 241.75 40<277.25 372.25 277.25 384.25 265.25 372.25> 434.25 10G<296.25 353.25 353.25 353.25> 478.75 10.5G 534.25 10G
VStem: 264.25 104.5
LayerCount: 2
Fore
SplineSet
353.25 444.25 m 1
 465.75 180.25 l 1
 410.25 180.25 l 1
 384.25 241.75 l 1
 265.25 241.75 l 1
 239.25 180.25 l 1
 183.25 180.25 l 1
 296.25 444.25 l 1
 353.25 444.25 l 1
323.75 392.25 m 1
 277.25 281.75 l 1
 372.25 281.75 l 1
 325.75 392.25 l 1
 323.75 392.25 l 1
308.75 479.75 m 1
 260.75 540.75 l 1xa4
 309.75 540.75 l 1
 358.25 479.75 l 1
 308.75 479.75 l 1
EndSplineSet
EndChar

StartChar: Acircumflex.scalt1
Encoding: 65584 -1 218
Width: 487
VWidth: 680
Flags: HMW
HStem: 180.75 10.5G<183.25 239.25 183.25 183.25 410.25 465.75 410.25 410.25> 242.25 40<277.25 372.25 277.25 384.25 265.25 372.25> 434.75 10G<296.25 353.25 353.25 353.25> 479.25 10.5G<252.75 252.75 252.75 298.75 350.75 350.75 350.75 396.75> 532.25 10G<304.25 344.75 344.75 344.75>
VStem: 252.75 144<479.25 479.25>
LayerCount: 2
Fore
SplineSet
353.25 444.75 m 1
 465.75 180.75 l 1
 410.25 180.75 l 1
 384.25 242.25 l 1
 265.25 242.25 l 1
 239.25 180.75 l 1
 183.25 180.75 l 1
 296.25 444.75 l 1
 353.25 444.75 l 1
323.75 392.75 m 1
 277.25 282.25 l 1
 372.25 282.25 l 1
 325.75 392.75 l 1
 323.75 392.75 l 1
252.75 479.25 m 1
 304.25 542.25 l 1x1c
 344.75 542.25 l 1
 396.75 479.25 l 1
 350.75 479.25 l 1
 326.25 511.75 l 1
 322.75 511.75 l 1
 298.75 479.25 l 1
 252.75 479.25 l 1
EndSplineSet
EndChar

StartChar: Atilde.scalt1
Encoding: 65585 -1 219
Width: 487
VWidth: 680
Flags: HMW
HStem: 180.25 10.5G<183.25 239.25 183.25 183.25 410.25 465.75 410.25 410.25> 241.75 40<277.25 372.25 277.25 384.25 265.25 372.25> 434.25 10G<296.25 353.25 353.25 353.25> 479.75 36.5<340.5 356.25 340.5 371.75> 504.25 36.5<292.75 308.5>
VStem: 243.25 162.5<481.25 539.25>
LayerCount: 2
Fore
SplineSet
353.25 444.25 m 1xe0
 465.75 180.25 l 1
 410.25 180.25 l 1
 384.25 241.75 l 1
 265.25 241.75 l 1
 239.25 180.25 l 1
 183.25 180.25 l 1
 296.25 444.25 l 1
 353.25 444.25 l 1xe0
323.75 392.25 m 1
 277.25 281.75 l 1
 372.25 281.75 l 1
 325.75 392.25 l 1
 323.75 392.25 l 1
368.25 539.25 m 1x14
 405.75 539.25 l 1
 405.75 507.25 389.75 479.75 353.75 479.75 c 0x14
 322.75 479.75 318.25 504.25 298.75 504.25 c 0
 286.75 504.25 280.75 496.75 280.75 481.25 c 1
 243.25 481.25 l 1
 243.25 513.25 259.25 540.75 295.25 540.75 c 0x0c
 326.25 540.75 330.75 516.25 350.25 516.25 c 0
 362.25 516.25 368.25 523.75 368.25 539.25 c 1x14
EndSplineSet
EndChar

StartChar: Amacron.scalt1
Encoding: 65586 -1 220
Width: 487
VWidth: 674
Flags: HMW
HStem: 174.25 10.5G<183.25 239.25 183.25 183.25 410.25 465.75 410.25 410.25> 235.75 40<277.25 372.25 277.25 384.25 265.25 372.25> 428.25 10G<296.25 353.25 353.25 353.25> 486.25 36.5<251.75 397.75 251.75 397.75>
VStem: 251.75 146<486.25 522.75 486.25 522.75>
LayerCount: 2
Fore
SplineSet
353.25 438.25 m 1
 465.75 174.25 l 1
 410.25 174.25 l 1
 384.25 235.75 l 1
 265.25 235.75 l 1
 239.25 174.25 l 1
 183.25 174.25 l 1
 296.25 438.25 l 1
 353.25 438.25 l 1
323.75 386.25 m 1
 277.25 275.75 l 1
 372.25 275.75 l 1
 325.75 386.25 l 1
 323.75 386.25 l 1
397.75 486.25 m 1x18
 251.75 486.25 l 1
 251.75 522.75 l 1
 397.75 522.75 l 1
 397.75 486.25 l 1x18
EndSplineSet
EndChar

StartChar: Ydieresis.scalt1
Encoding: 65587 -1 221
Width: 487
VWidth: 675
Flags: HMW
HStem: 175.75 10.5G<299.25 349.75 299.25 299.25> 429.75 10G<188.75 248.25 248.25 248.25 400.75 460.25 460.25 460.25> 484.75 42.5<254.25 303.25 254.25 303.25 346.25 394.75>
VStem: 254.25 49<484.75 527.25 484.75 527.25> 299.25 50.5<175.75 296.25 175.75 296.25> 346.25 48.5<484.75 527.25 484.75 527.25>
LayerCount: 2
Fore
SplineSet
460.25 439.75 m 1xc8
 349.75 296.25 l 1
 349.75 175.75 l 1
 299.25 175.75 l 1
 299.25 296.25 l 1
 188.75 439.75 l 1
 248.25 439.75 l 1
 324.75 338.75 l 1
 400.75 439.75 l 1
 460.25 439.75 l 1xc8
303.25 484.75 m 1x34
 254.25 484.75 l 1
 254.25 527.25 l 1
 303.25 527.25 l 1
 303.25 484.75 l 1x34
394.75 484.75 m 1
 346.25 484.75 l 1
 346.25 527.25 l 1
 394.75 527.25 l 1
 394.75 484.75 l 1
EndSplineSet
EndChar

StartChar: Yacute.scalt1
Encoding: 65588 -1 222
Width: 487
VWidth: 680
Flags: HMW
HStem: 180.25 10.5G<299.25 349.75 299.25 299.25> 434.25 10G<188.75 248.25 248.25 248.25 400.75 460.25 460.25 460.25> 479.75 10.5G<290.75 340.25 290.75 290.75> 530.75 10G<339.25 388.25 388.25 388.25>
VStem: 290.75 97.5<479.75 540.75> 299.25 50.5<180.25 300.75 180.25 300.75>
LayerCount: 2
Fore
SplineSet
460.25 444.25 m 1xc4
 349.75 300.75 l 1
 349.75 180.25 l 1
 299.25 180.25 l 1
 299.25 300.75 l 1
 188.75 444.25 l 1
 248.25 444.25 l 1
 324.75 343.25 l 1
 400.75 444.25 l 1
 460.25 444.25 l 1xc4
388.25 540.75 m 1x38
 340.25 479.75 l 1
 290.75 479.75 l 1
 339.25 540.75 l 1
 388.25 540.75 l 1x38
EndSplineSet
EndChar

StartChar: Aring.scalt1
Encoding: 65589 -1 223
Width: 487
VWidth: 692
Flags: HMW
HStem: 192.25 10.5G<183.25 239.25 183.25 183.25 410.25 465.75 410.25 410.25> 253.75 40<277.25 372.25 277.25 384.25 265.25 372.25> 446.25 10G<296.25 353.25 353.25 353.25> 483.25 25.5<318.25 330.75 318.25 338> 551.25 25.5<318.25 330.75>
VStem: 276.25 27<523.75 536.25 523.75 543.5> 345.75 26.5<523.75 536.25>
LayerCount: 2
Fore
SplineSet
353.25 456.25 m 1
 465.75 192.25 l 1
 410.25 192.25 l 1
 384.25 253.75 l 1
 265.25 253.75 l 1
 239.25 192.25 l 1
 183.25 192.25 l 1
 296.25 456.25 l 1
 353.25 456.25 l 1
323.75 404.25 m 1
 277.25 293.75 l 1
 372.25 293.75 l 1
 325.75 404.25 l 1
 323.75 404.25 l 1
303.25 529.75 m 0x1e
 303.25 517.75 312.25 508.75 324.25 508.75 c 0
 337.25 508.75 345.75 517.75 345.75 529.75 c 0
 345.75 542.75 337.25 551.25 324.25 551.25 c 0
 312.25 551.25 303.25 542.75 303.25 529.75 c 0x1e
276.25 529.75 m 0
 276.25 557.25 296.75 576.75 324.25 576.75 c 0
 351.75 576.75 372.25 557.25 372.25 529.75 c 0
 372.25 502.75 351.75 483.25 324.25 483.25 c 0
 296.75 483.25 276.25 502.75 276.25 529.75 c 0
EndSplineSet
EndChar

StartChar: adieresis
Encoding: 228 228 224
Width: 482
VWidth: 675
Flags: HMW
HStem: 175.75 42<251.75 325.5 288.5 311.5> 297.75 40<276 288.5 288.5 309 309 325.5> 398.25 41.5<292 296 296 338.5> 484.75 42.5<249 298 249 298 341 389.5>
VStem: 202 48<245.25 250.75 250.75 264.75 238.5 268.75 238.5 293.75> 212 48<359.25 376.75 359.25 397> 249 49<484.75 527.25 484.75 527.25> 341 48.5<484.75 527.25 484.75 527.25> 378 48<175.75 196.75 196.75 196.75 248.75 266.75 266.75 279 317.75 359.75 359.75 361.75>
LayerCount: 2
Fore
SplineSet
426 175.75 m 1xe480
 378 175.75 l 1
 378 196.75 l 1
 377 196.75 l 1
 366 184.75 347 175.75 311.5 175.75 c 2
 276 175.75 l 2
 227.5 175.75 202 194.25 202 245.25 c 2
 202 268.75 l 2xe880
 202 318.75 227.5 337.75 276 337.75 c 2
 309 337.75 l 2
 344.5 337.75 366 328.75 377 317.75 c 1
 378 317.75 l 1
 378 359.75 l 2
 378 386.75 369 398.25 338.5 398.25 c 2
 296 398.25 l 2
 268 398.25 260 388.25 260 366.25 c 2
 260 359.25 l 1
 212 371.75 l 1
 212 376.75 l 2
 212 417.25 238 439.75 292 439.75 c 2
 343 439.75 l 2
 398 439.75 426 412.75 426 361.75 c 2
 426 175.75 l 1xe480
325.5 297.75 m 2
 288.5 297.75 l 2
 260.5 297.75 250 289.25 250 264.75 c 2
 250 250.75 l 2
 250 226.25 260.5 217.75 288.5 217.75 c 2
 325.5 217.75 l 2
 352.5 217.75 378 225.25 378 248.75 c 2
 378 266.75 l 2
 378 291.25 352 297.75 325.5 297.75 c 2
298 484.75 m 1x13
 249 484.75 l 1
 249 527.25 l 1
 298 527.25 l 1
 298 484.75 l 1x13
389.5 484.75 m 1
 341 484.75 l 1
 341 527.25 l 1
 389.5 527.25 l 1
 389.5 484.75 l 1
EndSplineSet
Substitution2: "'smcp' Lowercase to Small Capitals in Latin lookup 3 subtable" Adieresis.sc
Substitution2: "'aalt' Access All Alternates in Latin lookup 0 subtable" Adieresis.sc
EndChar

